SplineFontDB: 3.0
FontName: Cardo-Italic
FullName: Cardo Italic
FamilyName: Cardo
Weight: Book
Copyright: Copyright (c) 2002-2011, David J. Perry (hospes02@scholarsfonts.net)
Version: 0.991
ItalicAngle: -12
UnderlinePosition: -105
UnderlineWidth: 100
Ascent: 1638
Descent: 410
sfntRevision: 0x0000fdb2
LayerCount: 2
Layer: 0 1 "Back"  1
Layer: 1 1 "Fore"  0
XUID: [1021 288 713564382 14844297]
FSType: 0
OS2Version: 3
OS2_WeightWidthSlopeOnly: 0
OS2_UseTypoMetrics: 1
CreationTime: 1298765412
ModificationTime: 1315160156
PfmFamily: 17
TTFWeight: 400
TTFWidth: 5
LineGap: 0
VLineGap: 0
Panose: 2 2 6 0 0 0 0 0 0 0
OS2TypoAscent: 2028
OS2TypoAOffset: 0
OS2TypoDescent: -745
OS2TypoDOffset: 0
OS2TypoLinegap: 0
OS2WinAscent: 2028
OS2WinAOffset: 0
OS2WinDescent: 745
OS2WinDOffset: 0
HheadAscent: 2028
HheadAOffset: 0
HheadDescent: -745
HheadDOffset: 0
OS2SubXSize: 205
OS2SubYSize: 205
OS2SubXOff: 0
OS2SubYOff: 287
OS2SupXSize: 205
OS2SupYSize: 205
OS2SupXOff: 0
OS2SupYOff: 287
OS2StrikeYSize: 102
OS2StrikeYPos: 512
OS2FamilyClass: 258
OS2Vendor: 'FSFS'
OS2CodePages: 200000bb.4d000000
OS2UnicodeRanges: e40008ff.5001e0fb.00008000.00000000
Lookup: 4 0 1 "'liga' Standard Ligatures in Latin lookup 0"  {"'liga' Standard Ligatures in Latin lookup 0 subtable"  } ['liga' ('latn' <'dflt' > ) ]
Lookup: 1 0 0 "'hist' Historical Forms in Latin lookup 1"  {"'hist' Historical Forms in Latin lookup 1 subtable"  } ['hist' ('latn' <'dflt' > ) ]
Lookup: 6 0 0 "'hist' Historical Forms in Latin lookup 2"  {"'hist' Historical Forms in Latin lookup 2 contextual 0"  "'hist' Historical Forms in Latin lookup 2 contextual 1"  "'hist' Historical Forms in Latin lookup 2 contextual 2"  "'hist' Historical Forms in Latin lookup 2 contextual 3"  "'hist' Historical Forms in Latin lookup 2 contextual 4"  } ['hist' ('latn' <'dflt' > ) ]
Lookup: 4 0 0 "'hlig' Historic Ligatures in Latin lookup 3"  {"'hlig' Historic Ligatures in Latin lookup 3 subtable"  } ['hlig' ('latn' <'dflt' > ) ]

StartChar: .notdef
Encoding: 65536 -1 0
Width: 1078
Flags: W
LayerCount: 2
Fore
SplineSet
120 1410 m 1,0,-1
 958 1410 l 1,1,-1
 958 0 l 1,2,-1
 120 0 l 1,3,-1
 120 1410 l 1,0,-1
911 47 m 1,4,-1
 911 1363 l 1,5,-1
 167 1363 l 1,6,-1
 167 47 l 1,7,-1
 911 47 l 1,4,-1
389 674 m 256,8,9
 389 736 389 736 433 780 c 128,-1,10
 477 824 477 824 539 824 c 256,11,12
 601 824 601 824 645 780 c 128,-1,13
 689 736 689 736 689 674 c 256,14,15
 689 612 689 612 645 568 c 128,-1,16
 601 524 601 524 539 524 c 256,17,18
 477 524 477 524 433 568 c 128,-1,19
 389 612 389 612 389 674 c 256,8,9
EndSplineSet
EndChar

StartChar: exclam
Encoding: 33 33 4
Width: 632
Flags: W
LayerCount: 2
Fore
SplineSet
407 106 m 1,0,1
 393.244541485 39.9737991266 393.244541485 39.9737991266 377.622270742 17.9868995633 c 0,2,3
 345.657894737 -27 345.657894737 -27 284 -27 c 0,4,5
 234.842105263 -27 234.842105263 -27 223 48 c 0,6,7
 220 67 220 67 220 86 c 128,-1,8
 220 105 220 105 230 125.5 c 128,-1,9
 240 146 240 146 255.5 162 c 0,10,11
 289.40625 197 289.40625 197 331.703125 197 c 0,12,13
 407 197 407 197 407 106 c 1,0,1
499 1420 m 2,14,15
 504 1451 504 1451 529 1452 c 1,16,-1
 637 1447 l 2,17,18
 648 1446 648 1446 660.5 1443 c 128,-1,19
 673 1440 673 1440 673 1430.5 c 128,-1,20
 673 1421 673 1421 672 1417 c 2,21,-1
 396 378 l 1,22,-1
 337 378 l 1,23,-1
 499 1420 l 2,14,15
EndSplineSet
EndChar

StartChar: quotedbl
Encoding: 34 34 5
Width: 816
Flags: W
LayerCount: 2
Fore
SplineSet
225 856 m 1,0,-1
 273 1350 l 2,1,2
 276.842857143 1398.03571429 276.842857143 1398.03571429 301.421428571 1418.51785714 c 0,3,4
 341.6 1452 341.6 1452 377.3 1452 c 128,-1,5
 413 1452 413 1452 432.5 1432.5 c 128,-1,6
 452 1413 452 1413 452 1398 c 0,7,8
 452 1372.5 452 1372.5 449 1365 c 2,9,-1
 285 856 l 1,10,-1
 225 856 l 1,0,-1
589 856 m 1,11,-1
 637 1350 l 2,12,13
 640.842857143 1398.03571429 640.842857143 1398.03571429 665.421428571 1418.51785714 c 0,14,15
 705.6 1452 705.6 1452 741.3 1452 c 128,-1,16
 777 1452 777 1452 796.5 1432.5 c 128,-1,17
 816 1413 816 1413 816 1398 c 0,18,19
 816 1372.5 816 1372.5 813 1365 c 2,20,-1
 649 856 l 1,21,-1
 589 856 l 1,11,-1
EndSplineSet
EndChar

StartChar: numbersign
Encoding: 35 35 6
Width: 1373
Flags: W
LayerCount: 2
Fore
SplineSet
342 1065 m 1,0,-1
 614 1065 l 1,1,-1
 715 1538 l 1,2,-1
 842 1538 l 1,3,-1
 741 1065 l 1,4,-1
 993 1065 l 1,5,-1
 1094 1538 l 1,6,-1
 1221 1538 l 1,7,-1
 1120 1065 l 1,8,-1
 1393 1065 l 1,9,-1
 1364 944 l 1,10,-1
 1094 944 l 1,11,-1
 1022 594 l 1,12,-1
 1298 594 l 1,13,-1
 1270 473 l 1,14,-1
 995 473 l 1,15,-1
 889 -35 l 1,16,-1
 756 -35 l 1,17,-1
 864 473 l 1,18,-1
 616 473 l 1,19,-1
 510 -35 l 1,20,-1
 377 -35 l 1,21,-1
 485 473 l 1,22,-1
 215 473 l 1,23,-1
 246 594 l 1,24,-1
 512 594 l 1,25,-1
 588 944 l 1,26,-1
 309 944 l 1,27,-1
 342 1065 l 1,0,-1
643 594 m 1,28,-1
 891 594 l 1,29,-1
 965 944 l 1,30,-1
 715 944 l 1,31,-1
 643 594 l 1,28,-1
EndSplineSet
EndChar

StartChar: dollar
Encoding: 36 36 7
Width: 1049
Flags: W
LayerCount: 2
Fore
SplineSet
600 1276 m 1,0,1
 683.652173913 1263.13043478 683.652173913 1263.13043478 740 1242 c 1,2,-1
 783 1443 l 1,3,-1
 841 1443 l 1,4,-1
 793 1220 l 1,5,6
 1002 1123.53846154 1002 1123.53846154 1002 998 c 0,7,8
 1002 972 1002 972 982.5 952.5 c 128,-1,9
 963 933 963 933 935.5 933 c 128,-1,10
 908 933 908 933 887.5 959 c 128,-1,11
 867 985 867 985 849.5 1021 c 128,-1,12
 832 1057 832 1057 816 1093.5 c 0,13,14
 797.658536585 1135.34146341 797.658536585 1135.34146341 779 1154 c 1,15,-1
 675 666 l 1,16,17
 687 654 687 654 713 633 c 128,-1,18
 739 612 739 612 776 572 c 128,-1,19
 813 532 813 532 841.5 487.5 c 0,20,21
 904 389.912280702 904 389.912280702 904 307.456140351 c 128,-1,22
 904 225 904 225 873.5 166 c 128,-1,23
 843 107 843 107 791.5 65.5 c 0,24,25
 688.183419173 -17.7551088221 688.183419173 -17.7551088221 529 -22 c 1,26,-1
 490 -209 l 1,27,-1
 432 -209 l 1,28,-1
 472 -20 l 1,29,30
 372.67032967 -11.3626373626 372.67032967 -11.3626373626 331 6 c 1,31,-1
 285 -209 l 1,32,-1
 229 -209 l 1,33,-1
 279 27 l 1,34,35
 124.478448276 97.2370689655 124.478448276 97.2370689655 68.5 213.5 c 0,36,37
 49 254 49 254 49 285 c 128,-1,38
 49 316 49 316 56 330 c 128,-1,39
 63 344 63 344 74 354 c 0,40,41
 97.1 375 97.1 375 125.55 375 c 128,-1,42
 154 375 154 375 168.5 361 c 128,-1,43
 183 347 183 347 190.5 324 c 128,-1,44
 198 301 198 301 202 271 c 128,-1,45
 206 241 206 241 215 209 c 0,46,47
 237.615925059 128.587822014 237.615925059 128.587822014 292 87 c 1,48,-1
 419 684 l 1,49,50
 240 858.162162162 240 858.162162162 240 993 c 0,51,52
 240 1108.54761905 240 1108.54761905 332 1188.5 c 0,53,54
 418.210526316 1263.42105263 418.210526316 1263.42105263 544 1276 c 1,55,-1
 580 1443 l 1,56,-1
 636 1443 l 1,57,-1
 600 1276 l 1,0,1
589 529 m 1,58,59
 559 557 559 557 527.5 584.5 c 128,-1,60
 496 612 496 612 465 641 c 1,61,-1
 341 56 l 1,62,63
 374 39 374 39 404 31.5 c 0,64,65
 445 21.25 445 21.25 481 19 c 1,66,-1
 589 529 l 1,58,59
730 1193 m 1,67,68
 679.202072539 1219.7357513 679.202072539 1219.7357513 640.601036269 1224.36787565 c 128,-1,69
 602 1229 602 1229 591 1231 c 1,70,-1
 506 831 l 1,71,72
 544.858695652 786.163043478 544.858695652 786.163043478 627 709 c 1,73,-1
 730 1193 l 1,67,68
538 22 m 1,74,75
 626.783382789 35.3175074184 626.783382789 35.3175074184 690.5 96 c 0,76,77
 762 164.095238095 762 164.095238095 762 238.047619048 c 128,-1,78
 762 312 762 312 726.5 369 c 128,-1,79
 691 426 691 426 636 482 c 1,80,-1
 538 22 l 1,74,75
535 1230 m 1,81,82
 464.33287951 1221.92375766 464.33287951 1221.92375766 419 1173.5 c 0,83,84
 373 1124.36363636 373 1124.36363636 373 1051 c 0,85,86
 373 1010.65217391 373 1010.65217391 390 981.826086957 c 0,87,88
 410.833333333 946.5 410.833333333 946.5 461 882 c 1,89,-1
 535 1230 l 1,81,82
EndSplineSet
EndChar

StartChar: ampersand
Encoding: 38 38 9
Width: 1548
Flags: W
LayerCount: 2
Fore
SplineSet
1221 645.5 m 128,-1,1
 1191 643 1191 643 1171.5 643 c 128,-1,2
 1152 643 1152 643 1152 631 c 0,3,4
 1152 627 1152 627 1159 617 c 128,-1,5
 1166 607 1166 607 1177.5 589.5 c 128,-1,6
 1189 572 1189 572 1199.5 548.5 c 0,7,8
 1224 493.666666667 1224 493.666666667 1224 427.333333333 c 128,-1,9
 1224 361 1224 361 1197 302 c 128,-1,10
 1170 243 1170 243 1125 195 c 128,-1,11
 1080 147 1080 147 1020 110 c 128,-1,12
 960 73 960 73 894.5 48 c 0,13,14
 760.88 -3 760.88 -3 633 -3 c 0,15,16
 422.123076923 -3 422.123076923 -3 244.5 86.5 c 0,17,18
 109.922371882 154.310432773 109.922371882 154.310432773 50.5 279 c 0,19,20
 20 343 20 343 20 416.5 c 128,-1,21
 20 490 20 490 40 549.5 c 128,-1,22
 60 609 60 609 96.5 659 c 0,23,24
 173.197198276 764.064655172 173.197198276 764.064655172 295 804 c 0,25,26
 328.181818182 814.618181818 328.181818182 814.618181818 350.090909091 816.809090909 c 128,-1,27
 372 819 372 819 376 821.5 c 128,-1,28
 380 824 380 824 380 832.5 c 128,-1,29
 380 841 380 841 376.5 845.5 c 128,-1,30
 373 850 373 850 366.5 854 c 128,-1,31
 360 858 360 858 351 863.5 c 128,-1,32
 342 869 342 869 323.5 886 c 128,-1,33
 305 903 305 903 284 926.5 c 128,-1,34
 263 950 263 950 247.5 976.5 c 0,35,36
 215 1032.06451613 215 1032.06451613 215 1095.53225806 c 128,-1,37
 215 1159 215 1159 240 1210 c 128,-1,38
 265 1261 265 1261 306.5 1300.5 c 128,-1,39
 348 1340 348 1340 402 1369 c 128,-1,40
 456 1398 456 1398 514 1416.5 c 0,41,42
 628.432432432 1453 628.432432432 1453 737 1453 c 0,43,44
 860.647058824 1453 860.647058824 1453 974 1406 c 0,45,46
 1120 1345.46341463 1120 1345.46341463 1120 1232 c 0,47,48
 1120 1203 1120 1203 1101 1180.5 c 128,-1,49
 1082 1158 1082 1158 1053 1158 c 128,-1,50
 1024 1158 1024 1158 1006.5 1169 c 128,-1,51
 989 1180 989 1180 977.5 1197.5 c 0,52,53
 961.192090395 1222.31638418 961.192090395 1222.31638418 951.096045198 1269.65819209 c 128,-1,54
 941 1317 941 1317 917.5 1339.5 c 128,-1,55
 894 1362 894 1362 864 1375.5 c 0,56,57
 809.555555556 1400 809.555555556 1400 736.277777778 1400 c 128,-1,58
 663 1400 663 1400 599.5 1371.5 c 128,-1,59
 536 1343 536 1343 492 1292.5 c 0,60,61
 401 1188.05681818 401 1188.05681818 401 1027 c 0,62,63
 401 920.857142857 401 920.857142857 469.5 891.5 c 0,64,65
 501 878 501 878 542.5 875.5 c 128,-1,66
 584 873 584 873 619 870 c 128,-1,67
 654 867 654 867 663 858.5 c 128,-1,68
 672 850 672 850 672 834 c 128,-1,69
 672 818 672 818 663 810 c 128,-1,70
 654 802 654 802 642 797 c 0,71,72
 620.4 788 620.4 788 572.2 788 c 0,73,74
 424.333333333 788 424.333333333 788 357.666666667 753 c 128,-1,75
 291 718 291 718 252.5 639 c 128,-1,76
 214 560 214 560 214 460.5 c 128,-1,77
 214 361 214 361 247 290 c 128,-1,78
 280 219 280 219 337 165.5 c 0,79,80
 460.056074766 50 460.056074766 50 633 50 c 0,81,82
 805.313432836 50 805.313432836 50 980 154.5 c 0,83,84
 1097.78027593 224.957843638 1097.78027593 224.957843638 1148 322.5 c 0,85,86
 1174 373 1174 373 1174 430.5 c 128,-1,87
 1174 488 1174 488 1155.5 529 c 128,-1,88
 1137 570 1137 570 1104 596.5 c 0,89,90
 1039.86792453 648 1039.86792453 648 926 648 c 0,91,92
 840.307692308 648 840.307692308 648 790.5 613 c 0,93,94
 772 600 772 600 772 582 c 128,-1,95
 772 564 772 564 779.5 553 c 128,-1,96
 787 542 787 542 795.5 531.5 c 0,97,98
 819 502.470588235 819 502.470588235 819 482.735294118 c 128,-1,99
 819 463 819 463 805 446 c 128,-1,100
 791 429 791 429 769.5 429 c 128,-1,101
 748 429 748 429 733 437 c 128,-1,102
 718 445 718 445 707.5 458.5 c 0,103,104
 686 486.142857143 686 486.142857143 686 535.571428571 c 128,-1,105
 686 585 686 585 721 628.5 c 128,-1,106
 756 672 756 672 807.5 700.5 c 0,107,108
 909.596491228 757 909.596491228 757 1024 757 c 1,109,-1
 1280 746 l 1,110,111
 1427 746 1427 746 1427 804 c 0,112,113
 1427 822.75 1427 822.75 1416.5 835.875 c 0,114,115
 1397 860.25 1397 860.25 1397 880.625 c 128,-1,116
 1397 901 1397 901 1416 916 c 128,-1,117
 1435 931 1435 931 1455 931 c 128,-1,118
 1475 931 1475 931 1486.5 923 c 128,-1,119
 1498 915 1498 915 1506 902.5 c 0,120,121
 1522 877.5 1522 877.5 1522 838.25 c 128,-1,122
 1522 799 1522 799 1500 766.5 c 128,-1,123
 1478 734 1478 734 1444 711.5 c 128,-1,124
 1410 689 1410 689 1368.5 675.5 c 128,-1,125
 1327 662 1327 662 1289 655 c 128,-1,0
 1251 648 1251 648 1221 645.5 c 128,-1,1
EndSplineSet
EndChar

StartChar: quotesingle
Encoding: 39 39 10
Width: 452
Flags: W
LayerCount: 2
Fore
SplineSet
225 856 m 1,0,-1
 273 1350 l 2,1,2
 276.842857143 1398.03571429 276.842857143 1398.03571429 301.421428571 1418.51785714 c 0,3,4
 341.6 1452 341.6 1452 377.3 1452 c 128,-1,5
 413 1452 413 1452 432.5 1432.5 c 128,-1,6
 452 1413 452 1413 452 1398 c 0,7,8
 452 1372.5 452 1372.5 449 1365 c 2,9,-1
 285 856 l 1,10,-1
 225 856 l 1,0,-1
EndSplineSet
EndChar

StartChar: parenleft
Encoding: 40 40 11
Width: 681
Flags: W
LayerCount: 2
Fore
SplineSet
867 1722 m 0,0,1
 877 1732 877 1732 883 1732 c 128,-1,2
 889 1732 889 1732 895 1725 c 128,-1,3
 901 1718 901 1718 905.5 1708 c 0,4,5
 916 1684.66666667 916 1684.66666667 916 1676.83333333 c 0,6,7
 916 1665.75 916 1665.75 905 1652 c 0,8,9
 489.703788684 1155.59124741 489.703788684 1155.59124741 368 615 c 0,10,11
 325 424 325 424 325 233.5 c 0,12,13
 325 -137.028571429 325 -137.028571429 461 -444 c 0,14,15
 463 -448 463 -448 463 -455.5 c 128,-1,16
 463 -463 463 -463 457 -474 c 128,-1,17
 451 -485 451 -485 442 -496.5 c 0,18,19
 420.47826087 -524 420.47826087 -524 407.739130435 -524 c 128,-1,20
 395 -524 395 -524 390 -514 c 0,21,22
 200 -134 200 -134 200 237 c 0,23,24
 200 643.335260116 200 643.335260116 379.5 1034.5 c 0,25,26
 550.848808129 1407.90173795 550.848808129 1407.90173795 867 1722 c 0,0,1
EndSplineSet
EndChar

StartChar: parenright
Encoding: 41 41 12
Width: 675
Flags: W
LayerCount: 2
Fore
SplineSet
411.5 1725 m 0,0,1
 421 1732 421 1732 425.833333333 1732 c 128,-1,2
 430.666666667 1732 430.666666667 1732 439 1722 c 1,3,4
 640 1399.6039604 640 1399.6039604 640 968 c 0,5,6
 640 565.113636364 640 565.113636364 457 170 c 0,7,8
 280.739837398 -210.561714708 280.739837398 -210.561714708 -35 -514 c 0,9,10
 -42 -520 -42 -520 -44 -522 c 128,-1,11
 -46 -524 -46 -524 -51.5 -524 c 128,-1,12
 -57 -524 -57 -524 -63.5 -517 c 128,-1,13
 -70 -510 -70 -510 -74.5 -500 c 0,14,15
 -85 -476.666666667 -85 -476.666666667 -85 -468.833333333 c 0,16,17
 -85 -455 -85 -455 -74 -444 c 1,18,19
 515 243.166666667 515 243.166666667 515 985 c 0,20,21
 515 1329.02857143 515 1329.02857143 371 1652 c 0,22,23
 369 1656 369 1656 369 1663.5 c 0,24,25
 369 1693.68421053 369 1693.68421053 411.5 1725 c 0,0,1
EndSplineSet
EndChar

StartChar: asterisk
Encoding: 42 42 13
Width: 801
Flags: W
LayerCount: 2
Fore
SplineSet
863 1317 m 1,0,-1
 870 1273 l 1,1,-1
 627 1195 l 1,2,-1
 699 950 l 1,3,-1
 660 931 l 1,4,-1
 512 1139 l 1,5,-1
 300 995 l 1,6,-1
 268 1025 l 1,7,-1
 423 1230 l 1,8,-1
 219 1386 l 1,9,-1
 237 1427 l 1,10,-1
 481 1346 l 1,11,-1
 566 1588 l 1,12,-1
 611 1581 l 1,13,-1
 608 1325 l 1,14,-1
 863 1317 l 1,0,-1
EndSplineSet
EndChar

StartChar: plus
Encoding: 43 43 14
Width: 1162
Flags: W
LayerCount: 2
Fore
SplineSet
265 689 m 1,0,-1
 640 689 l 1,1,-1
 640 1078 l 1,2,-1
 767 1078 l 1,3,-1
 767 689 l 1,4,-1
 1137 689 l 1,5,-1
 1137 562 l 1,6,-1
 767 562 l 1,7,-1
 767 177 l 1,8,-1
 640 177 l 1,9,-1
 640 562 l 1,10,-1
 265 562 l 1,11,-1
 265 689 l 1,0,-1
EndSplineSet
EndChar

StartChar: comma
Encoding: 44 44 15
Width: 378
Flags: W
LayerCount: 2
Fore
SplineSet
7 -382 m 0,0,1
 -20 -382 -20 -382 -20 -350 c 256,2,3
 -20 -334.75 -20 -334.75 8 -317.375 c 128,-1,4
 36 -300 36 -300 70 -276.5 c 128,-1,5
 104 -253 104 -253 131 -223.5 c 0,6,7
 192 -156.851851852 192 -156.851851852 192 -75 c 0,8,9
 192 -38.652173913 192 -38.652173913 171.5 -0.326086956522 c 0,10,11
 133 71.652173913 133 71.652173913 133 107 c 0,12,13
 133 127.105263158 133 127.105263158 146.5 150.552631579 c 0,14,15
 190.113407821 226.302234637 190.113407821 226.302234637 257.5 188.5 c 0,16,17
 300.176100629 164.559748428 300.176100629 164.559748428 314.088050314 129.779874214 c 128,-1,18
 328 95 328 95 328 46 c 128,-1,19
 328 -3 328 -3 304.5 -70.5 c 128,-1,20
 281 -138 281 -138 239.5 -196 c 0,21,22
 158.388237632 -309.361017286 158.388237632 -309.361017286 17 -379 c 0,23,24
 11 -382 11 -382 7 -382 c 0,0,1
EndSplineSet
EndChar

StartChar: hyphen
Encoding: 45 45 16
Width: 926
Flags: W
LayerCount: 2
Fore
SplineSet
861 579 m 1,0,-1
 829 427 l 1,1,-1
 125 427 l 1,2,-1
 157 579 l 1,3,-1
 861 579 l 1,0,-1
EndSplineSet
EndChar

StartChar: period
Encoding: 46 46 17
Width: 357
Flags: W
LayerCount: 2
Fore
SplineSet
301.5 142 m 128,-1,1
 307 126 307 126 307 105.5 c 128,-1,2
 307 85 307 85 299 60.5 c 128,-1,3
 291 36 291 36 276.5 16.5 c 0,4,5
 244.153846154 -27 244.153846154 -27 209.576923077 -27 c 128,-1,6
 175 -27 175 -27 160 -15.5 c 128,-1,7
 145 -4 145 -4 136 12.5 c 0,8,9
 120 41.8333333333 120 41.8333333333 120 73.4166666667 c 128,-1,10
 120 105 120 105 129 125.5 c 128,-1,11
 138 146 138 146 152.5 162.5 c 0,12,13
 184.575757576 199 184.575757576 199 211.787878788 199 c 128,-1,14
 239 199 239 199 256 191.5 c 128,-1,15
 273 184 273 184 284.5 171 c 128,-1,0
 296 158 296 158 301.5 142 c 128,-1,1
EndSplineSet
EndChar

StartChar: slash
Encoding: 47 47 18
Width: 1018
Flags: W
LayerCount: 2
Fore
SplineSet
898 1452 m 1,0,-1
 1028 1452 l 1,1,-1
 309 -27 l 1,2,-1
 180 -27 l 1,3,-1
 898 1452 l 1,0,-1
EndSplineSet
EndChar

StartChar: zero
Encoding: 48 48 19
Width: 1049
Flags: W
LayerCount: 2
Fore
SplineSet
771.5 1379 m 0,0,1
 852 1379 852 1379 913.5 1341 c 128,-1,2
 975 1303 975 1303 1013.5 1237.5 c 0,3,4
 1086 1114.15584416 1086 1114.15584416 1086 899 c 0,5,6
 1086 703.126582278 1086 703.126582278 1003.5 488 c 0,7,8
 869.022337031 137.336726941 869.022337031 137.336726941 636 15 c 0,9,10
 556 -27 556 -27 473.5 -27 c 128,-1,11
 391 -27 391 -27 336 16 c 128,-1,12
 281 59 281 59 246 130 c 0,13,14
 178 267.942857143 178 267.942857143 178 484 c 0,15,16
 178 664.93902439 178 664.93902439 266 878.5 c 0,17,18
 352.490449361 1088.39755394 352.490449361 1088.39755394 484 1228 c 0,19,20
 626.246376812 1379 626.246376812 1379 771.5 1379 c 0,0,1
305 314 m 0,21,22
 305 32 305 32 502 32 c 0,23,24
 707.316455696 32 707.316455696 32 842 412 c 0,25,26
 951 719.535714286 951 719.535714286 951 1038 c 0,27,28
 951 1181.11764706 951 1181.11764706 930 1228.05882353 c 128,-1,29
 909 1275 909 1275 874 1297.5 c 128,-1,30
 839 1320 839 1320 777.5 1320 c 128,-1,31
 716 1320 716 1320 663 1290.5 c 128,-1,32
 610 1261 610 1261 565.5 1209.5 c 128,-1,33
 521 1158 521 1158 484.5 1089 c 128,-1,34
 448 1020 448 1020 419 941 c 128,-1,35
 390 862 390 862 368.5 777.5 c 128,-1,36
 347 693 347 693 333 610.5 c 0,37,38
 305 445.5 305 445.5 305 314 c 0,21,22
EndSplineSet
Substitution2: "'pnum' Proportional Numbers in Greek lookup 8 subtable" zero.pnum
Substitution2: "'pnum' Proportional Numbers in Latin lookup 7 subtable" zero.pnum
Substitution2: "'onum' Oldstyle Figures in Greek lookup 6 subtable" zero.oldstyle
Substitution2: "'onum' Oldstyle Figures in Latin lookup 5 subtable" zero.oldstyle
EndChar

StartChar: one
Encoding: 49 49 20
Width: 1049
Flags: W
LayerCount: 2
Fore
SplineSet
842 8 m 1,0,1
 842 0 842 0 833 0 c 2,2,-1
 231 0 l 2,3,4
 224 0 224 0 224 6 c 1,5,-1
 229 32 l 2,6,7
 231.171717172 40.6868686869 231.171717172 40.6868686869 297.585858586 43.3434343434 c 128,-1,8
 364 46 364 46 391.5 48.5 c 0,9,10
 446.188679245 53.4716981132 446.188679245 53.4716981132 465.594339623 62.7358490566 c 128,-1,11
 485 72 485 72 491.5 90 c 128,-1,12
 498 108 498 108 504 137 c 2,13,-1
 725 1202 l 2,14,15
 726 1204 726 1204 700.5 1186 c 128,-1,16
 675 1168 675 1168 632.5 1141 c 0,17,18
 517.651598677 1068.03748622 517.651598677 1068.03748622 430 1030 c 1,19,-1
 423 1029 l 2,20,21
 417.333333333 1029 417.333333333 1029 413.166666667 1041.5 c 128,-1,22
 409 1054 409 1054 409 1055.5 c 128,-1,23
 409 1057 409 1057 432.5 1071 c 128,-1,24
 456 1085 456 1085 507 1120 c 128,-1,25
 558 1155 558 1155 614 1197 c 0,26,27
 743.56097561 1294.17073171 743.56097561 1294.17073171 832 1379 c 1,28,-1
 888 1379 l 2,29,30
 904 1379 904 1379 904 1368 c 256,31,32
 904 1363 904 1363 903 1360 c 2,33,-1
 654 161 l 2,34,35
 644 111 644 111 644 90 c 0,36,37
 644 40 644 40 841 40 c 0,38,39
 847 40 847 40 847 35 c 2,40,-1
 842 8 l 1,0,1
EndSplineSet
Substitution2: "'pnum' Proportional Numbers in Greek lookup 8 subtable" one.pnum
Substitution2: "'pnum' Proportional Numbers in Latin lookup 7 subtable" one.pnum
Substitution2: "'onum' Oldstyle Figures in Greek lookup 6 subtable" one.oldstyle
Substitution2: "'onum' Oldstyle Figures in Latin lookup 5 subtable" one.oldstyle
EndChar

StartChar: two
Encoding: 50 50 21
Width: 1049
Flags: W
LayerCount: 2
Fore
SplineSet
-14 0 m 2,0,1
 -18 0 -18 0 -18 14.5 c 0,2,3
 -18 63.9130434783 -18 63.9130434783 198 240 c 0,4,5
 290 315 290 315 383 390.5 c 128,-1,6
 476 466 476 466 562.5 541.5 c 128,-1,7
 649 617 649 617 716 693.5 c 0,8,9
 864 862.485074627 864 862.485074627 864 1003 c 0,10,11
 864 1106.5 864 1106.5 801 1180 c 0,12,13
 735 1257 735 1257 638 1257 c 0,14,15
 560.793103448 1257 560.793103448 1257 473.5 1215.5 c 0,16,17
 355.611285266 1159.45454545 355.611285266 1159.45454545 285 1039 c 0,18,19
 268 1010 268 1010 260 990.5 c 128,-1,20
 252 971 252 971 246 967.5 c 0,21,22
 231.428571429 959 231.428571429 959 215.714285714 959 c 128,-1,23
 200 959 200 959 200 966 c 1,24,25
 205.054794521 991.273972603 205.054794521 991.273972603 240.02739726 1055.1369863 c 0,26,27
 310.894878706 1184.54716981 310.894878706 1184.54716981 363.947439353 1229.27358491 c 128,-1,28
 417 1274 417 1274 462.5 1302 c 128,-1,29
 508 1330 508 1330 551.5 1347 c 0,30,31
 633.382352941 1379 633.382352941 1379 717.191176471 1379 c 128,-1,32
 801 1379 801 1379 861.5 1356.5 c 128,-1,33
 922 1334 922 1334 963.5 1293.5 c 0,34,35
 1049 1210.06024096 1049 1210.06024096 1049 1073 c 0,36,37
 1049 906.546875 1049 906.546875 916 759 c 0,38,39
 820.427836819 652.974631471 820.427836819 652.974631471 554 463 c 1,40,41
 455 391 455 391 335 289 c 0,42,43
 164.206349206 143.825396825 164.206349206 143.825396825 162 135 c 1,44,-1
 725 135 l 2,45,46
 797.975609756 135 797.975609756 135 836.5 175.5 c 0,47,48
 862.441964286 202.772321429 862.441964286 202.772321429 908 303 c 1,49,-1
 946 303 l 1,50,-1
 847 33 l 2,51,52
 837.75 9.875 837.75 9.875 818 0 c 1,53,-1
 -14 0 l 2,0,1
EndSplineSet
Substitution2: "'pnum' Proportional Numbers in Greek lookup 8 subtable" two.pnum
Substitution2: "'pnum' Proportional Numbers in Latin lookup 7 subtable" two.pnum
Substitution2: "'onum' Oldstyle Figures in Greek lookup 6 subtable" two.oldstyle
Substitution2: "'onum' Oldstyle Figures in Latin lookup 5 subtable" two.oldstyle
EndChar

StartChar: three
Encoding: 51 51 22
Width: 1049
Flags: W
LayerCount: 2
Fore
SplineSet
531 671 m 0,0,1
 517 671 517 671 517 689 c 0,2,3
 517 706.2 517 706.2 580 744 c 1,4,5
 720.8 840.8 720.8 840.8 774.9 894.9 c 0,6,7
 890 1010 890 1010 890 1114 c 0,8,9
 890 1177.8 890 1177.8 840.5 1224 c 0,10,11
 792.285714286 1269 792.285714286 1269 724.142857143 1269 c 128,-1,12
 656 1269 656 1269 602 1245 c 128,-1,13
 548 1221 548 1221 506 1187.5 c 0,14,15
 451.204513399 1143.79407616 451.204513399 1143.79407616 388 1062 c 0,16,17
 387 1061 387 1061 381 1061 c 128,-1,18
 375 1061 375 1061 362.5 1066.5 c 128,-1,19
 350 1072 350 1072 351 1077 c 1,20,21
 405.384404925 1183.59343365 405.384404925 1183.59343365 532 1277.5 c 0,22,23
 668.853932584 1379 668.853932584 1379 791.426966292 1379 c 128,-1,24
 914 1379 914 1379 982 1329.5 c 128,-1,25
 1050 1280 1050 1280 1050 1193 c 0,26,27
 1050 1047.37037037 1050 1047.37037037 880 912 c 0,28,29
 826 869 826 869 758 833 c 1,30,31
 912.4 833 912.4 833 986 741 c 0,32,33
 1044 668.5 1044 668.5 1044 575.75 c 128,-1,34
 1044 483 1044 483 1015 408 c 128,-1,35
 986 333 986 333 937 267.5 c 128,-1,36
 888 202 888 202 824.5 147.5 c 128,-1,37
 761 93 761 93 692 54.5 c 0,38,39
 545.935064935 -27 545.935064935 -27 423 -27 c 128,-1,40
 299.909090909 -27 299.909090909 -27 239.454545455 -8 c 128,-1,41
 179 11 179 11 152 28.5 c 0,42,43
 92 67.3888888889 92 67.3888888889 92 131 c 0,44,45
 92 163 92 163 119 180.5 c 128,-1,46
 146 198 146 198 172 198 c 128,-1,47
 198 198 198 198 216.5 186 c 128,-1,48
 235 174 235 174 255 156 c 128,-1,49
 275 138 275 138 297.5 116.5 c 128,-1,50
 320 95 320 95 347 77 c 0,51,52
 410 35 410 35 472.5 35 c 128,-1,53
 535 35 535 35 586 56.5 c 128,-1,54
 637 78 637 78 680.5 115 c 128,-1,55
 724 152 724 152 759.5 200.5 c 128,-1,56
 795 249 795 249 820.5 302.5 c 0,57,58
 873 412.647058824 873 412.647058824 873 493.323529412 c 128,-1,59
 873 574 873 574 857 613 c 128,-1,60
 841 652 841 652 814 677 c 0,61,62
 762.16 725 762.16 725 681 725 c 0,63,64
 638.315789474 725 638.315789474 725 595.157894737 704.5 c 128,-1,65
 552 684 552 684 542.5 677.5 c 128,-1,66
 533 671 533 671 531 671 c 0,0,1
EndSplineSet
Substitution2: "'pnum' Proportional Numbers in Greek lookup 8 subtable" three.pnum
Substitution2: "'pnum' Proportional Numbers in Latin lookup 7 subtable" three.pnum
Substitution2: "'onum' Oldstyle Figures in Greek lookup 6 subtable" three.oldstyle
Substitution2: "'onum' Oldstyle Figures in Latin lookup 5 subtable" three.oldstyle
EndChar

StartChar: four
Encoding: 52 52 23
Width: 1049
Flags: W
LayerCount: 2
Fore
SplineSet
605 -22 m 1,0,1
 688 369.285714286 688 369.285714286 688 381.142857143 c 128,-1,2
 688 393 688 393 680.5 394.5 c 128,-1,3
 673 396 673 396 651 396 c 2,4,-1
 154 396 l 2,5,6
 133 396 133 396 133 406.5 c 0,7,8
 133 426.5 133 426.5 143 439 c 2,9,-1
 957 1356 l 2,10,11
 977.294117647 1379 977.294117647 1379 996.147058824 1379 c 128,-1,12
 1015 1379 1015 1379 1025.5 1377 c 128,-1,13
 1036 1375 1036 1375 1036 1361 c 1,14,15
 1034 1352 1034 1352 1029.5 1328.5 c 128,-1,16
 1025 1305 1025 1305 1014.5 1254.5 c 128,-1,17
 1004 1204 1004 1204 985 1112 c 0,18,19
 959.214285714 987.142857143 959.214285714 987.142857143 910.107142857 753.071428571 c 128,-1,20
 861 519 861 519 861 512.5 c 128,-1,21
 861 506 861 506 878 506 c 2,22,-1
 1045 506 l 2,23,24
 1073 506 1073 506 1073 493 c 1,25,-1
 1058 420 l 1,26,27
 1052 396 1052 396 1033 396 c 2,28,-1
 851 396 l 2,29,30
 840 396 840 396 837.5 393.5 c 128,-1,31
 835 391 835 391 832 377 c 2,32,-1
 750 -15 l 2,33,34
 745.6 -37 745.6 -37 729 -37 c 2,35,-1
 621 -37 l 2,36,37
 605 -37 605 -37 605 -22 c 1,0,1
280 524 m 128,-1,39
 274 517 274 517 274 511.5 c 128,-1,40
 274 506 274 506 304 506 c 2,41,-1
 692 506 l 2,42,43
 710.5 506 710.5 506 718 526 c 1,44,45
 747 666 747 666 767 763 c 128,-1,46
 787 860 787 860 800 923 c 128,-1,47
 813 986 813 986 820.5 1021 c 128,-1,48
 828 1056 828 1056 831.5 1073 c 0,49,50
 836 1094.85714286 836 1094.85714286 836 1100 c 0,51,52
 836 1119 836 1119 817 1119 c 0,53,54
 808.5 1119 808.5 1119 784 1098 c 1,55,-1
 289 535 l 2,56,38
 286 531 286 531 280 524 c 128,-1,39
EndSplineSet
Substitution2: "'pnum' Proportional Numbers in Greek lookup 8 subtable" four.pnum
Substitution2: "'pnum' Proportional Numbers in Latin lookup 7 subtable" four.pnum
Substitution2: "'onum' Oldstyle Figures in Greek lookup 6 subtable" four.oldstyle
Substitution2: "'onum' Oldstyle Figures in Latin lookup 5 subtable" four.oldstyle
EndChar

StartChar: five
Encoding: 53 53 24
Width: 1049
Flags: W
LayerCount: 2
Fore
SplineSet
393.5 693.5 m 128,-1,1
 362 679 362 679 335.96 663.5 c 128,-1,2
 309.92 648 309.92 648 302.46 648 c 128,-1,3
 295 648 295 648 295 655 c 128,-1,4
 295 662 295 662 467 1338 c 1,5,-1
 976 1338 l 2,6,7
 1022.66666667 1338 1022.66666667 1338 1039 1362.5 c 2,8,-1
 1050 1379 l 1,9,-1
 1091 1379 l 1,10,-1
 1032 1210 l 1,11,-1
 507 1210 l 2,12,13
 486.4 1210 486.4 1210 485 1203 c 2,14,-1
 391 831 l 2,15,16
 390 826 390 826 390 820 c 1,17,18
 423.326478149 848.565552699 423.326478149 848.565552699 504.663239075 861.78277635 c 128,-1,19
 586 875 586 875 636.5 875 c 128,-1,20
 687 875 687 875 749.5 858 c 128,-1,21
 812 841 812 841 863.5 798 c 0,22,23
 981 699.893203883 981 699.893203883 981 493 c 0,24,25
 981 340.479166667 981 340.479166667 875 213.5 c 0,26,27
 781.962723507 102.049095868 781.962723507 102.049095868 632.5 35.5 c 0,28,29
 492.131147541 -27 492.131147541 -27 365 -27 c 0,30,31
 233.928571429 -27 233.928571429 -27 150 20 c 0,32,33
 94 51.36 94 51.36 94 98 c 1,34,35
 102 133 102 133 129.5 154.5 c 128,-1,36
 157 176 157 176 187.5 176 c 128,-1,37
 218 176 218 176 246 152.5 c 128,-1,38
 274 129 274 129 302 100.5 c 128,-1,39
 330 72 330 72 359.5 48.5 c 128,-1,40
 389 25 389 25 439.5 25 c 128,-1,41
 490 25 490 25 545.5 47.5 c 128,-1,42
 601 70 601 70 645.5 108 c 128,-1,43
 690 146 690 146 723.5 194 c 128,-1,44
 757 242 757 242 779 293 c 0,45,46
 823 395 823 395 823 466.5 c 128,-1,47
 823 538 823 538 808.5 577.5 c 128,-1,48
 794 617 794 617 770 644.5 c 128,-1,49
 746 672 746 672 716 689 c 128,-1,50
 686 706 686 706 655 715.5 c 0,51,52
 601.157894737 732 601.157894737 732 551.578947368 732 c 128,-1,53
 502 732 502 732 463.5 720 c 128,-1,0
 425 708 425 708 393.5 693.5 c 128,-1,1
EndSplineSet
Substitution2: "'pnum' Proportional Numbers in Greek lookup 8 subtable" five.pnum
Substitution2: "'pnum' Proportional Numbers in Latin lookup 7 subtable" five.pnum
Substitution2: "'onum' Oldstyle Figures in Greek lookup 6 subtable" five.oldstyle
Substitution2: "'onum' Oldstyle Figures in Latin lookup 5 subtable" five.oldstyle
EndChar

StartChar: six
Encoding: 54 54 25
Width: 1049
Flags: W
LayerCount: 2
Fore
SplineSet
1173 1377 m 0,0,1
 1189 1377 1189 1377 1189 1366.5 c 128,-1,2
 1189 1356 1189 1356 1165 1340.5 c 128,-1,3
 1141 1325 1141 1325 1107.5 1308.5 c 128,-1,4
 1074 1292 1074 1292 1039.5 1276 c 128,-1,5
 1005 1260 1005 1260 981 1245.5 c 128,-1,6
 957 1231 957 1231 916.5 1205.5 c 128,-1,7
 876 1180 876 1180 831 1148.5 c 128,-1,8
 786 1117 786 1117 740 1081.5 c 128,-1,9
 694 1046 694 1046 655.5 1009 c 0,10,11
 569.354027707 926.210364289 569.354027707 926.210364289 555 867 c 1,12,13
 563 867 563 867 574.5 872 c 128,-1,14
 586 877 586 877 602 883 c 0,15,16
 644.666666667 899 644.666666667 899 709.833333333 899 c 128,-1,17
 775 899 775 899 842.5 871.5 c 128,-1,18
 910 844 910 844 957.5 795.5 c 0,19,20
 1056 694.926315789 1056 694.926315789 1056 538 c 0,21,22
 1056 393.289473684 1056 393.289473684 975 259 c 0,23,24
 854.815580737 59.7468838527 854.815580737 59.7468838527 639 -7.5 c 0,25,26
 570 -29 570 -29 491 -29 c 128,-1,27
 412 -29 412 -29 348.5 3 c 128,-1,28
 285 35 285 35 243 89.5 c 0,29,30
 160 197.202380952 160 197.202380952 160 343.601190476 c 128,-1,31
 160 490 160 490 192.5 593 c 128,-1,32
 225 696 225 696 282.5 784 c 128,-1,33
 340 872 340 872 420.5 946.5 c 128,-1,34
 501 1021 501 1021 596.5 1086 c 0,35,36
 748.477466199 1189.44016024 748.477466199 1189.44016024 1020 1324 c 0,37,38
 1126 1377 1126 1377 1173 1377 c 0,0,1
427 47 m 128,-1,40
 467 24 467 24 528.5 24 c 128,-1,41
 590 24 590 24 641 50 c 128,-1,42
 692 76 692 76 732 120 c 128,-1,43
 772 164 772 164 801 220.5 c 128,-1,44
 830 277 830 277 849.5 338 c 0,45,46
 887 455.307692308 887 455.307692308 887 542.653846154 c 128,-1,47
 887 630 887 630 875 678.5 c 128,-1,48
 863 727 863 727 835.5 763 c 0,49,50
 776.680555556 840 776.680555556 840 654 840 c 0,51,52
 551.373493976 840 551.373493976 840 470.5 750.5 c 0,53,54
 360.6352911 628.916388818 360.6352911 628.916388818 328.5 417.5 c 0,55,56
 319 355 319 355 319 300 c 128,-1,57
 319 245 319 245 329 196 c 128,-1,58
 339 147 339 147 363 108.5 c 128,-1,39
 387 70 387 70 427 47 c 128,-1,40
EndSplineSet
Substitution2: "'pnum' Proportional Numbers in Greek lookup 8 subtable" six.pnum
Substitution2: "'pnum' Proportional Numbers in Latin lookup 7 subtable" six.pnum
Substitution2: "'onum' Oldstyle Figures in Greek lookup 6 subtable" six.oldstyle
Substitution2: "'onum' Oldstyle Figures in Latin lookup 5 subtable" six.oldstyle
EndChar

StartChar: seven
Encoding: 55 55 26
Width: 1049
Flags: W
LayerCount: 2
Fore
SplineSet
1097 1338 m 2,0,1
 1119 1338 1119 1338 1119 1319 c 0,2,3
 1119 1296.2 1119 1296.2 1086 1217 c 2,4,-1
 558 -27 l 1,5,-1
 446 -27 l 1,6,-1
 451 -4 l 1,7,-1
 937 1161 l 1,8,9
 937 1176 937 1176 922 1176 c 2,10,-1
 347 1176 l 2,11,12
 327 1176 327 1176 306.5 1160 c 128,-1,13
 286 1144 286 1144 276 1126 c 2,14,-1
 190 972 l 1,15,16
 181.818181818 954 181.818181818 954 169.409090909 954 c 0,17,18
 147 954 147 954 147 964 c 1,19,20
 148 969 148 969 152 979 c 128,-1,21
 156 989 156 989 164 1010 c 128,-1,22
 172 1031 172 1031 187 1070 c 128,-1,23
 202 1109 202 1109 224.5 1169 c 2,24,-1
 280 1317 l 1,25,26
 292.6 1338 292.6 1338 301 1338 c 2,27,-1
 1097 1338 l 2,0,1
EndSplineSet
Substitution2: "'pnum' Proportional Numbers in Greek lookup 8 subtable" seven.pnum
Substitution2: "'pnum' Proportional Numbers in Latin lookup 7 subtable" seven.pnum
Substitution2: "'onum' Oldstyle Figures in Greek lookup 6 subtable" seven.oldstyle
Substitution2: "'onum' Oldstyle Figures in Latin lookup 5 subtable" seven.oldstyle
EndChar

StartChar: eight
Encoding: 56 56 27
Width: 1049
Flags: W
LayerCount: 2
Fore
SplineSet
922.5 513 m 128,-1,1
 939 468 939 468 940.5 399 c 128,-1,2
 942 330 942 330 906.5 250.5 c 128,-1,3
 871 171 871 171 811.5 109.5 c 0,4,5
 680.406504065 -26 680.406504065 -26 511 -26 c 0,6,7
 300.095238095 -26 300.095238095 -26 230 158 c 0,8,9
 206 221 206 221 206 281.5 c 128,-1,10
 206 342 206 342 219 376.5 c 128,-1,11
 232 411 232 411 253 443 c 0,12,13
 309.50733945 529.106422018 309.50733945 529.106422018 402.5 589 c 0,14,15
 486.554794521 643.136986301 486.554794521 643.136986301 508.77739726 660.068493151 c 128,-1,16
 531 677 531 677 531 683.5 c 128,-1,17
 531 690 531 690 516 708 c 128,-1,18
 501 726 501 726 476 759 c 128,-1,19
 451 792 451 792 432 826.5 c 0,20,21
 390 902.763157895 390 902.763157895 390 984.381578947 c 128,-1,22
 390 1066 390 1066 422.5 1138.5 c 128,-1,23
 455 1211 455 1211 510 1264.5 c 0,24,25
 627.710280374 1379 627.710280374 1379 792 1379 c 0,26,27
 908.375 1379 908.375 1379 987 1311 c 0,28,29
 1066 1242.67567568 1066 1242.67567568 1066 1133 c 0,30,31
 1066 1022.5 1066 1022.5 954 893 c 0,32,33
 853.649122807 776.969298246 853.649122807 776.969298246 757 739 c 1,34,35
 845.555555556 650.444444444 845.555555556 650.444444444 875.777777778 604.222222222 c 128,-1,0
 906 558 906 558 922.5 513 c 128,-1,1
782 230.5 m 128,-1,37
 797 273 797 273 797 308.5 c 128,-1,38
 797 344 797 344 787 376 c 128,-1,39
 777 408 777 408 760 444 c 128,-1,40
 743 480 743 480 720.5 516 c 128,-1,41
 698 552 698 552 672 581 c 0,42,43
 612.827586207 647 612.827586207 647 566 647 c 0,44,45
 545 647 545 647 525 627 c 128,-1,46
 505 607 505 607 484.5 589 c 128,-1,47
 464 571 464 571 432.5 537 c 128,-1,48
 401 503 401 503 377 459.5 c 0,49,50
 324 363.4375 324 363.4375 324 232 c 0,51,52
 324 85.8082191781 324 85.8082191781 437.5 34.5 c 0,53,54
 474 18 474 18 507.5 18 c 128,-1,55
 541 18 541 18 569 26.5 c 128,-1,56
 597 35 597 35 628 52 c 128,-1,57
 659 69 659 69 689 94.5 c 128,-1,58
 719 120 719 120 743 154 c 128,-1,36
 767 188 767 188 782 230.5 c 128,-1,37
858.5 1322 m 0,59,60
 826 1337 826 1337 777.5 1337 c 128,-1,61
 729 1337 729 1337 683 1315.5 c 128,-1,62
 637 1294 637 1294 603 1258 c 0,63,64
 529 1179.64705882 529 1179.64705882 529 1077 c 0,65,66
 529 972.152542373 529 972.152542373 634.5 859.5 c 0,67,68
 699.412127441 790.18705036 699.412127441 790.18705036 710.70606372 786.59352518 c 128,-1,69
 722 783 722 783 734.5 783 c 0,70,71
 754 783 754 783 787.5 811 c 128,-1,72
 821 839 821 839 852 878.5 c 128,-1,73
 883 918 883 918 905 962.5 c 0,74,75
 952 1057.56818182 952 1057.56818182 952 1146 c 0,76,77
 952 1278.84615385 952 1278.84615385 858.5 1322 c 0,59,60
EndSplineSet
Substitution2: "'pnum' Proportional Numbers in Greek lookup 8 subtable" eight.pnum
Substitution2: "'pnum' Proportional Numbers in Latin lookup 7 subtable" eight.pnum
Substitution2: "'onum' Oldstyle Figures in Greek lookup 6 subtable" eight.oldstyle
Substitution2: "'onum' Oldstyle Figures in Latin lookup 5 subtable" eight.oldstyle
EndChar

StartChar: nine
Encoding: 57 57 28
Width: 1049
Flags: W
LayerCount: 2
Fore
SplineSet
46 -29 m 0,0,1
 39 -29 39 -29 39 -19.5 c 0,2,3
 39 -0.375 39 -0.375 73 12.3125 c 128,-1,4
 107 25 107 25 169.5 52.5 c 128,-1,5
 232 80 232 80 302 117 c 128,-1,6
 372 154 372 154 443 198 c 128,-1,7
 514 242 514 242 574 290 c 0,8,9
 708.166666667 397.333333333 708.166666667 397.333333333 732 489 c 1,10,11
 732 493 732 493 724 493 c 1,12,13
 669 480 669 480 616.5 467.5 c 128,-1,14
 564 455 564 455 496 455 c 128,-1,15
 428 455 428 455 368.5 483.5 c 128,-1,16
 309 512 309 512 269 560 c 0,17,18
 190 654.8 190 654.8 190 803 c 256,19,20
 190 938.685714286 190 938.685714286 264 1074 c 0,21,22
 335.762427372 1205.22272434 335.762427372 1205.22272434 457 1290.5 c 0,23,24
 582.819277108 1379 582.819277108 1379 723 1379 c 0,25,26
 904.314814815 1379 904.314814815 1379 1008.5 1263 c 0,27,28
 1107 1153.32989691 1107 1153.32989691 1107 979 c 0,29,30
 1107 696.614285714 1107 696.614285714 874 427 c 0,31,32
 663.919880966 183.907290832 663.919880966 183.907290832 376.5 54 c 0,33,34
 192.8625 -29 192.8625 -29 46 -29 c 0,0,1
933 1058 m 256,35,36
 933 1326 933 1326 722 1326 c 0,37,38
 560.666666667 1326 560.666666667 1326 461 1170 c 0,39,40
 367 1022.86956522 367 1022.86956522 367 793 c 0,41,42
 367 604.880952381 367 604.880952381 491 535.5 c 0,43,44
 533 512 533 512 598 512 c 128,-1,45
 663 512 663 512 717.5 538 c 128,-1,46
 772 564 772 564 810.5 607 c 128,-1,47
 849 650 849 650 873 706.5 c 128,-1,48
 897 763 897 763 910 823.5 c 0,49,50
 933 930.538461538 933 930.538461538 933 1058 c 256,35,36
EndSplineSet
Substitution2: "'pnum' Proportional Numbers in Greek lookup 8 subtable" nine.pnum
Substitution2: "'pnum' Proportional Numbers in Latin lookup 7 subtable" nine.pnum
Substitution2: "'onum' Oldstyle Figures in Greek lookup 6 subtable" nine.oldstyle
Substitution2: "'onum' Oldstyle Figures in Latin lookup 5 subtable" nine.oldstyle
EndChar

StartChar: colon
Encoding: 58 58 29
Width: 610
Flags: W
LayerCount: 2
Fore
SplineSet
361.5 142 m 128,-1,1
 367 126 367 126 367 105.5 c 128,-1,2
 367 85 367 85 359 60.5 c 128,-1,3
 351 36 351 36 336.5 16.5 c 0,4,5
 304.153846154 -27 304.153846154 -27 269.576923077 -27 c 128,-1,6
 235 -27 235 -27 220 -15.5 c 128,-1,7
 205 -4 205 -4 196 12.5 c 0,8,9
 180 41.8333333333 180 41.8333333333 180 73.4166666667 c 128,-1,10
 180 105 180 105 189 125.5 c 128,-1,11
 198 146 198 146 212.5 162.5 c 0,12,13
 244.575757576 199 244.575757576 199 271.787878788 199 c 128,-1,14
 299 199 299 199 316 191.5 c 128,-1,15
 333 184 333 184 344.5 171 c 128,-1,0
 356 158 356 158 361.5 142 c 128,-1,1
519.5 872 m 128,-1,17
 525 856 525 856 525 835.5 c 128,-1,18
 525 815 525 815 517 790.5 c 128,-1,19
 509 766 509 766 494.5 746.5 c 0,20,21
 462.153846154 703 462.153846154 703 427.576923077 703 c 128,-1,22
 393 703 393 703 378 714.5 c 128,-1,23
 363 726 363 726 354 742.5 c 0,24,25
 338 771.833333333 338 771.833333333 338 803.416666667 c 128,-1,26
 338 835 338 835 347 855.5 c 128,-1,27
 356 876 356 876 370.5 892.5 c 0,28,29
 402.575757576 929 402.575757576 929 429.787878788 929 c 128,-1,30
 457 929 457 929 474 921.5 c 128,-1,31
 491 914 491 914 502.5 901 c 128,-1,16
 514 888 514 888 519.5 872 c 128,-1,17
EndSplineSet
EndChar

StartChar: semicolon
Encoding: 59 59 30
Width: 593
Flags: W
LayerCount: 2
Fore
SplineSet
502.5 872 m 128,-1,1
 508 856 508 856 508 835.5 c 128,-1,2
 508 815 508 815 500 790.5 c 128,-1,3
 492 766 492 766 477.5 746.5 c 0,4,5
 445.153846154 703 445.153846154 703 410.576923077 703 c 128,-1,6
 376 703 376 703 361 714.5 c 128,-1,7
 346 726 346 726 337 742.5 c 0,8,9
 321 771.833333333 321 771.833333333 321 803.416666667 c 128,-1,10
 321 835 321 835 330 855.5 c 128,-1,11
 339 876 339 876 353.5 892.5 c 0,12,13
 385.575757576 929 385.575757576 929 412.787878788 929 c 128,-1,14
 440 929 440 929 457 921.5 c 128,-1,15
 474 914 474 914 485.5 901 c 128,-1,0
 497 888 497 888 502.5 872 c 128,-1,1
47 -382 m 0,16,17
 20 -382 20 -382 20 -350 c 256,18,19
 20 -334.75 20 -334.75 48 -317.375 c 128,-1,20
 76 -300 76 -300 110 -276.5 c 128,-1,21
 144 -253 144 -253 171 -223.5 c 0,22,23
 232 -156.851851852 232 -156.851851852 232 -75 c 0,24,25
 232 -38.652173913 232 -38.652173913 211.5 -0.326086956522 c 0,26,27
 173 71.652173913 173 71.652173913 173 107 c 0,28,29
 173 127.105263158 173 127.105263158 186.5 150.552631579 c 0,30,31
 214.96969697 200 214.96969697 200 245.984848485 200 c 128,-1,32
 277 200 277 200 297.5 188.5 c 128,-1,33
 318 177 318 177 334 158.5 c 0,34,35
 368 119.1875 368 119.1875 368 58.09375 c 128,-1,36
 368 -3 368 -3 344.5 -70.5 c 128,-1,37
 321 -138 321 -138 279.5 -196 c 0,38,39
 198.388237632 -309.361017286 198.388237632 -309.361017286 57 -379 c 0,40,41
 51 -382 51 -382 47 -382 c 0,16,17
EndSplineSet
EndChar

StartChar: less
Encoding: 60 60 31
Width: 983
Flags: W
LayerCount: 2
Fore
SplineSet
445 626 m 1,0,-1
 953 323 l 1,1,-1
 953 169 l 1,2,-1
 250 587 l 1,3,-1
 250 659 l 1,4,-1
 953 1070 l 1,5,-1
 953 921 l 1,6,-1
 445 626 l 1,0,-1
EndSplineSet
EndChar

StartChar: equal
Encoding: 61 61 32
Width: 1160
Flags: W
LayerCount: 2
Fore
SplineSet
1135 859 m 1,0,-1
 1135 732 l 1,1,-1
 265 732 l 1,2,-1
 265 859 l 1,3,-1
 1135 859 l 1,0,-1
1135 519 m 1,4,-1
 1135 392 l 1,5,-1
 265 392 l 1,6,-1
 265 519 l 1,7,-1
 1135 519 l 1,4,-1
EndSplineSet
EndChar

StartChar: greater
Encoding: 62 62 33
Width: 980
Flags: W
LayerCount: 2
Fore
SplineSet
250 921 m 1,0,-1
 250 1070 l 1,1,-1
 950 656 l 1,2,-1
 950 585 l 1,3,-1
 250 169 l 1,4,-1
 250 323 l 1,5,-1
 755 626 l 1,6,-1
 250 921 l 1,0,-1
EndSplineSet
EndChar

StartChar: question
Encoding: 63 63 34
Width: 867
Flags: W
LayerCount: 2
Fore
SplineSet
431 1233 m 0,0,1
 388 1233 388 1233 388 1306 c 0,2,3
 388 1407.28571429 388 1407.28571429 500.5 1418 c 0,4,5
 532 1421 532 1421 582.5 1421 c 128,-1,6
 633 1421 633 1421 689 1394 c 128,-1,7
 745 1367 745 1367 784.5 1321 c 0,8,9
 867 1224.92405063 867 1224.92405063 867 1104.96202532 c 128,-1,10
 867 985 867 985 838.5 919.5 c 128,-1,11
 810 854 810 854 760 807 c 128,-1,12
 710 760 710 760 643 720.5 c 128,-1,13
 576 681 576 681 499 629 c 0,14,15
 429.732824427 582.142792995 429.732824427 582.142792995 392.5 413.5 c 0,16,17
 384 375 384 375 374 348 c 1,18,-1
 335 348 l 1,19,20
 335 621.673076923 335 621.673076923 414 726.5 c 0,21,22
 475.998223801 808.76687389 475.998223801 808.76687389 583 868 c 0,23,24
 718.608477842 943.068978805 718.608477842 943.068978805 754.804238921 991.534489403 c 128,-1,25
 791 1040 791 1040 791 1093 c 128,-1,26
 791 1146 791 1146 771 1178 c 128,-1,27
 751 1210 751 1210 720 1231 c 0,28,29
 659.476190476 1272 659.476190476 1272 578 1272 c 0,30,31
 548.8 1272 548.8 1272 516.4 1258.5 c 0,32,33
 455.2 1233 455.2 1233 431 1233 c 0,0,1
397 106 m 1,34,35
 383.244541485 39.9737991266 383.244541485 39.9737991266 367.622270742 17.9868995633 c 0,36,37
 335.657894737 -27 335.657894737 -27 274 -27 c 0,38,39
 224.842105263 -27 224.842105263 -27 213 48 c 0,40,41
 210 67 210 67 210 86 c 128,-1,42
 210 105 210 105 220 125.5 c 128,-1,43
 230 146 230 146 245.5 162 c 0,44,45
 279.40625 197 279.40625 197 321.703125 197 c 0,46,47
 397 197 397 197 397 106 c 1,34,35
EndSplineSet
EndChar

StartChar: at
Encoding: 64 64 35
Width: 1876
Flags: W
LayerCount: 2
Fore
SplineSet
1122 276.5 m 128,-1,1
 1126 293 1126 293 1127 310 c 128,-1,2
 1128 327 1128 327 1120 327 c 128,-1,3
 1112 327 1112 327 1098 316.5 c 128,-1,4
 1084 306 1084 306 1058.5 283 c 128,-1,5
 1033 260 1033 260 1001 232 c 128,-1,6
 969 204 969 204 933.5 174 c 128,-1,7
 898 144 898 144 864.5 119.5 c 0,8,9
 787.244897959 63 787.244897959 63 751.12244898 63 c 128,-1,10
 715 63 715 63 692.5 93 c 128,-1,11
 670 123 670 123 658 164.5 c 0,12,13
 638 233.666666667 638 233.666666667 638 299.333333333 c 0,14,15
 638 506.653061224 638 506.653061224 796.5 697.5 c 0,16,17
 946.545257687 878.166738848 946.545257687 878.166738848 1167 953 c 0,18,19
 1276 990 1276 990 1389 990 c 0,20,21
 1406 990 1406 990 1406 962 c 1,22,-1
 1255 270 l 2,23,24
 1254 262 1254 262 1253 254.5 c 0,25,26
 1251 239.5 1251 239.5 1251 229 c 0,27,28
 1251 169 1251 169 1285 136.5 c 128,-1,29
 1319 104 1319 104 1375 104 c 128,-1,30
 1431 104 1431 104 1484.5 131 c 128,-1,31
 1538 158 1538 158 1585 204 c 128,-1,32
 1632 250 1632 250 1670.5 311 c 128,-1,33
 1709 372 1709 372 1736.5 439 c 0,34,35
 1794 579.090909091 1794 579.090909091 1794 708.545454545 c 128,-1,36
 1794 838 1794 838 1752 953 c 128,-1,37
 1710 1068 1710 1068 1625.5 1157 c 0,38,39
 1441.74101765 1350.54496366 1441.74101765 1350.54496366 1121 1362 c 1,40,41
 887.15720524 1356.10480349 887.15720524 1356.10480349 692 1226 c 0,42,43
 505.50255102 1101.66836735 505.50255102 1101.66836735 395.5 894 c 0,44,45
 285 685.392523364 285 685.392523364 285 446 c 0,46,47
 285 267 285 267 348.5 117 c 128,-1,48
 412 -33 412 -33 524 -141 c 128,-1,49
 636 -249 636 -249 789 -309.5 c 128,-1,50
 942 -370 942 -370 1100.5 -370 c 128,-1,51
 1259 -370 1259 -370 1375.5 -331.5 c 128,-1,52
 1492 -293 1492 -293 1586.5 -222 c 0,53,54
 1772.2337774 -82.4539873534 1772.2337774 -82.4539873534 1874 173 c 1,55,-1
 1951 173 l 1,56,57
 1789.81892333 -244.174551387 1789.81892333 -244.174551387 1403 -387 c 0,58,59
 1273 -435 1273 -435 1121 -445 c 1,60,61
 864.189189189 -445 864.189189189 -445 654 -329.5 c 0,62,63
 448.514159292 -216.584513274 448.514159292 -216.584513274 331 -16 c 0,64,65
 210 190.534482759 210 190.534482759 210 446 c 256,66,67
 210 702.974137931 210 702.974137931 331 933.5 c 0,68,69
 450.77613473 1161.69418772 450.77613473 1161.69418772 654 1295.5 c 0,70,71
 868.909774436 1437 868.909774436 1437 1121 1437 c 0,72,73
 1469.86363636 1437 1469.86363636 1437 1677 1220 c 0,74,75
 1868 1019.9047619 1868 1019.9047619 1868 736 c 0,76,77
 1868 533 1868 533 1782.5 362 c 0,78,79
 1704.8490566 206.698113208 1704.8490566 206.698113208 1574.5 114.5 c 0,80,81
 1447.96551724 25 1447.96551724 25 1314 25 c 0,82,83
 1174.3125 25 1174.3125 25 1126.5 76 c 0,84,85
 1104 100 1104 100 1104 138.5 c 128,-1,86
 1104 177 1104 177 1107 200 c 128,-1,87
 1110 223 1110 223 1114 241.5 c 128,-1,0
 1118 260 1118 260 1122 276.5 c 128,-1,1
1245 860 m 1,88,89
 1245 876 1245 876 1207 876 c 128,-1,90
 1169 876 1169 876 1118 862.5 c 128,-1,91
 1067 849 1067 849 1020.5 824.5 c 0,92,93
 846.852083741 733.008087132 846.852083741 733.008087132 798 515.5 c 0,94,95
 777 422 777 422 774.5 365 c 128,-1,96
 772 308 772 308 774 281 c 128,-1,97
 776 254 776 254 784.5 230 c 0,98,99
 804.333333333 174 804.333333333 174 858 174 c 1,100,101
 929.902439024 211.040650407 929.902439024 211.040650407 1013.45121951 286.020325203 c 128,-1,102
 1097 361 1097 361 1146 405 c 1,103,-1
 1245 860 l 1,88,89
EndSplineSet
EndChar

StartChar: A
Encoding: 65 65 36
Width: 1558
Flags: W
LayerCount: 2
Fore
SplineSet
-20 12 m 256,0,1
 -20 40 -20 40 1 40 c 2,2,-1
 23 40 l 2,3,4
 61 40 61 40 81 54.5 c 128,-1,5
 101 69 101 69 151 134.5 c 128,-1,6
 201 200 201 200 290.5 316 c 128,-1,7
 380 432 380 432 470.5 550 c 128,-1,8
 561 668 561 668 650.5 785 c 128,-1,9
 740 902 740 902 822.5 1009.5 c 128,-1,10
 905 1117 905 1117 977.5 1211.5 c 128,-1,11
 1050 1306 1050 1306 1083 1349 c 128,-1,12
 1116 1392 1116 1392 1131.5 1404.5 c 128,-1,13
 1147 1417 1147 1417 1170 1417 c 2,14,-1
 1196 1417 l 2,15,16
 1225 1417 1225 1417 1233 1401.5 c 128,-1,17
 1241 1386 1241 1386 1242 1363 c 2,18,-1
 1271 150 l 2,19,20
 1273.62667443 65.9464181712 1273.62667443 65.9464181712 1374 45.5 c 0,21,22
 1401 40 1401 40 1426 40 c 2,23,-1
 1470 40 l 2,24,25
 1483 40 1483 40 1483 25 c 2,26,-1
 1483 14 l 2,27,28
 1483 0 1483 0 1469 0 c 2,29,-1
 848 0 l 2,30,31
 834 0 834 0 834 11 c 2,32,-1
 834 30 l 2,33,34
 834 40 834 40 859 40 c 128,-1,35
 884 40 884 40 911.5 42 c 128,-1,36
 939 44 939 44 958.5 47.5 c 0,37,38
 1030.46092619 60.4160636758 1030.46092619 60.4160636758 1052.2304631 89.2080318379 c 128,-1,39
 1074 118 1074 118 1082 143.5 c 0,40,41
 1094 181.75 1094 181.75 1094 252 c 1,42,-1
 1087 540 l 1,43,-1
 1087 558 l 2,44,45
 1087 602 1087 602 1034 602 c 2,46,-1
 632 602 l 2,47,48
 591.933333333 602 591.933333333 602 567 568 c 0,49,50
 516 499 516 499 463.5 432 c 128,-1,51
 411 365 411 365 379 322.5 c 128,-1,52
 347 280 347 280 334 262 c 128,-1,53
 321 244 321 244 310 225 c 0,54,55
 285 181.818181818 285 181.818181818 285 138.909090909 c 128,-1,56
 285 96 285 96 322.5 68 c 128,-1,57
 360 40 360 40 421 40 c 2,58,-1
 470 40 l 2,59,60
 483 40 483 40 483 29 c 1,61,62
 478.844444444 4.06666666667 478.844444444 4.06666666667 473.422222222 2.03333333333 c 128,-1,63
 468 0 468 0 458 0 c 2,64,-1
 -1 0 l 2,65,66
 -20 0 -20 0 -20 12 c 256,0,1
1083 727 m 2,67,-1
 1072 1175 l 2,68,69
 1072 1202 1072 1202 1062.5 1201.5 c 0,70,71
 1051.21875 1200.90625 1051.21875 1200.90625 1032.109375 1174.953125 c 128,-1,72
 1013 1149 1013 1149 973 1096 c 128,-1,73
 933 1043 933 1043 885 981.5 c 0,74,75
 779.153846154 845.884615385 779.153846154 845.884615385 734.076923077 786.442307692 c 128,-1,76
 689 727 689 727 684 720.5 c 128,-1,77
 679 714 679 714 674 707 c 0,78,79
 661 688.8 661 688.8 661 682.9 c 128,-1,80
 661 677 661 677 666 677 c 2,81,-1
 1035 677 l 2,82,83
 1057 677 1057 677 1070 690.5 c 128,-1,84
 1083 704 1083 704 1083 727 c 2,67,-1
EndSplineSet
EndChar

StartChar: B
Encoding: 66 66 37
Width: 1306
Flags: W
LayerCount: 2
Fore
SplineSet
653.5 -1 m 2,0,-1
 474.5 0 l 1,1,2
 250.75 0 250.75 0 136.375 0 c 128,-1,3
 22 0 22 0 21 3 c 128,-1,4
 20 6 20 6 20 8 c 2,5,-1
 27 42 l 1,6,7
 31 50 31 50 48 50 c 128,-1,8
 65 50 65 50 97.5 53.5 c 128,-1,9
 130 57 130 57 159 70 c 0,10,11
 226.110619469 100.084070796 226.110619469 100.084070796 242 176 c 2,12,-1
 466 1231 l 2,13,14
 471 1254.33333333 471 1254.33333333 471 1280.66666667 c 128,-1,15
 471 1307 471 1307 459.5 1323.5 c 128,-1,16
 448 1340 448 1340 428 1347.5 c 0,17,18
 400 1358 400 1358 323 1358 c 2,19,-1
 255 1358 l 2,20,21
 248 1358 248 1358 248 1367 c 1,22,-1
 256 1400 l 1,23,24
 256 1410 256 1410 265 1410 c 2,25,-1
 840 1410 l 2,26,27
 1151 1410 1151 1410 1264 1240.5 c 0,28,29
 1305 1179 1305 1179 1305 1108 c 128,-1,30
 1305 1037 1305 1037 1284 994 c 128,-1,31
 1263 951 1263 951 1230.5 917.5 c 128,-1,32
 1198 884 1198 884 1160.5 859.5 c 128,-1,33
 1123 835 1123 835 1090 819.5 c 128,-1,34
 1057 804 1057 804 1034 796 c 128,-1,35
 1011 788 1011 788 1009 787 c 1,36,37
 1265 627.711111111 1265 627.711111111 1265 444 c 0,38,39
 1265 252.84375 1265 252.84375 1158 142.5 c 0,40,41
 1018.84848485 -1 1018.84848485 -1 700 -1 c 0,42,43
 676.75 -1 676.75 -1 653.5 -1 c 2,0,-1
566 769 m 2,44,45
 542.826086957 769 542.826086957 769 535 733 c 0,46,47
 507 603 507 603 488 513.5 c 128,-1,48
 469 424 469 424 456.5 365.5 c 128,-1,49
 444 307 444 307 437 274 c 128,-1,50
 430 241 430 241 426.5 225 c 0,51,52
 422 204.428571429 422 204.428571429 422 184.714285714 c 128,-1,53
 422 165 422 165 443 137 c 128,-1,54
 464 109 464 109 498 88.5 c 0,55,56
 568.487804878 46 568.487804878 46 658.243902439 46 c 128,-1,57
 748 46 748 46 823.5 76 c 128,-1,58
 899 106 899 106 954.5 159 c 0,59,60
 1072 271.207207207 1072 271.207207207 1072 449 c 0,61,62
 1072 589.103448276 1072 589.103448276 980.5 678.5 c 0,63,64
 887.870588235 769 887.870588235 769 744 769 c 2,65,-1
 566 769 l 2,44,45
564 874 m 2,66,67
 563 870 563 870 563 860.5 c 0,68,69
 563 836 563 836 591 832 c 1,70,71
 655 826 655 826 734.5 826 c 128,-1,72
 814 826 814 826 891 849 c 128,-1,73
 968 872 968 872 1019.5 908.5 c 0,74,75
 1123 981.854368932 1123 981.854368932 1123 1084 c 0,76,77
 1123 1273.10309278 1123 1273.10309278 988.5 1335.5 c 0,78,79
 940 1358 940 1358 875.5 1358 c 128,-1,80
 811 1358 811 1358 772.5 1357.5 c 128,-1,81
 734 1357 734 1357 709.5 1352.5 c 0,82,83
 665.633626098 1344.44291092 665.633626098 1344.44291092 658 1312 c 2,84,-1
 564 874 l 2,66,67
EndSplineSet
EndChar

StartChar: C
Encoding: 67 67 38
Width: 1531
Flags: W
LayerCount: 2
Fore
SplineSet
1299 20 m 1,0,-1
 1216 32 l 1,1,2
 1148.70833333 32 1148.70833333 32 1074.35416667 10.5 c 0,3,4
 934.291666667 -30 934.291666667 -30 863.145833333 -30 c 128,-1,5
 792 -30 792 -30 704.5 -17.5 c 128,-1,6
 617 -5 617 -5 532 24.5 c 128,-1,7
 447 54 447 54 370.5 103 c 128,-1,8
 294 152 294 152 236 225 c 0,9,10
 110 383.586206897 110 383.586206897 110 629 c 0,11,12
 110 863.698529412 110 863.698529412 257 1061.5 c 0,13,14
 390.970311253 1241.7688747 390.970311253 1241.7688747 615 1348.5 c 0,15,16
 832.247524752 1452 832.247524752 1452 1060 1452 c 0,17,18
 1186.56521739 1452 1186.56521739 1452 1299.7826087 1431 c 128,-1,19
 1413 1410 1413 1410 1464 1393 c 0,20,21
 1581 1354 1581 1354 1581 1298 c 0,22,23
 1581 1225 1581 1225 1550.5 1131 c 128,-1,24
 1520 1037 1520 1037 1510 1015 c 128,-1,25
 1500 993 1500 993 1489 993 c 0,26,27
 1469.09090909 993 1469.09090909 993 1466 1010 c 1,28,29
 1463 1061 1463 1061 1459.5 1111.5 c 128,-1,30
 1456 1162 1456 1162 1434 1205 c 128,-1,31
 1412 1248 1412 1248 1376 1281.5 c 128,-1,32
 1340 1315 1340 1315 1296 1339 c 0,33,34
 1202.5 1390 1202.5 1390 1102.75 1390 c 128,-1,35
 1003 1390 1003 1390 902 1361.5 c 128,-1,36
 801 1333 801 1333 711 1281 c 128,-1,37
 621 1229 621 1229 545 1157 c 128,-1,38
 469 1085 469 1085 413.5 997.5 c 0,39,40
 296 812.252252252 296 812.252252252 296 605 c 0,41,42
 296 360 296 360 444.5 198 c 0,43,44
 597.583333333 31 597.583333333 31 845 31 c 0,45,46
 1004.47826087 31 1004.47826087 31 1146 136 c 0,47,48
 1270.0507365 228.037643208 1270.0507365 228.037643208 1317 351 c 0,49,50
 1324 370 1324 370 1332.5 382.5 c 128,-1,51
 1341 395 1341 395 1357.5 395 c 0,52,53
 1393 395 1393 395 1393 378 c 1,54,55
 1392 376 1392 376 1391.5 371.5 c 128,-1,56
 1391 367 1391 367 1389 355 c 128,-1,57
 1387 343 1387 343 1382.5 320.5 c 128,-1,58
 1378 298 1378 298 1369.5 260 c 128,-1,59
 1361 222 1361 222 1348.5 165.5 c 128,-1,60
 1336 109 1336 109 1326.5 66 c 128,-1,61
 1317 23 1317 23 1311.5 21.5 c 128,-1,62
 1306 20 1306 20 1299 20 c 1,0,-1
EndSplineSet
EndChar

StartChar: E
Encoding: 69 69 39
Width: 1360
Flags: W
LayerCount: 2
Fore
SplineSet
1257 311 m 0,0,1
 1257 298.6 1257 298.6 1232 241.8 c 128,-1,2
 1207 185 1207 185 1190 132 c 128,-1,3
 1173 79 1173 79 1162 50 c 128,-1,4
 1151 21 1151 21 1138 10.5 c 128,-1,5
 1125 0 1125 0 1097 0 c 2,6,-1
 7 0 l 2,7,8
 0 0 0 0 0 8 c 1,9,-1
 5 32 l 1,10,11
 9 40 9 40 29.5 40 c 128,-1,12
 50 40 50 40 79.5 44.5 c 128,-1,13
 109 49 109 49 132 64 c 0,14,15
 180.844863732 95.8553459119 180.844863732 95.8553459119 199 183 c 0,16,17
 242 384 242 384 274.5 536.5 c 128,-1,18
 307 689 307 689 331.5 801 c 128,-1,19
 356 913 356 913 372.5 989 c 128,-1,20
 389 1065 389 1065 400 1115 c 128,-1,21
 411 1165 411 1165 417 1192.5 c 128,-1,22
 423 1220 423 1220 425.5 1235 c 0,23,24
 429 1256 429 1256 429 1277.5 c 128,-1,25
 429 1299 429 1299 409.5 1318.5 c 128,-1,26
 390 1338 390 1338 360.5 1349.5 c 0,27,28
 307.913043478 1370 307.913043478 1370 235 1370 c 0,29,30
 229 1370 229 1370 229 1378 c 1,31,-1
 234 1402 l 2,32,33
 236 1410 236 1410 244 1410 c 2,34,-1
 1290 1410 l 2,35,36
 1313 1410 1313 1410 1326.5 1405.5 c 128,-1,37
 1340 1401 1340 1401 1340 1389.5 c 128,-1,38
 1340 1378 1340 1378 1339.5 1372 c 128,-1,39
 1339 1366 1339 1366 1335 1341 c 0,40,41
 1330.67741935 1313.98387097 1330.67741935 1313.98387097 1302 1103 c 0,42,43
 1300 1089 1300 1089 1286.5 1089 c 0,44,45
 1257.83333333 1089 1257.83333333 1089 1254 1112 c 0,46,47
 1251 1127 1251 1127 1251 1146.5 c 128,-1,48
 1251 1166 1251 1166 1247.5 1191.5 c 128,-1,49
 1244 1217 1244 1217 1230 1249.5 c 128,-1,50
 1216 1282 1216 1282 1193 1305 c 0,51,52
 1143 1355 1143 1355 1066 1355 c 2,53,-1
 699 1355 l 2,54,55
 643.692307692 1355 643.692307692 1355 633.846153846 1347 c 0,56,57
 621.148514851 1336.68316832 621.148514851 1336.68316832 611 1290 c 2,58,-1
 506 790 l 2,59,60
 504 782 504 782 504 778 c 0,61,62
 504 753 504 753 546 753 c 2,63,-1
 913 753 l 2,64,65
 978.097560976 753 978.097560976 753 1039.5 800.5 c 0,66,67
 1087.30040595 837.47767253 1087.30040595 837.47767253 1119 896 c 0,68,69
 1125.5 909 1125.5 909 1136 909 c 2,70,-1
 1153 909 l 2,71,72
 1162 909 1162 909 1162 902 c 128,-1,73
 1162 895 1162 895 1161.5 895 c 128,-1,74
 1161 895 1161 895 1161 893 c 2,75,-1
 1081 520 l 2,76,77
 1076.8 499 1076.8 499 1061 499 c 256,78,79
 1050 499 1050 499 1046.5 502.5 c 128,-1,80
 1043 506 1043 506 1041 519 c 128,-1,81
 1039 532 1039 532 1038.5 549 c 128,-1,82
 1038 566 1038 566 1032 590.5 c 128,-1,83
 1026 615 1026 615 1012.5 633 c 128,-1,84
 999 651 999 651 979.5 661 c 0,85,86
 946.35 678 946.35 678 882 678 c 2,87,-1
 521 678 l 2,88,89
 513 678 513 678 498 671 c 128,-1,90
 483 664 483 664 477 645 c 128,-1,91
 471 626 471 626 467.5 607.5 c 128,-1,92
 464 589 464 589 452 537 c 128,-1,93
 440 485 440 485 425 409 c 128,-1,94
 410 333 410 333 399 283.5 c 0,95,96
 384 216 384 216 384 174.5 c 128,-1,97
 384 133 384 133 400.5 110.5 c 128,-1,98
 417 88 417 88 446 77 c 0,99,100
 488.181818182 61 488.181818182 61 587.090909091 61 c 128,-1,101
 686 61 686 61 751.5 65 c 128,-1,102
 817 69 817 69 866 77.5 c 128,-1,103
 915 86 915 86 951.5 100.5 c 128,-1,104
 988 115 988 115 1019 136.5 c 0,105,106
 1060.86013072 165.532026144 1060.86013072 165.532026144 1108.93006536 214.766013072 c 128,-1,107
 1157 264 1157 264 1168 277.5 c 128,-1,108
 1179 291 1179 291 1190 302.5 c 0,109,110
 1216.30434783 330 1216.30434783 330 1236.65217391 330 c 128,-1,111
 1257 330 1257 330 1257 311 c 0,0,1
EndSplineSet
EndChar

StartChar: F
Encoding: 70 70 40
Width: 1351
Flags: W
LayerCount: 2
Fore
SplineSet
503 779 m 0,0,1
 503 753 503 753 544 753 c 2,2,-1
 914 753 l 2,3,4
 1013.1372549 753 1013.1372549 753 1087.5 845.5 c 0,5,6
 1108 871 1108 871 1117 890 c 128,-1,7
 1126 909 1126 909 1137 909 c 2,8,-1
 1148 909 l 2,9,10
 1163 909 1163 909 1163 899 c 0,11,12
 1163 898 1163 898 1162.5 896 c 128,-1,13
 1162 894 1162 894 1160 883 c 128,-1,14
 1158 872 1158 872 1153 849 c 128,-1,15
 1148 826 1148 826 1139.5 784.5 c 0,16,17
 1084.39543726 515.460076046 1084.39543726 515.460076046 1078.69771863 507.230038023 c 128,-1,18
 1073 499 1073 499 1061.5 499 c 128,-1,19
 1050 499 1050 499 1047 503.5 c 0,20,21
 1040.55384615 513.169230769 1040.55384615 513.169230769 1039.77692308 539.584615385 c 128,-1,22
 1039 566 1039 566 1033 590.5 c 128,-1,23
 1027 615 1027 615 1013.5 633 c 128,-1,24
 1000 651 1000 651 980.5 661 c 0,25,26
 947.35 678 947.35 678 883 678 c 2,27,-1
 518 678 l 2,28,29
 482.230769231 678 482.230769231 678 473 648 c 0,30,31
 470 640 470 640 463.5 608.5 c 128,-1,32
 457 577 457 577 447.5 532.5 c 128,-1,33
 438 488 438 488 427 435 c 128,-1,34
 416 382 416 382 405 330.5 c 0,35,36
 365 143.227272727 365 143.227272727 365 119.613636364 c 128,-1,37
 365 96 365 96 382.5 78 c 128,-1,38
 400 60 400 60 427 51.5 c 0,39,40
 463.529411765 40 463.529411765 40 551 40 c 0,41,42
 557 40 557 40 557 32 c 1,43,-1
 552 8 l 2,44,45
 549.333333333 1.13686837722e-13 549.333333333 1.13686837722e-13 543 0 c 2,46,-1
 7 0 l 2,47,48
 0 0 0 0 0 8 c 1,49,-1
 5 32 l 1,50,51
 9 40 9 40 29.5 40 c 128,-1,52
 50 40 50 40 79.5 44.5 c 128,-1,53
 109 49 109 49 132 64 c 0,54,55
 180.844863732 95.8553459119 180.844863732 95.8553459119 199 183 c 0,56,57
 242 384 242 384 274.5 537.5 c 128,-1,58
 307 691 307 691 331.5 804.5 c 128,-1,59
 356 918 356 918 372.5 996 c 128,-1,60
 389 1074 389 1074 399.5 1125.5 c 128,-1,61
 410 1177 410 1177 416 1205 c 128,-1,62
 422 1233 422 1233 424.5 1247 c 0,63,64
 428 1266.6 428 1266.6 428 1271 c 0,65,66
 428 1370 428 1370 236 1370 c 0,67,68
 230 1370 230 1370 230 1378 c 1,69,-1
 235 1402 l 2,70,71
 237 1410 237 1410 245 1410 c 2,72,-1
 1291 1410 l 2,73,74
 1316 1410 1316 1410 1328.5 1407 c 128,-1,75
 1341 1404 1341 1404 1341 1392.5 c 128,-1,76
 1341 1381 1341 1381 1340 1377 c 2,77,-1
 1284 1114 l 2,78,79
 1278.44444444 1089 1278.44444444 1089 1264 1089 c 256,80,81
 1237.83333333 1089 1237.83333333 1089 1234 1112 c 0,82,83
 1231 1127 1231 1127 1231 1146.5 c 128,-1,84
 1231 1166 1231 1166 1227.5 1191.5 c 128,-1,85
 1224 1217 1224 1217 1210 1249.5 c 128,-1,86
 1196 1282 1196 1282 1173 1305 c 0,87,88
 1123 1355 1123 1355 1044 1355 c 2,89,-1
 705 1355 l 2,90,91
 645.8 1355 645.8 1355 634.4 1346 c 0,92,93
 618.957446809 1333.80851064 618.957446809 1333.80851064 607 1280 c 2,94,-1
 504 790 l 2,95,96
 503 786 503 786 503 779 c 0,0,1
EndSplineSet
EndChar

StartChar: G
Encoding: 71 71 41
Width: 1625
Flags: W
LayerCount: 2
Fore
SplineSet
1477 122 m 0,0,1
 1495 122 1495 122 1495 111 c 0,2,3
 1495 76.6818181818 1495 76.6818181818 1430 56 c 0,4,5
 1316.27692308 18.0923076923 1316.27692308 18.0923076923 1017 -15.5 c 0,6,7
 914.545454545 -27 914.545454545 -27 879 -27 c 0,8,9
 536.779661017 -27 536.779661017 -27 325 151.5 c 0,10,11
 100 341.142857143 100 341.142857143 100 674 c 0,12,13
 100 881.900763359 100 881.900763359 242.5 1069 c 0,14,15
 373.590487468 1241.11880797 373.590487468 1241.11880797 579 1347 c 0,16,17
 782.7 1452 782.7 1452 972 1452 c 0,18,19
 1176.25 1452 1176.25 1452 1243.625 1441.5 c 128,-1,20
 1311 1431 1311 1431 1348.5 1422 c 0,21,22
 1451.75342466 1397.21917808 1451.75342466 1397.21917808 1499.37671233 1377.60958904 c 128,-1,23
 1547 1358 1547 1358 1551.5 1352 c 0,24,25
 1566.61073826 1331.85234899 1566.61073826 1331.85234899 1573.80536913 1232.9261745 c 128,-1,26
 1581 1134 1581 1134 1581 1085 c 128,-1,27
 1581 1036 1581 1036 1565 1036 c 128,-1,28
 1549 1036 1549 1036 1540.5 1040.5 c 128,-1,29
 1532 1045 1532 1045 1527.5 1053.5 c 128,-1,30
 1523 1062 1523 1062 1520.5 1073 c 128,-1,31
 1518 1084 1518 1084 1499 1125.5 c 128,-1,32
 1480 1167 1480 1167 1441.5 1224.5 c 128,-1,33
 1403 1282 1403 1282 1350.5 1322 c 0,34,35
 1241.5625 1405 1241.5625 1405 1057 1405 c 0,36,37
 869.882352941 1405 869.882352941 1405 692 1297 c 0,38,39
 519.568345324 1192.30935252 519.568345324 1192.30935252 412.5 1021 c 0,40,41
 301 842.6 301 842.6 301 648 c 0,42,43
 301 377.120300752 301 377.120300752 434.5 211.5 c 0,44,45
 575.963636364 36 575.963636364 36 838 36 c 0,46,47
 1067.70175439 36 1067.70175439 36 1175 105.5 c 0,48,49
 1219 134 1219 134 1229 180 c 2,50,-1
 1278 401 l 2,51,52
 1281 413 1281 413 1281 429 c 128,-1,53
 1281 445 1281 445 1269.5 461.5 c 128,-1,54
 1258 478 1258 478 1240 488.5 c 0,55,56
 1203.14285714 510 1203.14285714 510 1163.57142857 510 c 128,-1,57
 1124 510 1124 510 1124 528 c 128,-1,58
 1124 546 1124 546 1153 546 c 0,59,60
 1212.75 546 1212.75 546 1272.5 546 c 2,61,-1
 1467.5 545 l 2,62,63
 1524.25 545 1524.25 545 1569.125 545 c 128,-1,64
 1614 545 1614 545 1614 525 c 0,65,66
 1614 510 1614 510 1576.5 510 c 128,-1,67
 1539 510 1539 510 1509.5 483.5 c 128,-1,68
 1480 457 1480 457 1473 426.5 c 128,-1,69
 1466 396 1466 396 1459 362.5 c 128,-1,70
 1452 329 1452 329 1444.5 294.5 c 128,-1,71
 1437 260 1437 260 1430 226.5 c 128,-1,72
 1423 193 1423 193 1419.5 177.5 c 128,-1,73
 1416 162 1416 162 1416 156 c 0,74,75
 1416 122 1416 122 1477 122 c 0,0,1
EndSplineSet
EndChar

StartChar: H
Encoding: 72 72 42
Width: 1626
Flags: W
LayerCount: 2
Fore
SplineSet
1409 1274 m 0,0,1
 1409 1370 1409 1370 1239 1370 c 0,2,3
 1233 1370 1233 1370 1233 1378 c 1,4,-1
 1238 1402 l 2,5,6
 1240 1410 1240 1410 1248 1410 c 2,7,-1
 1769 1410 l 2,8,9
 1775 1410 1775 1410 1775 1402 c 1,10,-1
 1770 1378 l 2,11,12
 1768 1370 1768 1370 1746.5 1370 c 128,-1,13
 1725 1370 1725 1370 1695 1365.5 c 128,-1,14
 1665 1361 1665 1361 1641.5 1346 c 0,15,16
 1592.24130879 1314.55828221 1592.24130879 1314.55828221 1574 1227 c 2,17,-1
 1348 160 l 2,18,19
 1344 144 1344 144 1344 120 c 128,-1,20
 1344 96 1344 96 1362 78 c 128,-1,21
 1380 60 1380 60 1408 51.5 c 0,22,23
 1445.88235294 40 1445.88235294 40 1530 40 c 0,24,25
 1536 40 1536 40 1536 32 c 1,26,-1
 1531 8 l 2,27,28
 1528.33333333 -2.27373675443e-13 1528.33333333 -2.27373675443e-13 1522 0 c 2,29,-1
 986 0 l 2,30,31
 979 0 979 0 979 8 c 1,32,-1
 984 32 l 1,33,34
 988 40 988 40 1008.5 40 c 128,-1,35
 1029 40 1029 40 1058.5 44.5 c 128,-1,36
 1088 49 1088 49 1111 64 c 0,37,38
 1159.84486373 95.8553459119 1159.84486373 95.8553459119 1180.42243187 192.427672956 c 128,-1,39
 1201 289 1201 289 1216.5 362 c 128,-1,40
 1232 435 1232 435 1242.5 483.5 c 128,-1,41
 1253 532 1253 532 1258.5 559.5 c 128,-1,42
 1264 587 1264 587 1266.5 601.5 c 0,43,44
 1270 621.8 1270 621.8 1270 627 c 0,45,46
 1270 688 1270 688 1218 688 c 2,47,-1
 555 688 l 2,48,49
 504.673913043 688 504.673913043 688 486.5 612 c 0,50,51
 475.07253886 564.212435233 475.07253886 564.212435233 449.03626943 440.106217617 c 128,-1,52
 423 316 423 316 413 269 c 128,-1,53
 403 222 403 222 397.5 195 c 128,-1,54
 392 168 392 168 389.5 154.5 c 0,55,56
 386 135.6 386 135.6 386 116.8 c 128,-1,57
 386 98 386 98 404 79.5 c 128,-1,58
 422 61 422 61 449.5 52 c 0,59,60
 486.166666667 40 486.166666667 40 571 40 c 0,61,62
 577 40 577 40 577 32 c 1,63,-1
 572 8 l 2,64,65
 569.333333333 1.13686837722e-13 569.333333333 1.13686837722e-13 563 0 c 2,66,-1
 27 0 l 2,67,68
 20 0 20 0 20 8 c 1,69,-1
 25 32 l 1,70,71
 29 40 29 40 49.5 40 c 128,-1,72
 70 40 70 40 99.5 44.5 c 128,-1,73
 129 49 129 49 152 64 c 0,74,75
 200.844863732 95.8553459119 200.844863732 95.8553459119 219 183 c 2,76,-1
 446 1250 l 2,77,78
 450 1266 450 1266 450 1277 c 0,79,80
 450 1370 450 1370 284 1370 c 0,81,82
 274 1370 274 1370 274 1380 c 1,83,-1
 279 1402 l 2,84,85
 281 1410 281 1410 289 1410 c 2,86,-1
 810 1410 l 2,87,88
 816 1410 816 1410 816 1402 c 1,89,-1
 811 1378 l 2,90,91
 809 1370 809 1370 787.5 1370 c 128,-1,92
 766 1370 766 1370 736 1365.5 c 128,-1,93
 706 1361 706 1361 683 1346 c 0,94,95
 634.155136268 1314.14465409 634.155136268 1314.14465409 614.577568134 1219.07232704 c 128,-1,96
 595 1124 595 1124 579.5 1053 c 128,-1,97
 564 982 564 982 554 934.5 c 128,-1,98
 544 887 544 887 538.5 860.5 c 128,-1,99
 533 834 533 834 530 821 c 128,-1,100
 527 808 527 808 526 804 c 0,101,102
 523 792 523 792 523 786 c 0,103,104
 523 764 523 764 554 764 c 2,105,-1
 1266 764 l 2,106,107
 1302 764 1302 764 1324.5 868.5 c 128,-1,108
 1347 973 1347 973 1361 1039 c 128,-1,109
 1375 1105 1375 1105 1384 1148.5 c 128,-1,110
 1393 1192 1393 1192 1398 1216 c 128,-1,111
 1403 1240 1403 1240 1405.5 1252.5 c 0,112,113
 1409 1270 1409 1270 1409 1274 c 0,0,1
EndSplineSet
EndChar

StartChar: I
Encoding: 73 73 43
Width: 667
Flags: W
LayerCount: 2
Fore
SplineSet
450 1275 m 0,0,1
 450 1370 450 1370 280 1370 c 0,2,3
 274 1370 274 1370 274 1378 c 1,4,-1
 279 1402 l 2,5,6
 281 1410 281 1410 289 1410 c 2,7,-1
 810 1410 l 2,8,9
 816 1410 816 1410 816 1402 c 1,10,-1
 811 1378 l 2,11,12
 809 1370 809 1370 787.5 1370 c 128,-1,13
 766 1370 766 1370 736.5 1365.5 c 128,-1,14
 707 1361 707 1361 683.5 1346 c 0,15,16
 634.241308793 1314.55828221 634.241308793 1314.55828221 616 1227 c 2,17,-1
 389 160 l 2,18,19
 385 144 385 144 385 120 c 128,-1,20
 385 96 385 96 403 78 c 128,-1,21
 421 60 421 60 449 51.5 c 0,22,23
 486.882352941 40 486.882352941 40 571 40 c 0,24,25
 577 40 577 40 577 32 c 1,26,-1
 572 8 l 2,27,28
 569.333333333 1.13686837722e-13 569.333333333 1.13686837722e-13 563 0 c 2,29,-1
 27 0 l 2,30,31
 20 0 20 0 20 8 c 1,32,-1
 25 32 l 1,33,34
 29 40 29 40 49.5 40 c 128,-1,35
 70 40 70 40 99.5 44.5 c 128,-1,36
 129 49 129 49 152.5 64 c 0,37,38
 201.758691207 95.4417177914 201.758691207 95.4417177914 220 183 c 0,39,40
 263 385 263 385 295.5 538 c 128,-1,41
 328 691 328 691 352.5 804.5 c 128,-1,42
 377 918 377 918 393.5 995.5 c 128,-1,43
 410 1073 410 1073 421 1124 c 128,-1,44
 432 1175 432 1175 438 1203 c 128,-1,45
 444 1231 444 1231 446.5 1246 c 0,46,47
 450 1267 450 1267 450 1275 c 0,0,1
EndSplineSet
EndChar

StartChar: J
Encoding: 74 74 44
Width: 678
Flags: W
LayerCount: 2
Fore
SplineSet
-425 -608 m 0,0,1
 -425 -539.157894737 -425 -539.157894737 -356 -521 c 0,2,3
 -337 -516 -337 -516 -313.5 -516 c 128,-1,4
 -290 -516 -290 -516 -258.5 -523.5 c 128,-1,5
 -227 -531 -227 -531 -195.5 -540.5 c 0,6,7
 -114.263157895 -565 -114.263157895 -565 -79.6315789474 -565 c 128,-1,8
 -45 -565 -45 -565 -18 -555.5 c 128,-1,9
 9 -546 9 -546 32.5 -515.5 c 128,-1,10
 56 -485 56 -485 78.5 -429.5 c 128,-1,11
 101 -374 101 -374 126 -282 c 128,-1,12
 151 -190 151 -190 181 -56 c 128,-1,13
 211 78 211 78 250.5 264 c 128,-1,14
 290 450 290 450 340.5 694 c 128,-1,15
 391 938 391 938 426.5 1106.5 c 128,-1,16
 462 1275 462 1275 462 1295.5 c 128,-1,17
 462 1316 462 1316 450 1332 c 128,-1,18
 438 1348 438 1348 416 1356.5 c 0,19,20
 381.058823529 1370 381.058823529 1370 291 1370 c 0,21,22
 285 1370 285 1370 285 1378 c 1,23,-1
 290 1402 l 2,24,25
 292 1410 292 1410 300 1410 c 2,26,-1
 821 1410 l 2,27,28
 827 1410 827 1410 827 1402 c 1,29,-1
 822 1378 l 2,30,31
 820 1370 820 1370 798.5 1370 c 128,-1,32
 777 1370 777 1370 747.5 1365.5 c 128,-1,33
 718 1361 718 1361 694.5 1346 c 0,34,35
 645.241308793 1314.55828221 645.241308793 1314.55828221 627 1227 c 0,36,37
 565 934 565 934 521 724 c 128,-1,38
 477 514 477 514 446 368.5 c 128,-1,39
 415 223 415 223 395.5 131 c 128,-1,40
 376 39 376 39 364 -17.5 c 128,-1,41
 352 -74 352 -74 344.5 -106 c 128,-1,42
 337 -138 337 -138 326 -182.5 c 128,-1,43
 315 -227 315 -227 291.5 -289 c 128,-1,44
 268 -351 268 -351 233 -407.5 c 128,-1,45
 198 -464 198 -464 151 -512.5 c 128,-1,46
 104 -561 104 -561 41.5 -596.5 c 0,47,48
 -91.4225352113 -672 -91.4225352113 -672 -258.211267606 -672 c 128,-1,49
 -425 -672 -425 -672 -425 -608 c 0,0,1
EndSplineSet
EndChar

StartChar: K
Encoding: 75 75 45
Width: 1556
Flags: W
LayerCount: 2
Fore
SplineSet
1496 40 m 2,0,1
 1505 40 1505 40 1505 28 c 2,2,-1
 1505 10 l 2,3,4
 1505 0 1505 0 1492 0 c 2,5,-1
 1149 0 l 1,6,7
 1136 16 1136 16 1101 58 c 128,-1,8
 1066 100 1066 100 1019 157 c 128,-1,9
 972 214 972 214 916.5 280 c 128,-1,10
 861 346 861 346 806.5 411.5 c 128,-1,11
 752 477 752 477 702.5 536.5 c 128,-1,12
 653 596 653 596 632.5 620.5 c 128,-1,13
 612 645 612 645 604.5 654 c 128,-1,14
 597 663 597 663 589 671 c 0,15,16
 570 690 570 690 555.5 690 c 128,-1,17
 541 690 541 690 519 672.5 c 128,-1,18
 497 655 497 655 487 617 c 1,19,-1
 389 160 l 2,20,21
 385 144 385 144 385 120 c 128,-1,22
 385 96 385 96 403 78 c 128,-1,23
 421 60 421 60 449 51.5 c 0,24,25
 486.882352941 40 486.882352941 40 571 40 c 0,26,27
 577 40 577 40 577 32 c 1,28,-1
 572 8 l 2,29,30
 569.333333333 1.13686837722e-13 569.333333333 1.13686837722e-13 563 0 c 2,31,-1
 27 0 l 2,32,33
 20 0 20 0 20 8 c 1,34,-1
 25 32 l 1,35,36
 29 40 29 40 49.5 40 c 128,-1,37
 70 40 70 40 99.5 44.5 c 128,-1,38
 129 49 129 49 152 64 c 0,39,40
 200.844863732 95.8553459119 200.844863732 95.8553459119 219 183 c 2,41,-1
 451 1271 l 2,42,43
 453 1281 453 1281 453 1296 c 128,-1,44
 453 1311 453 1311 433.5 1327.5 c 128,-1,45
 414 1344 414 1344 386.5 1353.5 c 0,46,47
 338.736842105 1370 338.736842105 1370 280 1370 c 0,48,49
 274 1370 274 1370 274 1378 c 1,50,-1
 279 1402 l 2,51,52
 281 1410 281 1410 289 1410 c 2,53,-1
 810 1410 l 2,54,55
 816 1410 816 1410 816 1402 c 1,56,-1
 811 1378 l 2,57,58
 809 1370 809 1370 787.5 1370 c 128,-1,59
 766 1370 766 1370 736.5 1365.5 c 128,-1,60
 707 1361 707 1361 683.5 1346 c 0,61,62
 634.241308793 1314.55828221 634.241308793 1314.55828221 613.120654397 1215.2791411 c 128,-1,63
 592 1116 592 1116 575.5 1039 c 128,-1,64
 559 962 559 962 548.5 912.5 c 128,-1,65
 538 863 538 863 532.5 835.5 c 2,66,-1
 524.5 795.5 l 2,67,68
 519.2 769 519.2 769 526.1 769 c 128,-1,69
 533 769 533 769 553 782.5 c 128,-1,70
 573 796 573 796 598 813 c 128,-1,71
 623 830 623 830 645.5 846 c 128,-1,72
 668 862 668 862 686.5 875 c 128,-1,73
 705 888 705 888 720.5 900 c 128,-1,74
 736 912 736 912 773.5 939 c 128,-1,75
 811 966 811 966 857 999 c 128,-1,76
 903 1032 903 1032 953.5 1068 c 128,-1,77
 1004 1104 1004 1104 1049.5 1136.5 c 128,-1,78
 1095 1169 1095 1169 1132 1195 c 128,-1,79
 1169 1221 1169 1221 1186 1233 c 128,-1,80
 1203 1245 1203 1245 1213 1253 c 128,-1,81
 1223 1261 1223 1261 1229 1270 c 0,82,83
 1240 1286.5 1240 1286.5 1240 1318.75 c 128,-1,84
 1240 1351 1240 1351 1227 1360.5 c 128,-1,85
 1214 1370 1214 1370 1183 1370 c 2,86,-1
 1148 1370 l 2,87,88
 1130 1370 1130 1370 1130 1383 c 2,89,-1
 1130 1399 l 2,90,91
 1130 1410 1130 1410 1147 1410 c 2,92,-1
 1644 1410 l 2,93,94
 1656 1410 1656 1410 1656 1399 c 2,95,-1
 1656 1382 l 2,96,97
 1656 1370 1656 1370 1629.5 1370 c 128,-1,98
 1603 1370 1603 1370 1580.5 1365.5 c 128,-1,99
 1558 1361 1558 1361 1538 1353.5 c 128,-1,100
 1518 1346 1518 1346 1496 1336 c 128,-1,101
 1474 1326 1474 1326 1448.5 1316 c 128,-1,102
 1423 1306 1423 1306 1396.5 1292 c 128,-1,103
 1370 1278 1370 1278 1332.5 1254 c 0,104,105
 1265.54973822 1211.15183246 1265.54973822 1211.15183246 1186.77486911 1152.57591623 c 128,-1,106
 1108 1094 1108 1094 1082 1075 c 128,-1,107
 1056 1056 1056 1056 1020 1030.5 c 128,-1,108
 984 1005 984 1005 942.5 975 c 128,-1,109
 901 945 901 945 861 916.5 c 128,-1,110
 821 888 821 888 787 864 c 128,-1,111
 753 840 753 840 733.5 825.5 c 128,-1,112
 714 811 714 811 714 805.5 c 0,113,114
 714 795.2 714 795.2 724 782.1 c 0,115,116
 735.709401709 766.760683761 735.709401709 766.760683761 772.854700855 722.88034188 c 128,-1,117
 810 679 810 679 864.5 613 c 128,-1,118
 919 547 919 547 977 477.5 c 0,119,120
 1142.51219512 279.170731707 1142.51219512 279.170731707 1177.75609756 238.585365854 c 128,-1,121
 1213 198 1213 198 1239 166.5 c 128,-1,122
 1265 135 1265 135 1295.5 107 c 0,123,124
 1368.48214286 40 1368.48214286 40 1430 40 c 2,125,-1
 1496 40 l 2,0,1
EndSplineSet
EndChar

StartChar: L
Encoding: 76 76 46
Width: 1286
Flags: W
LayerCount: 2
Fore
SplineSet
20 12 m 0,0,1
 20 40 20 40 48.5 40 c 128,-1,2
 77 40 77 40 105 44.5 c 128,-1,3
 133 49 133 49 155 64 c 0,4,5
 199.534216336 94.3642384106 199.534216336 94.3642384106 218 183 c 0,6,7
 275 451 275 451 314 636 c 128,-1,8
 353 821 353 821 378.5 941 c 128,-1,9
 404 1061 404 1061 418 1127 c 128,-1,10
 432 1193 432 1193 438.5 1224.5 c 0,11,12
 447 1265.69230769 447 1265.69230769 447 1283.84615385 c 128,-1,13
 447 1302 447 1302 427.5 1321 c 128,-1,14
 408 1340 408 1340 379 1351 c 0,15,16
 328.909090909 1370 328.909090909 1370 254 1370 c 0,17,18
 248 1370 248 1370 248 1378 c 1,19,-1
 253 1402 l 2,20,21
 255 1410 255 1410 263 1410 c 2,22,-1
 850 1410 l 2,23,24
 856 1410 856 1410 856 1402 c 1,25,-1
 851 1378 l 2,26,27
 849 1370 849 1370 827.5 1370 c 128,-1,28
 806 1370 806 1370 770 1365.5 c 128,-1,29
 734 1361 734 1361 703.5 1346 c 0,30,31
 634.747336377 1312.18721461 634.747336377 1312.18721461 617 1227 c 0,32,33
 577 1040 577 1040 547 897.5 c 128,-1,34
 517 755 517 755 494.5 648.5 c 128,-1,35
 472 542 472 542 456.5 467.5 c 128,-1,36
 441 393 441 393 431 344 c 128,-1,37
 421 295 421 295 415.5 266.5 c 128,-1,38
 410 238 410 238 407.5 223 c 0,39,40
 404 202 404 202 404 194 c 0,41,42
 404 61 404 61 590 61 c 0,43,44
 865.931034483 61 865.931034483 61 965.5 99.5 c 0,45,46
 1036.33010461 126.887640449 1036.33010461 126.887640449 1082.66505231 170.943820225 c 128,-1,47
 1129 215 1129 215 1152.5 239.5 c 128,-1,48
 1176 264 1176 264 1187 277.5 c 128,-1,49
 1198 291 1198 291 1209 302.5 c 0,50,51
 1235.30434783 330 1235.30434783 330 1255.65217391 330 c 128,-1,52
 1276 330 1276 330 1276 311 c 0,53,54
 1276 298.6 1276 298.6 1251 241.8 c 128,-1,55
 1226 185 1226 185 1209 132 c 128,-1,56
 1192 79 1192 79 1181 50 c 128,-1,57
 1170 21 1170 21 1157 10.5 c 128,-1,58
 1144 0 1144 0 1116 0 c 2,59,-1
 31 0 l 2,60,61
 20 0 20 0 20 12 c 0,0,1
EndSplineSet
EndChar

StartChar: M
Encoding: 77 77 47
Width: 1882
Flags: W
LayerCount: 2
Fore
SplineSet
1604 1142 m 2,0,-1
 1604 1153.5 l 2,1,2
 1604 1161 1604 1161 1598.5 1161 c 0,3,4
 1588.75 1161 1588.75 1161 1575 1139 c 2,5,-1
 891 68 l 2,6,7
 871 36 871 36 851 18 c 128,-1,8
 831 0 831 0 810 0 c 128,-1,9
 789 0 789 0 782.5 6 c 128,-1,10
 776 12 776 12 772 20.5 c 0,11,12
 767.58974359 29.8717948718 767.58974359 29.8717948718 755.794871795 105.435897436 c 128,-1,13
 744 181 744 181 722 319 c 128,-1,14
 700 457 700 457 677.5 599 c 128,-1,15
 655 741 655 741 632 883.5 c 128,-1,16
 609 1026 609 1026 598 1097 c 128,-1,17
 587 1168 587 1168 585.5 1179 c 128,-1,18
 584 1190 584 1190 582 1200.5 c 0,19,20
 577.142857143 1226 577.142857143 1226 572.571428571 1226 c 128,-1,21
 568 1226 568 1226 563.5 1217 c 128,-1,22
 559 1208 559 1208 555.5 1197 c 0,23,24
 547 1170.28571429 547 1170.28571429 524.5 1085.14285714 c 128,-1,25
 502 1000 502 1000 456.5 828.5 c 128,-1,26
 411 657 411 657 383.5 553 c 128,-1,27
 356 449 356 449 344 408 c 128,-1,28
 332 367 332 367 324 332.5 c 0,29,30
 308 263.5 308 263.5 308 218 c 256,31,32
 308 109.795454545 308 109.795454545 369 58.5 c 0,33,34
 391 40 391 40 427 40 c 128,-1,35
 463 40 463 40 463 26 c 2,36,-1
 463 13 l 2,37,38
 463 0 463 0 423 0 c 2,39,-1
 39 0 l 2,40,41
 20 0 20 0 20 21 c 0,42,43
 20 34 20 34 26.5 37 c 128,-1,44
 33 40 33 40 56.5 49 c 0,45,46
 107.742750234 68.6248830683 107.742750234 68.6248830683 173 140 c 0,47,48
 213.535248042 185.039164491 213.535248042 185.039164491 238.5 294.5 c 0,49,50
 246.615819209 330.084745763 246.615819209 330.084745763 278.807909605 447.542372881 c 128,-1,51
 311 565 311 565 329 631 c 0,52,53
 370.25 782.25 370.25 782.25 393.625 872.625 c 0,54,55
 445.506097561 1073.21341463 445.506097561 1073.21341463 457.75304878 1115.60670732 c 128,-1,56
 470 1158 470 1158 475.5 1180.5 c 0,57,58
 489 1235.72727273 489 1235.72727273 489 1262.36363636 c 128,-1,59
 489 1289 489 1289 479 1309.5 c 128,-1,60
 469 1330 469 1330 452.5 1343.5 c 0,61,62
 420.111111111 1370 420.111111111 1370 371 1370 c 2,63,-1
 330 1370 l 2,64,65
 313 1370 313 1370 310 1376 c 128,-1,66
 307 1382 307 1382 307 1390 c 0,67,68
 307 1409 307 1409 330 1411 c 1,69,-1
 704 1411 l 2,70,71
 735.65 1411 735.65 1411 743 1362 c 1,72,73
 747.166666667 1326.58333333 747.166666667 1326.58333333 760.083333333 1251.79166667 c 128,-1,74
 773 1177 773 1177 793.5 1046.5 c 128,-1,75
 814 916 814 916 834.5 785.5 c 128,-1,76
 855 655 855 655 874.5 528 c 128,-1,77
 894 401 894 401 904.5 339.5 c 128,-1,78
 915 278 915 278 917.5 272 c 128,-1,79
 920 266 920 266 924 266 c 0,80,81
 932.333333333 266 932.333333333 266 939 276 c 0,82,83
 1018 401 1018 401 1107 540 c 128,-1,84
 1196 679 1196 679 1287.5 822 c 0,85,86
 1487.24255319 1134.16595745 1487.24255319 1134.16595745 1567.6212766 1261.08297872 c 128,-1,87
 1648 1388 1648 1388 1659 1399 c 128,-1,88
 1670 1410 1670 1410 1690 1410 c 2,89,-1
 2007 1410 l 2,90,91
 2024 1410 2024 1410 2028 1405.5 c 128,-1,92
 2032 1401 2032 1401 2032 1390 c 0,93,94
 2032 1368 2032 1368 1969.5 1368 c 128,-1,95
 1907 1368 1907 1368 1873.5 1332.5 c 0,96,97
 1837.3044916 1294.14356572 1837.3044916 1294.14356572 1811 1164.5 c 0,98,99
 1804 1130 1804 1130 1797 1097 c 0,100,101
 1780 1016.85714286 1780 1016.85714286 1780 1014 c 2,102,-1
 1608 201 l 2,103,104
 1605 186 1605 186 1605 166.5 c 128,-1,105
 1605 147 1605 147 1613 124 c 128,-1,106
 1621 101 1621 101 1635.5 83 c 0,107,108
 1666.98263027 43.9181141439 1666.98263027 43.9181141439 1714 40 c 1,109,-1
 1761 40 l 2,110,111
 1790 40 1790 40 1790 23 c 128,-1,112
 1790 6 1790 6 1779 3 c 128,-1,113
 1768 0 1768 0 1749 0 c 2,114,-1
 1210 0 l 2,115,116
 1190 0 1190 0 1190 14 c 1,117,-1
 1191 24 l 1,118,119
 1191 40 1191 40 1220 40 c 128,-1,120
 1249 40 1249 40 1278.5 54 c 128,-1,121
 1308 68 1308 68 1334 91 c 0,122,123
 1390.84351714 141.284649776 1390.84351714 141.284649776 1407.42175857 219.642324888 c 128,-1,124
 1424 298 1424 298 1444.5 393 c 128,-1,125
 1465 488 1465 488 1487 591 c 0,126,127
 1543.06451613 853.483870968 1543.06451613 853.483870968 1584 1043 c 1,128,-1
 1602 1130 l 2,129,130
 1604 1138 1604 1138 1604 1142 c 2,0,-1
EndSplineSet
EndChar

StartChar: N
Encoding: 78 78 48
Width: 1716
Flags: W
LayerCount: 2
Fore
SplineSet
1432.5 260 m 128,-1,1
 1418 192 1418 192 1410.5 154.5 c 128,-1,2
 1403 117 1403 117 1396.26086957 81.2826086957 c 128,-1,3
 1389.52173913 45.5652173913 1389.52173913 45.5652173913 1386.26086957 34.2826086957 c 128,-1,4
 1383 23 1383 23 1377.5 12 c 128,-1,5
 1372 1 1372 1 1356.5 1 c 128,-1,6
 1341 1 1341 1 1327.5 13 c 128,-1,7
 1314 25 1314 25 1300.5 43 c 128,-1,8
 1287 61 1287 61 1274.5 81.5 c 128,-1,9
 1262 102 1262 102 1182.5 218.5 c 128,-1,10
 1103 335 1103 335 996.5 491.5 c 128,-1,11
 890 648 890 648 815.5 756.5 c 128,-1,12
 741 865 741 865 694 933.5 c 128,-1,13
 647 1002 647 1002 619 1043.5 c 128,-1,14
 591 1085 591 1085 577 1105.5 c 128,-1,15
 563 1126 563 1126 554 1140 c 0,16,17
 520.428571429 1187 520.428571429 1187 509.714285714 1187 c 0,18,19
 495.2 1187 495.2 1187 486 1141 c 0,20,21
 448 954 448 954 408 773 c 128,-1,22
 368 592 368 592 342.5 469.5 c 128,-1,23
 317 347 317 347 317 292.5 c 128,-1,24
 317 238 317 238 325 194 c 128,-1,25
 333 150 333 150 351 116 c 0,26,27
 391.235294118 40 391.235294118 40 469 40 c 0,28,29
 503 40 503 40 512.5 37 c 128,-1,30
 522 34 522 34 522 23 c 2,31,-1
 522 14 l 2,32,33
 522 0 522 0 500 0 c 2,34,-1
 49 0 l 2,35,36
 33 0 33 0 25 3 c 128,-1,37
 17 6 17 6 17 20.5 c 128,-1,38
 17 35 17 35 23 41 c 128,-1,39
 29 47 29 47 38 51 c 128,-1,40
 47 55 47 55 57.5 57.5 c 128,-1,41
 68 60 68 60 84 66 c 128,-1,42
 100 72 100 72 123 89.5 c 128,-1,43
 146 107 146 107 166 130 c 0,44,45
 209.141361257 179.612565445 209.141361257 179.612565445 221 231 c 2,46,-1
 432 1225 l 2,47,48
 434 1237 434 1237 438 1251.5 c 128,-1,49
 442 1266 442 1266 442 1284 c 128,-1,50
 442 1302 442 1302 423.5 1319.5 c 128,-1,51
 405 1337 405 1337 378 1348.5 c 0,52,53
 327.52173913 1370 327.52173913 1370 287.260869565 1370 c 128,-1,54
 247 1370 247 1370 236 1372.5 c 128,-1,55
 225 1375 225 1375 225 1389 c 256,56,57
 225 1403 225 1403 234 1406.5 c 128,-1,58
 243 1410 243 1410 264 1410 c 2,59,-1
 515 1410 l 2,60,61
 572.071428571 1410 572.071428571 1410 589.035714286 1400.5 c 0,62,63
 610.255319149 1388.61702128 610.255319149 1388.61702128 640 1344 c 2,64,-1
 1333 326 l 2,65,66
 1339 317 1339 317 1346.5 305.5 c 128,-1,67
 1354 294 1354 294 1360.5 294 c 128,-1,68
 1367 294 1367 294 1370 307.5 c 128,-1,69
 1373 321 1373 321 1378.5 341 c 128,-1,70
 1384 361 1384 361 1388.5 385.5 c 128,-1,71
 1393 410 1393 410 1400.5 450 c 128,-1,72
 1408 490 1408 490 1424 564 c 128,-1,73
 1440 638 1440 638 1458.5 723 c 0,74,75
 1499.87272727 913.090909091 1499.87272727 913.090909091 1521.43636364 1014.54545455 c 128,-1,76
 1543 1116 1543 1116 1554 1162.5 c 128,-1,77
 1565 1209 1565 1209 1565 1243.5 c 0,78,79
 1565 1311.55172414 1565 1311.55172414 1514 1352 c 0,80,81
 1490.85714286 1370 1490.85714286 1370 1396 1370 c 0,82,83
 1382 1370 1382 1370 1377.5 1378 c 128,-1,84
 1373 1386 1373 1386 1373 1393 c 0,85,86
 1373 1410 1373 1410 1402 1410 c 2,87,-1
 1843 1410 l 2,88,89
 1866 1410 1866 1410 1866 1390 c 128,-1,90
 1866 1370 1866 1370 1843 1370 c 2,91,-1
 1803 1370 l 2,92,93
 1722.59459459 1370 1722.59459459 1370 1670 1300.5 c 0,94,95
 1645.34653465 1267.92220651 1645.34653465 1267.92220651 1625.67326733 1170.96110325 c 128,-1,96
 1606 1074 1606 1074 1594 1018 c 128,-1,97
 1582 962 1582 962 1566.5 888.5 c 128,-1,98
 1551 815 1551 815 1534 734 c 128,-1,99
 1517 653 1517 653 1499 569 c 128,-1,100
 1481 485 1481 485 1464 406.5 c 128,-1,0
 1447 328 1447 328 1432.5 260 c 128,-1,1
EndSplineSet
EndChar

StartChar: O
Encoding: 79 79 49
Width: 1632
Flags: W
LayerCount: 2
Fore
SplineSet
1041 30 m 0,0,1
 933 0 933 0 826 0 c 128,-1,2
 719 0 719 0 630 23.5 c 128,-1,3
 541 47 541 47 464 89 c 128,-1,4
 387 131 387 131 324.5 190.5 c 128,-1,5
 262 250 262 250 217.5 322.5 c 0,6,7
 125 473.202247191 125 473.202247191 125 651 c 0,8,9
 125 863.442307692 125 863.442307692 234 1050 c 0,10,11
 339.86544768 1231.19278545 339.86544768 1231.19278545 519.5 1340 c 0,12,13
 704.405660377 1452 704.405660377 1452 901.702830189 1452 c 128,-1,14
 1099 1452 1099 1452 1237.5 1404 c 128,-1,15
 1376 1356 1376 1356 1468 1272.5 c 0,16,17
 1652 1105.5 1652 1105.5 1652 836 c 0,18,19
 1652 609.560747664 1652 609.560747664 1539.5 414 c 0,20,21
 1371.39246356 121.775684323 1371.39246356 121.775684323 1041 30 c 0,0,1
807.5 41 m 0,22,23
 917 41 917 41 1006.5 77.5 c 128,-1,24
 1096 114 1096 114 1168.5 177.5 c 128,-1,25
 1241 241 1241 241 1296 325.5 c 128,-1,26
 1351 410 1351 410 1388.5 505.5 c 0,27,28
 1464 697.773333333 1464 697.773333333 1464 902 c 0,29,30
 1464 1129.68 1464 1129.68 1340.5 1268 c 0,31,32
 1205.67857143 1419 1205.67857143 1419 957 1419 c 0,33,34
 659.736842105 1419 659.736842105 1419 484 1167 c 0,35,36
 324 937.566037736 324 937.566037736 324 625 c 0,37,38
 324 371.484126984 324 371.484126984 454 209.5 c 0,39,40
 589.229299363 41 589.229299363 41 807.5 41 c 0,22,23
EndSplineSet
EndChar

StartChar: P
Encoding: 80 80 50
Width: 1215
Flags: W
LayerCount: 2
Fore
SplineSet
567 569 m 0,0,1
 567 600 567 600 600 600 c 0,2,3
 823.869565217 600 823.869565217 600 950.5 716.5 c 0,4,5
 1081 836.56 1081 836.56 1081 1059 c 0,6,7
 1081 1363 1081 1363 728 1363 c 0,8,9
 669.3 1363 669.3 1363 653.15 1346 c 128,-1,10
 637 1329 637 1329 634 1312 c 2,11,-1
 389 160 l 2,12,13
 386 143 386 143 386 120.5 c 128,-1,14
 386 98 386 98 404 79.5 c 128,-1,15
 422 61 422 61 449.5 52 c 0,16,17
 486.166666667 40 486.166666667 40 571 40 c 0,18,19
 577 40 577 40 577 32 c 1,20,-1
 572 8 l 2,21,22
 569.333333333 1.13686837722e-13 569.333333333 1.13686837722e-13 563 0 c 2,23,-1
 27 0 l 2,24,25
 20 0 20 0 20 8 c 1,26,-1
 25 32 l 1,27,28
 29 40 29 40 49.5 40 c 128,-1,29
 70 40 70 40 99.5 44.5 c 128,-1,30
 129 49 129 49 152.5 64 c 0,31,32
 200.605316973 94.7055214724 200.605316973 94.7055214724 219 183 c 0,33,34
 222 199 222 199 225 213 c 128,-1,35
 228 227 228 227 232 247 c 128,-1,36
 236 267 236 267 242.5 298 c 128,-1,37
 249 329 249 329 259.5 378 c 128,-1,38
 270 427 270 427 285.5 499 c 128,-1,39
 301 571 301 571 322.5 673.5 c 128,-1,40
 344 776 344 776 373.5 913.5 c 0,41,42
 447 1256.08474576 447 1256.08474576 447 1282.04237288 c 128,-1,43
 447 1308 447 1308 435 1324.5 c 128,-1,44
 423 1341 423 1341 402 1348.5 c 0,45,46
 372.6 1359 372.6 1359 293 1359 c 2,47,-1
 230 1359 l 2,48,49
 223 1359 223 1359 223 1367 c 1,50,-1
 231 1400 l 1,51,52
 231 1410 231 1410 240 1410 c 2,53,-1
 546.5 1409 l 2,54,55
 666.25 1409 666.25 1409 751.625 1409 c 128,-1,56
 837 1409 837 1409 892.5 1400 c 128,-1,57
 948 1391 948 1391 1001.5 1372.5 c 128,-1,58
 1055 1354 1055 1354 1102.5 1325 c 128,-1,59
 1150 1296 1150 1296 1186.5 1256.5 c 0,60,61
 1265 1171.54794521 1265 1171.54794521 1265 1064.7739726 c 128,-1,62
 1265 958 1265 958 1238.5 885 c 128,-1,63
 1212 812 1212 812 1165.5 756.5 c 128,-1,64
 1119 701 1119 701 1056 662 c 128,-1,65
 993 623 993 623 919 598.5 c 0,66,67
 778.551020408 552 778.551020408 552 601 552 c 0,68,69
 567 552 567 552 567 569 c 0,0,1
EndSplineSet
EndChar

StartChar: Q
Encoding: 81 81 51
Width: 1637
Flags: W
LayerCount: 2
Fore
SplineSet
1559.5 -274.5 m 128,-1,1
 1584 -266 1584 -266 1606.5 -266 c 128,-1,2
 1629 -266 1629 -266 1629 -292 c 0,3,4
 1629 -323.728813559 1629 -323.728813559 1526.5 -355 c 0,5,6
 1457.66666667 -376 1457.66666667 -376 1404.83333333 -376 c 128,-1,7
 1352 -376 1352 -376 1308 -365.5 c 128,-1,8
 1264 -355 1264 -355 1222 -338 c 0,9,10
 1148.96735905 -308.439169139 1148.96735905 -308.439169139 1074.48367953 -262.71958457 c 128,-1,11
 1000 -217 1000 -217 939.5 -180.5 c 128,-1,12
 879 -144 879 -144 818 -98 c 0,13,14
 658.869565217 22 658.869565217 22 548.934782609 55 c 128,-1,15
 439 88 439 88 362.5 153.5 c 128,-1,16
 286 219 286 219 233.5 305 c 0,17,18
 125 482.733333333 125 482.733333333 125 682 c 0,19,20
 125 906.103448276 125 906.103448276 247 1087 c 0,21,22
 361.748935382 1257.14497315 361.748935382 1257.14497315 558.5 1355 c 0,23,24
 753.531914894 1452 753.531914894 1452 977 1452 c 0,25,26
 1250.00884956 1452 1250.00884956 1452 1449.5 1274.5 c 0,27,28
 1579.53624246 1158.79846144 1579.53624246 1158.79846144 1631 995.5 c 0,29,30
 1657 913 1657 913 1657 822.5 c 128,-1,31
 1657 732 1657 732 1634.5 645.5 c 128,-1,32
 1612 559 1612 559 1571.5 480 c 128,-1,33
 1531 401 1531 401 1473.5 330 c 128,-1,34
 1416 259 1416 259 1347 202 c 0,35,36
 1202.42857143 82.5714285714 1202.42857143 82.5714285714 1017 32 c 0,37,38
 971 19.4545454545 971 19.4545454545 971 3 c 0,39,40
 971 -6.70833333333 971 -6.70833333333 1006.5 -31.8541666667 c 128,-1,41
 1042 -57 1042 -57 1093 -88 c 128,-1,42
 1144 -119 1144 -119 1210 -161.5 c 128,-1,43
 1276 -204 1276 -204 1327 -231 c 0,44,45
 1425.22222222 -283 1425.22222222 -283 1514 -283 c 0,46,0
 1535 -283 1535 -283 1559.5 -274.5 c 128,-1,1
318 591 m 0,47,48
 318 488 318 488 352.5 389 c 128,-1,49
 387 290 387 290 450 215 c 0,50,51
 587.76 51 587.76 51 803 51 c 0,52,53
 1008.45081967 51 1008.45081967 51 1167.5 183 c 0,54,55
 1309.5918537 300.926572458 1309.5918537 300.926572458 1390.5 500.5 c 0,56,57
 1466 686.733333333 1466 686.733333333 1466 887 c 0,58,59
 1466 1122.0952381 1466 1122.0952381 1337 1268.5 c 0,60,61
 1202.62937063 1421 1202.62937063 1421 971 1421 c 0,62,63
 769.788135593 1421 769.788135593 1421 612.5 1293 c 0,64,65
 473.436969079 1179.83146449 473.436969079 1179.83146449 393 982 c 0,66,67
 318 797.540540541 318 797.540540541 318 591 c 0,47,48
EndSplineSet
EndChar

StartChar: R
Encoding: 82 82 52
Width: 1507
Flags: W
LayerCount: 2
Fore
SplineSet
635 641 m 1,0,-1
 504 635 l 2,1,2
 490 635 490 635 487 621 c 2,3,-1
 389 160 l 2,4,5
 385 144 385 144 385 119.5 c 128,-1,6
 385 95 385 95 403 77.5 c 128,-1,7
 421 60 421 60 449 51.5 c 0,8,9
 486.882352941 40 486.882352941 40 571 40 c 0,10,11
 577 40 577 40 577 32 c 1,12,-1
 572 8 l 2,13,14
 569.333333333 1.13686837722e-13 569.333333333 1.13686837722e-13 563 0 c 2,15,-1
 27 0 l 2,16,17
 20 0 20 0 20 8 c 1,18,-1
 25 32 l 1,19,20
 29 40 29 40 49.5 40 c 128,-1,21
 70 40 70 40 99.5 44.5 c 128,-1,22
 129 49 129 49 152.5 64 c 0,23,24
 200.605316973 94.7055214724 200.605316973 94.7055214724 219 183 c 0,25,26
 222 199 222 199 225 213 c 2,27,28
 232.5 248 l 2,29,30
 237 269 237 269 244 301 c 128,-1,31
 251 333 251 333 261.5 383 c 128,-1,32
 272 433 272 433 287.5 505.5 c 128,-1,33
 303 578 303 578 325 681.5 c 128,-1,34
 347 785 347 785 376.5 923 c 0,35,36
 449 1262.15254237 449 1262.15254237 449 1281 c 0,37,38
 449 1330 449 1330 408 1344.5 c 128,-1,39
 367 1359 367 1359 282 1359 c 2,40,-1
 230 1359 l 2,41,42
 224 1359 224 1359 224 1368 c 1,43,-1
 230 1394 l 1,44,45
 235 1409 235 1409 243 1409 c 2,46,-1
 740 1409 l 2,47,48
 1004.32941176 1409 1004.32941176 1409 1126.5 1328.5 c 0,49,50
 1256 1243.17054264 1256 1243.17054264 1256 1055 c 0,51,52
 1256 941.744680851 1256 941.744680851 1159 853 c 0,53,54
 1085.86573781 786.089930336 1085.86573781 786.089930336 889 682 c 0,55,56
 861 668 861 668 861 654 c 128,-1,57
 861 639.857142857 861 639.857142857 872 621.428571429 c 128,-1,58
 883 603 883 603 904 569.5 c 128,-1,59
 925 536 925 536 953 493.5 c 128,-1,60
 981 451 981 451 1015.5 402.5 c 128,-1,61
 1050 354 1050 354 1088.5 306 c 128,-1,62
 1127 258 1127 258 1168 214 c 128,-1,63
 1209 170 1209 170 1250.5 136 c 0,64,65
 1340.82352941 62 1340.82352941 62 1408 62 c 2,66,-1
 1434 62 l 2,67,68
 1473.625 62 1473.625 62 1479.8125 53 c 128,-1,69
 1486 44 1486 44 1486 36 c 2,70,-1
 1486 20 l 2,71,72
 1486 0 1486 0 1455 0 c 2,73,-1
 1380 0 l 2,74,75
 1110.79617834 0 1110.79617834 0 912 264.5 c 0,76,77
 853 343 853 343 813.5 406 c 128,-1,78
 774 469 774 469 748.5 506 c 128,-1,79
 723 543 723 543 704 573.5 c 128,-1,80
 685 604 685 604 681 612 c 128,-1,81
 677 620 677 620 671 626.5 c 0,82,83
 657.615384615 641 657.615384615 641 635 641 c 1,0,-1
778 1362 m 1,84,-1
 728 1363 l 1,85,86
 668.666666667 1363 668.666666667 1363 652.833333333 1345.5 c 128,-1,87
 637 1328 637 1328 634 1312 c 2,88,-1
 512 737 l 2,89,90
 508 721 508 721 508 703.5 c 128,-1,91
 508 686 508 686 559.5 686 c 128,-1,92
 611 686 611 686 674 699 c 128,-1,93
 737 712 737 712 794.5 736.5 c 128,-1,94
 852 761 852 761 902 796.5 c 128,-1,95
 952 832 952 832 988.5 876 c 0,96,97
 1067 970.630136986 1067 970.630136986 1067 1082 c 0,98,99
 1067 1212.64 1067 1212.64 988.5 1288 c 0,100,101
 911.416666667 1362 911.416666667 1362 778 1362 c 1,84,-1
EndSplineSet
EndChar

StartChar: S
Encoding: 83 83 53
Width: 1130
Flags: W
LayerCount: 2
Fore
SplineSet
165 440 m 0,0,1
 165 246 165 246 252 150.5 c 128,-1,2
 339 55 339 55 523 55 c 0,3,4
 649.275362319 55 649.275362319 55 741.5 126.5 c 0,5,6
 841 203.640449438 841 203.640449438 841 324 c 0,7,8
 841 426.052631579 841 426.052631579 737.5 535 c 0,9,10
 709 565 709 565 678.5 593.5 c 128,-1,11
 648 622 648 622 607.5 655 c 128,-1,12
 567 688 567 688 526.5 723.5 c 128,-1,13
 486 759 486 759 448.5 797 c 128,-1,14
 411 835 411 835 381.5 877 c 0,15,16
 317 968.830508475 317 968.830508475 317 1060.41525424 c 128,-1,17
 317 1152 317 1152 352 1222 c 128,-1,18
 387 1292 387 1292 445.5 1340.5 c 0,19,20
 567.927835052 1442 567.927835052 1442 737 1442 c 0,21,22
 829.818181818 1442 829.818181818 1442 878.909090909 1422 c 128,-1,23
 928 1402 928 1402 950 1393 c 128,-1,24
 972 1384 972 1384 994.5 1384 c 128,-1,25
 1017 1384 1017 1384 1029.5 1389 c 128,-1,26
 1042 1394 1042 1394 1052 1399.5 c 128,-1,27
 1062 1405 1062 1405 1071 1410 c 128,-1,28
 1080 1415 1080 1415 1089 1415 c 1,29,30
 1109 1412 1109 1412 1108.5 1395.5 c 128,-1,31
 1108 1379 1108 1379 1107 1369 c 128,-1,32
 1106 1359 1106 1359 1103.5 1338 c 0,33,34
 1092.5625 1246.125 1092.5625 1246.125 1086.78125 1203.0625 c 128,-1,35
 1081 1160 1081 1160 1079.5 1139.5 c 128,-1,36
 1078 1119 1078 1119 1074.5 1100.5 c 0,37,38
 1066.27027027 1057 1066.27027027 1057 1043 1057 c 0,39,40
 1015.21428571 1057 1015.21428571 1057 1013 1088 c 0,41,42
 999.976120654 1299.63803938 999.976120654 1299.63803938 834.5 1367 c 0,43,44
 778 1390 778 1390 716 1390 c 128,-1,45
 654 1390 654 1390 608.5 1371 c 128,-1,46
 563 1352 563 1352 527.5 1319.5 c 0,47,48
 450 1248.54929577 450 1248.54929577 450 1157 c 0,49,50
 450 1023.57831325 450 1023.57831325 604.5 897 c 0,51,52
 646 863 646 863 690.5 824 c 128,-1,53
 735 785 735 785 788.5 740.5 c 128,-1,54
 842 696 842 696 886.5 645 c 0,55,56
 988 528.674157303 988 528.674157303 988 411.837078652 c 128,-1,57
 988 295 988 295 945.5 220 c 128,-1,58
 903 145 903 145 832.5 96.5 c 0,59,60
 693.680412371 1 693.680412371 1 485 1 c 0,61,62
 319.727272727 1 319.727272727 1 149.5 88.5 c 0,63,64
 96 116 96 116 74.5 134 c 0,65,66
 50 154.511627907 50 154.511627907 50 162 c 0,67,68
 58 222 58 222 72 279 c 128,-1,69
 86 336 86 336 92.5 371 c 128,-1,70
 99 406 99 406 101 419 c 128,-1,71
 103 432 103 432 107.5 444.5 c 0,72,73
 118.48 475 118.48 475 141.74 475 c 128,-1,74
 165 475 165 475 165 440 c 0,0,1
EndSplineSet
EndChar

StartChar: T
Encoding: 84 84 54
Width: 1423
Flags: W
LayerCount: 2
Fore
SplineSet
289 32 m 2,0,1
 289 40 289 40 298.5 40 c 2,2,-1
 325.5 40 l 2,3,4
 416.945945946 40 416.945945946 40 482.5 89.5 c 0,5,6
 532.442307692 127.211538462 532.442307692 127.211538462 543 180 c 2,7,-1
 779 1287 l 2,8,9
 780 1290 780 1290 780 1295 c 0,10,11
 780 1315 780 1315 749 1315 c 2,12,-1
 455 1315 l 2,13,14
 380.048387097 1315 380.048387097 1315 318.5 1243 c 0,15,16
 257.65088208 1171.818013 257.65088208 1171.818013 244 1086.5 c 0,17,18
 241.452054795 1070.57534247 241.452054795 1070.57534247 236.726027397 1069.78767123 c 128,-1,19
 232 1069 232 1069 230 1069 c 2,20,-1
 207 1069 l 2,21,22
 200 1069 200 1069 200 1076 c 1,23,24
 247.125 1308 247.125 1308 262 1376 c 2,25,-1
 271 1419 l 2,26,27
 276.454545455 1449 276.454545455 1449 297 1449 c 0,28,29
 304 1449 304 1449 309.5 1443 c 128,-1,30
 315 1437 315 1437 323 1429.5 c 0,31,32
 343.8 1410 343.8 1410 384 1410 c 2,33,-1
 1435 1410 l 2,34,35
 1476.8 1410 1476.8 1410 1489.4 1423.5 c 128,-1,36
 1502 1437 1502 1437 1507 1443 c 128,-1,37
 1512 1449 1512 1449 1522 1449 c 0,38,39
 1548 1449 1548 1449 1548 1426 c 0,40,41
 1548 1422.23076923 1548 1422.23076923 1540.5 1387.61538462 c 0,42,43
 1520.55319149 1295.55319149 1520.55319149 1295.55319149 1482 1106 c 1,44,-1
 1476 1079 l 2,45,46
 1474.75 1069 1474.75 1069 1465 1069 c 2,47,-1
 1452 1069 l 2,48,49
 1437.54794521 1069 1437.54794521 1069 1426.7739726 1140.5 c 128,-1,50
 1416 1212 1416 1212 1405.5 1243 c 0,51,52
 1381.11290323 1315 1381.11290323 1315 1327 1315 c 2,53,-1
 1012 1315 l 2,54,55
 999 1315 999 1315 989 1311.5 c 128,-1,56
 979 1308 979 1308 974 1287 c 0,57,58
 930 1079 930 1079 896 920.5 c 128,-1,59
 862 762 862 762 837 644.5 c 128,-1,60
 812 527 812 527 795 446 c 128,-1,61
 778 365 778 365 766.5 312.5 c 128,-1,62
 755 260 755 260 749 231 c 128,-1,63
 743 202 743 202 740 188.5 c 0,64,65
 735 166 735 166 735 151 c 128,-1,66
 735 136 735 136 756 116 c 128,-1,67
 777 96 777 96 807 80 c 0,68,69
 882 40 882 40 955 40 c 2,70,-1
 984 40 l 2,71,72
 992 40 992 40 992 32 c 2,73,-1
 992 8 l 2,74,75
 992 0 992 0 984 0 c 2,76,-1
 297 0 l 2,77,78
 289 0 289 0 289 8 c 2,79,-1
 289 32 l 2,0,1
EndSplineSet
EndChar

StartChar: U
Encoding: 85 85 55
Width: 1618
Flags: W
LayerCount: 2
Fore
SplineSet
1763 1410 m 2,0,1
 1778 1410 1778 1410 1778 1397 c 2,2,-1
 1778 1386 l 2,3,4
 1778 1373.90909091 1778 1373.90909091 1749 1369.95454545 c 128,-1,5
 1720 1366 1720 1366 1705.5 1363 c 128,-1,6
 1691 1360 1691 1360 1672.5 1355 c 128,-1,7
 1654 1350 1654 1350 1639.5 1339.5 c 0,8,9
 1610.15292553 1318.24867021 1610.15292553 1318.24867021 1597 1260 c 2,10,-1
 1566 1117 l 2,11,12
 1558 1082 1558 1082 1543.5 1012 c 128,-1,13
 1529 942 1529 942 1510 852 c 0,14,15
 1457.75 604.5 1457.75 604.5 1430.375 477.25 c 128,-1,16
 1403 350 1403 350 1352 264.5 c 128,-1,17
 1301 179 1301 179 1226 120 c 0,18,19
 1073.45762712 -2.13162820728e-14 1073.45762712 -2.13162820728e-14 846 0 c 0,20,21
 616.666666667 0 616.666666667 0 442.5 104.5 c 0,22,23
 251 219.4 251 219.4 251 403 c 0,24,25
 251 448.236842105 251 448.236842105 323.5 782.118421053 c 128,-1,26
 396 1116 396 1116 406 1164 c 2,27,-1
 421 1236 l 2,28,29
 428 1269.6 428 1269.6 428 1287.3 c 128,-1,30
 428 1305 428 1305 411.5 1323.5 c 128,-1,31
 395 1342 395 1342 370 1352 c 0,32,33
 325 1370 325 1370 257 1370 c 0,34,35
 251 1370 251 1370 251 1378 c 1,36,-1
 256 1402 l 2,37,38
 258 1410 258 1410 266 1410 c 2,39,-1
 787 1410 l 2,40,41
 793 1410 793 1410 793 1402 c 1,42,-1
 788 1378 l 2,43,44
 786 1370 786 1370 764.5 1370 c 128,-1,45
 743 1370 743 1370 713.5 1365.5 c 128,-1,46
 684 1361 684 1361 661 1346 c 0,47,48
 613.312368973 1314.89937107 613.312368973 1314.89937107 595 1227 c 2,49,-1
 440 508 l 2,50,51
 431 466 431 466 431 405.5 c 128,-1,52
 431 345 431 345 464.5 279 c 128,-1,53
 498 213 498 213 552 166.5 c 0,54,55
 664.064516129 70 664.064516129 70 811 70 c 0,56,57
 1268.92857143 70 1268.92857143 70 1363 509 c 2,58,-1
 1485 1081 l 1,59,60
 1501 1151 1501 1151 1501 1207 c 0,61,62
 1501 1370 1501 1370 1343 1370 c 2,63,-1
 1315 1370 l 2,64,65
 1294 1370 1294 1370 1294 1385 c 2,66,-1
 1294 1395 l 2,67,68
 1294 1410 1294 1410 1313 1410 c 2,69,-1
 1763 1410 l 2,0,1
EndSplineSet
EndChar

StartChar: V
Encoding: 86 86 56
Width: 1542
Flags: W
LayerCount: 2
Fore
SplineSet
406 -27 m 2,0,1
 383 -27 383 -27 383 -5 c 2,2,-1
 425 1253 l 1,3,4
 425 1339.40740741 425 1339.40740741 334 1363 c 0,5,6
 307 1370 307 1370 278.5 1370 c 128,-1,7
 250 1370 250 1370 250 1390 c 128,-1,8
 250 1410 250 1410 277 1410 c 2,9,-1
 803 1410 l 2,10,11
 824 1410 824 1410 824 1391 c 0,12,13
 824 1373.45 824 1373.45 789.5 1371.725 c 128,-1,14
 755 1370 755 1370 727 1370 c 128,-1,15
 699 1370 699 1370 679 1357 c 128,-1,16
 659 1344 659 1344 645 1323.5 c 0,17,18
 617.199683043 1282.79239303 617.199683043 1282.79239303 615 1230 c 0,19,20
 611 1111 611 1111 607.5 999 c 128,-1,21
 604 887 604 887 600 775 c 0,22,23
 589.454545455 479.727272727 589.454545455 479.727272727 584 312 c 2,24,-1
 583 281 l 2,25,26
 583 267 583 267 594.5 267 c 128,-1,27
 606 267 606 267 627 293 c 128,-1,28
 648 319 648 319 695.5 378 c 128,-1,29
 743 437 743 437 799 506 c 128,-1,30
 855 575 855 575 916.5 651.5 c 128,-1,31
 978 728 978 728 1041 805.5 c 0,32,33
 1282.11518325 1102.10994764 1282.11518325 1102.10994764 1308.55759162 1133.55497382 c 128,-1,34
 1335 1165 1335 1165 1350.5 1188 c 0,35,36
 1387 1242.16129032 1387 1242.16129032 1387 1274.58064516 c 128,-1,37
 1387 1307 1387 1307 1377.5 1326 c 128,-1,38
 1368 1345 1368 1345 1350.5 1354.5 c 0,39,40
 1321.94736842 1370 1321.94736842 1370 1256 1370 c 0,41,42
 1231 1370 1231 1370 1231 1390 c 128,-1,43
 1231 1410 1231 1410 1256 1410 c 2,44,-1
 1673 1410 l 2,45,46
 1690 1410 1690 1410 1696 1407 c 128,-1,47
 1702 1404 1702 1404 1702 1393 c 0,48,49
 1702 1370 1702 1370 1670 1370 c 128,-1,50
 1638 1370 1638 1370 1613 1357.5 c 128,-1,51
 1588 1345 1588 1345 1564 1325.5 c 128,-1,52
 1540 1306 1540 1306 1517 1282 c 128,-1,53
 1494 1258 1494 1258 1474.5 1234.5 c 128,-1,54
 1455 1211 1455 1211 1439.5 1190 c 128,-1,55
 1424 1169 1424 1169 1372.5 1105 c 128,-1,56
 1321 1041 1321 1041 1220.5 917 c 128,-1,57
 1120 793 1120 793 1016.5 666 c 0,58,59
 684.133802817 258.169014085 684.133802817 258.169014085 608.066901408 162.084507042 c 0,60,61
 524.875 57 524.875 57 500.4375 27 c 128,-1,62
 476 -3 476 -3 472 -8.5 c 128,-1,63
 468 -14 468 -14 463 -18 c 0,64,65
 451.75 -27 451.75 -27 432 -27 c 2,66,-1
 406 -27 l 2,0,1
EndSplineSet
EndChar

StartChar: W
Encoding: 87 87 57
Width: 2162
Flags: W
LayerCount: 2
Fore
SplineSet
329 -27 m 2,0,1
 309 -27 309 -27 309 -1 c 1,2,-1
 405 1232 l 1,3,-1
 410 1290 l 1,4,-1
 410 1297 l 2,5,6
 410 1370 410 1370 271 1370 c 0,7,8
 250 1370 250 1370 250 1387 c 128,-1,9
 250 1404 250 1404 256 1407 c 128,-1,10
 262 1410 262 1410 275 1410 c 2,11,-1
 751 1410 l 2,12,13
 765 1410 765 1410 768 1402 c 128,-1,14
 771 1394 771 1394 771 1392 c 0,15,16
 771 1370 771 1370 734.5 1370 c 128,-1,17
 698 1370 698 1370 667.5 1359 c 128,-1,18
 637 1348 637 1348 618.5 1330 c 0,19,20
 585.53258427 1297.92359551 585.53258427 1297.92359551 579.266292135 1221.46179775 c 128,-1,21
 573 1145 573 1145 564.5 1040.5 c 128,-1,22
 556 936 556 936 548 828 c 0,23,24
 528.769230769 568.384615385 528.769230769 568.384615385 520.384615385 472.692307692 c 128,-1,25
 512 377 512 377 511 353 c 128,-1,26
 510 329 510 329 508.5 297.5 c 128,-1,27
 507 266 507 266 520 266 c 0,28,29
 526 266 526 266 536 276 c 1,30,31
 706.264705882 505.046568627 706.264705882 505.046568627 819.632352941 654.023284314 c 0,32,33
 1002.33333333 894.111111111 1002.33333333 894.111111111 1180 1131 c 0,34,35
 1216 1180.26315789 1216 1180.26315789 1216 1219.63157895 c 128,-1,36
 1216 1259 1216 1259 1203 1285 c 128,-1,37
 1190 1311 1190 1311 1169 1330 c 0,38,39
 1124.78947368 1370 1124.78947368 1370 1071 1370 c 0,40,41
 1048 1370 1048 1370 1048 1390 c 128,-1,42
 1048 1410 1048 1410 1062 1410 c 2,43,-1
 1567 1410 l 2,44,45
 1583 1410 1583 1410 1583 1390 c 128,-1,46
 1583 1370 1583 1370 1561 1370 c 2,47,-1
 1543 1370 l 2,48,49
 1404.81481481 1370 1404.81481481 1370 1390 1290 c 1,50,51
 1383.83018868 1104.90566038 1383.83018868 1104.90566038 1367.41509434 757.452830189 c 128,-1,52
 1351 410 1351 410 1347 287 c 0,53,54
 1347 274 1347 274 1353 274 c 256,55,56
 1364.5 274 1364.5 274 1382 302 c 1,57,-1
 1413 346 l 2,58,59
 1497 466 1497 466 1585 585 c 128,-1,60
 1673 704 1673 704 1720 773.5 c 128,-1,61
 1767 843 1767 843 1787 870.5 c 128,-1,62
 1807 898 1807 898 1830 930 c 128,-1,63
 1853 962 1853 962 1877 995.5 c 128,-1,64
 1901 1029 1901 1029 1922 1057.5 c 128,-1,65
 1943 1086 1943 1086 1958.5 1107.5 c 128,-1,66
 1974 1129 1974 1129 1980 1136.5 c 128,-1,67
 1986 1144 1986 1144 1993.5 1155.5 c 128,-1,68
 2001 1167 2001 1167 2009.5 1179 c 0,69,70
 2029.33333333 1207 2029.33333333 1207 2043.16666667 1227.5 c 128,-1,71
 2057 1248 2057 1248 2057 1280 c 128,-1,72
 2057 1312 2057 1312 2027.5 1341 c 128,-1,73
 1998 1370 1998 1370 1953.5 1370 c 128,-1,74
 1909 1370 1909 1370 1909 1390 c 128,-1,75
 1909 1410 1909 1410 1929 1410 c 2,76,-1
 2297 1410 l 2,77,78
 2322 1410 2322 1410 2322 1390 c 128,-1,79
 2322 1370 2322 1370 2298 1370 c 0,80,81
 2229 1370 2229 1370 2208 1343 c 1,82,83
 2030.51639344 1099.33606557 2030.51639344 1099.33606557 1814.25819672 795.168032787 c 0,84,85
 1447.40166205 279.182825485 1447.40166205 279.182825485 1243 -3 c 0,86,87
 1224.53846154 -27 1224.53846154 -27 1201 -27 c 2,88,-1
 1178 -27 l 2,89,90
 1158 -27 1158 -27 1158 -1 c 1,91,-1
 1159 22 l 2,92,93
 1168 210 1168 210 1175 394 c 128,-1,94
 1182 578 1182 578 1187 696 c 128,-1,95
 1192 814 1192 814 1196 861.5 c 128,-1,96
 1200 909 1200 909 1200 937.5 c 2,97,-1
 1200 976.5 l 2,98,99
 1200 1019 1200 1019 1189 1019 c 128,-1,100
 1178 1019 1178 1019 1168.5 1006.5 c 128,-1,101
 1159 994 1159 994 1109.5 930.5 c 128,-1,102
 1060 867 1060 867 970.5 748 c 128,-1,103
 881 629 881 629 791.5 509 c 128,-1,104
 702 389 702 389 612.5 269 c 128,-1,105
 523 149 523 149 433 32 c 1,106,-1
 404 -7 l 2,107,108
 389 -27 389 -27 353 -27 c 2,109,-1
 329 -27 l 2,0,1
EndSplineSet
EndChar

StartChar: X
Encoding: 88 88 58
Width: 1542
Flags: W
LayerCount: 2
Fore
SplineSet
538 40 m 2,0,1
 556 40 556 40 556 31 c 2,2,-1
 556 13 l 2,3,4
 556 0 556 0 540 0 c 2,5,-1
 33 0 l 2,6,7
 20 0 20 0 20 12 c 2,8,-1
 20 27 l 2,9,10
 20 40 20 40 34 40 c 2,11,-1
 69 40 l 2,12,13
 166.333333333 40 166.333333333 40 291 172 c 1,14,-1
 800 718 l 2,15,16
 810 728 810 728 810 734 c 128,-1,17
 810 740 810 740 806 747 c 2,18,-1
 528 1274 l 2,19,20
 501.176470588 1325.41176471 501.176470588 1325.41176471 469.588235294 1341.20588235 c 0,21,22
 412 1370 412 1370 309 1370 c 2,23,-1
 290 1370 l 2,24,25
 281 1370 281 1370 277.5 1372 c 128,-1,26
 274 1374 274 1374 274 1385 c 2,27,-1
 274 1397 l 2,28,29
 274 1411 274 1411 289 1411 c 2,30,-1
 885 1410 l 2,31,32
 907 1410 907 1410 907 1399 c 2,33,-1
 907 1384 l 2,34,35
 907 1373 907 1373 903 1371.5 c 128,-1,36
 899 1370 899 1370 886 1370 c 2,37,-1
 794 1370 l 2,38,39
 768 1370 768 1370 746.5 1350.5 c 128,-1,40
 725 1331 725 1331 725 1312 c 0,41,42
 725 1282 725 1282 744 1243.5 c 128,-1,43
 763 1205 763 1205 796 1145 c 128,-1,44
 829 1085 829 1085 845 1052.5 c 128,-1,45
 861 1020 861 1020 868 1006 c 128,-1,46
 875 992 875 992 884 975 c 0,47,48
 909.714285714 926.428571429 909.714285714 926.428571429 917.357142857 914.714285714 c 128,-1,49
 925 903 925 903 931 892.5 c 128,-1,50
 937 882 937 882 939 881 c 1,51,52
 945 881 945 881 948 885 c 128,-1,53
 951 889 951 889 973 911.5 c 128,-1,54
 995 934 995 934 1035.5 976.5 c 128,-1,55
 1076 1019 1076 1019 1113.5 1058 c 128,-1,56
 1151 1097 1151 1097 1181.5 1128.5 c 128,-1,57
 1212 1160 1212 1160 1233.5 1183 c 0,58,59
 1298 1252 1298 1252 1298 1294 c 128,-1,60
 1298 1336 1298 1336 1275.5 1353 c 128,-1,61
 1253 1370 1253 1370 1222 1370 c 2,62,-1
 1157 1370 l 2,63,64
 1139 1370 1139 1370 1139 1383 c 2,65,-1
 1139 1399 l 2,66,67
 1139 1410 1139 1410 1156 1410 c 2,68,-1
 1653 1410 l 2,69,70
 1667 1410 1667 1410 1667 1398 c 2,71,-1
 1667 1384 l 2,72,73
 1667 1370 1667 1370 1634.5 1370 c 128,-1,74
 1602 1370 1602 1370 1581.5 1366.5 c 128,-1,75
 1561 1363 1561 1363 1542 1355.5 c 0,76,77
 1512.68571429 1343.92857143 1512.68571429 1343.92857143 1460 1311 c 1,78,79
 1446 1296 1446 1296 1417 1266.5 c 128,-1,80
 1388 1237 1388 1237 1350.5 1198.5 c 128,-1,81
 1313 1160 1313 1160 1269.5 1115 c 128,-1,82
 1226 1070 1226 1070 1182 1024 c 0,83,84
 1008.45535714 842.566964286 1008.45535714 842.566964286 997.727678571 825.283482143 c 128,-1,85
 987 808 987 808 987 800 c 0,86,87
 987 768.692307692 987 768.692307692 1051.5 664.5 c 0,88,89
 1058 654 1058 654 1083.5 604.5 c 0,90,91
 1267.17391304 247.956521739 1267.17391304 247.956521739 1301.08695652 194.47826087 c 128,-1,92
 1335 141 1335 141 1359.5 115 c 128,-1,93
 1384 89 1384 89 1402 80 c 128,-1,94
 1420 71 1420 71 1439 64 c 128,-1,95
 1458 57 1458 57 1477.5 52 c 0,96,97
 1524 40.0769230769 1524 40.0769230769 1524 28 c 2,98,-1
 1524 10 l 2,99,100
 1524 0 1524 0 1511 0 c 2,101,-1
 965 0 l 2,102,103
 952 0 952 0 952 8 c 2,104,-1
 952 21 l 2,105,106
 952 40 952 40 966 40 c 2,107,-1
 1005 40 l 2,108,109
 1042.44444444 40 1042.44444444 40 1068.72222222 61.5 c 0,110,111
 1117 101 1117 101 1117 132 c 128,-1,112
 1117 163 1117 163 1107 182 c 0,113,114
 1053 284 1053 284 999.5 383.5 c 128,-1,115
 946 483 946 483 916.5 540 c 128,-1,116
 887 597 887 597 881 607 c 128,-1,117
 875 617 875 617 868.5 625.5 c 0,118,119
 852.823529412 646 852.823529412 646 842.411764706 646 c 128,-1,120
 832 646 832 646 783.5 593 c 0,121,122
 496.230769231 279.076923077 496.230769231 279.076923077 466.115384615 251.038461538 c 128,-1,123
 436 223 436 223 424.5 208 c 0,124,125
 363.069425901 127.873164219 363.069425901 127.873164219 431 69 c 0,126,127
 464.461538462 40 464.461538462 40 500 40 c 2,128,-1
 538 40 l 2,0,1
EndSplineSet
EndChar

StartChar: Y
Encoding: 89 89 59
Width: 1484
Flags: W
LayerCount: 2
Fore
SplineSet
395 0 m 2,0,1
 375 0 375 0 375 15 c 2,2,-1
 375 27 l 2,3,4
 375 40 375 40 395 40 c 2,5,-1
 455 40 l 2,6,7
 525.655172414 40 525.655172414 40 581 93.5 c 0,8,9
 620.84939759 132.021084337 620.84939759 132.021084337 630.424698795 184.010542169 c 128,-1,10
 640 236 640 236 650 283.5 c 128,-1,11
 660 331 660 331 668.5 372 c 0,12,13
 685.954198473 456.190839695 685.954198473 456.190839695 700 551 c 1,14,15
 700 567 700 567 694.5 578 c 128,-1,16
 689 589 689 589 676.5 618 c 128,-1,17
 664 647 664 647 642 698.5 c 128,-1,18
 620 750 620 750 589 821.5 c 128,-1,19
 558 893 558 893 515.5 991.5 c 128,-1,20
 473 1090 473 1090 436.5 1173.5 c 128,-1,21
 400 1257 400 1257 385 1282.5 c 128,-1,22
 370 1308 370 1308 352.5 1327 c 0,23,24
 313.815789474 1369 313.815789474 1369 282.407894737 1369 c 128,-1,25
 251 1369 251 1369 251 1382 c 2,26,-1
 251 1395 l 2,27,28
 251 1406.28571429 251 1406.28571429 270 1409 c 1,29,-1
 711 1409 l 2,30,31
 730 1409 730 1409 730 1395 c 2,32,-1
 730 1382 l 2,33,34
 730 1369 730 1369 714 1369 c 2,35,-1
 676 1369 l 2,36,37
 626.733333333 1369 626.733333333 1369 603.5 1328 c 0,38,39
 595 1313 595 1313 595 1290 c 128,-1,40
 595 1267 595 1267 618 1215.5 c 128,-1,41
 641 1164 641 1164 667.5 1103 c 128,-1,42
 694 1042 694 1042 720 980.5 c 0,43,44
 787.483146067 820.876404494 787.483146067 820.876404494 813.241573034 762.938202247 c 128,-1,45
 839 705 839 705 842 697.5 c 128,-1,46
 845 690 845 690 848.5 683 c 0,47,48
 857 666 857 666 866 666 c 0,49,50
 881.285714286 666 881.285714286 666 902.142857143 692 c 128,-1,51
 923 718 923 718 941.5 739.5 c 128,-1,52
 960 761 960 761 976 780 c 128,-1,53
 992 799 992 799 1003 812 c 128,-1,54
 1014 825 1014 825 1060 879 c 128,-1,55
 1106 933 1106 933 1184.5 1028.5 c 128,-1,56
 1263 1124 1263 1124 1307.5 1175.5 c 128,-1,57
 1352 1227 1352 1227 1359 1247 c 128,-1,58
 1366 1267 1366 1267 1366 1294 c 128,-1,59
 1366 1321 1366 1321 1346 1345 c 128,-1,60
 1326 1369 1326 1369 1286 1369 c 2,61,-1
 1249 1369 l 2,62,63
 1229 1369 1229 1369 1229 1383 c 2,64,-1
 1229 1396 l 2,65,66
 1229 1410 1229 1410 1249 1410 c 2,67,-1
 1619 1410 l 2,68,69
 1626 1410 1626 1410 1630 1405.5 c 128,-1,70
 1634 1401 1634 1401 1634 1398 c 2,71,-1
 1634 1385 l 2,72,73
 1634 1374 1634 1374 1628 1371 c 128,-1,74
 1622 1368 1622 1368 1612.5 1366 c 0,75,76
 1576.69230769 1358.46153846 1576.69230769 1358.46153846 1560.34615385 1347.73076923 c 128,-1,77
 1544 1337 1544 1337 1524 1317.5 c 128,-1,78
 1504 1298 1504 1298 1483.5 1276 c 0,79,80
 1454.90123457 1245.30864198 1454.90123457 1245.30864198 1367.45061728 1139.65432099 c 128,-1,81
 1280 1034 1280 1034 1144 874 c 128,-1,82
 1008 714 1008 714 882 563 c 1,83,84
 864 471 864 471 844.5 382.5 c 0,85,86
 802 189.615384615 802 189.615384615 802 147.307692308 c 128,-1,87
 802 105 802 105 846 72.5 c 128,-1,88
 890 40 890 40 971 40 c 2,89,-1
 1018 40 l 2,90,91
 1036 40 1036 40 1036 27 c 2,92,-1
 1036 13 l 2,93,94
 1036 0 1036 0 1020 0 c 2,95,-1
 395 0 l 2,0,1
EndSplineSet
EndChar

StartChar: Z
Encoding: 90 90 60
Width: 1479
Flags: W
LayerCount: 2
Fore
SplineSet
47 0 m 2,0,1
 20 0 20 0 20 28 c 128,-1,2
 20 56 20 56 30.5 70 c 128,-1,3
 41 84 41 84 54 97 c 2,4,-1
 1151 1248 l 1,5,6
 1221 1318 1221 1318 1221 1336.5 c 128,-1,7
 1221 1355 1221 1355 1184 1355 c 2,8,-1
 767 1355 l 2,9,10
 657.916666667 1355 657.916666667 1355 601.958333333 1329.5 c 0,11,12
 505.713393206 1285.64154627 505.713393206 1285.64154627 444 1195 c 0,13,14
 432.134328358 1178.3880597 432.134328358 1178.3880597 403.067164179 1117.19402985 c 128,-1,15
 374 1056 374 1056 367 1045.5 c 0,16,17
 353.333333333 1025 353.333333333 1025 340.166666667 1025 c 0,18,19
 312 1025 312 1025 312 1038 c 1,20,21
 313 1042 313 1042 315 1051.5 c 128,-1,22
 317 1061 317 1061 321.5 1081 c 128,-1,23
 326 1101 326 1101 334 1138 c 128,-1,24
 342 1175 342 1175 354.5 1230.5 c 128,-1,25
 367 1286 367 1286 377.5 1333 c 128,-1,26
 388 1380 388 1380 391 1387.5 c 128,-1,27
 394 1395 394 1395 401 1400 c 0,28,29
 413.6 1409 413.6 1409 459 1409 c 2,30,-1
 1457 1409 l 2,31,32
 1489 1409 1489 1409 1489 1378 c 0,33,34
 1489 1352 1489 1352 1475 1338 c 2,35,-1
 391 199 l 1,36,37
 307 115 307 115 307 95.75 c 128,-1,38
 307 76.5 307 76.5 319 75 c 1,39,-1
 943 75 l 2,40,41
 1172.46666667 75 1172.46666667 75 1317 346 c 1,42,43
 1324 357 1324 357 1329.5 369 c 128,-1,44
 1335 381 1335 381 1342 391 c 0,45,46
 1358.1 414 1358.1 414 1380.55 414 c 128,-1,47
 1403 414 1403 414 1403 397 c 0,48,49
 1403 390 1403 390 1400 380 c 2,50,-1
 1303 28 l 2,51,52
 1294.38461538 2.84217094304e-13 1294.38461538 2.84217094304e-13 1266 0 c 2,53,-1
 47 0 l 2,0,1
EndSplineSet
EndChar

StartChar: bracketleft
Encoding: 91 91 61
Width: 806
Flags: W
LayerCount: 2
Fore
SplineSet
1056 1731 m 1,0,-1
 1039 1645 l 1,1,-1
 768 1645 l 2,2,3
 695 1645 695 1645 679 1572 c 0,4,5
 552.363636364 973.190909091 552.363636364 973.190909091 487.181818182 670.095454545 c 128,-1,6
 422 367 422 367 395 240 c 128,-1,7
 368 113 368 113 350.5 30 c 128,-1,8
 333 -53 333 -53 323 -99 c 128,-1,9
 313 -145 313 -145 309 -167.5 c 0,10,11
 303 -201.25 303 -201.25 303 -207 c 0,12,13
 303 -256 303 -256 364 -256 c 2,14,-1
 658 -256 l 1,15,-1
 640 -342 l 1,16,-1
 120 -342 l 1,17,-1
 559 1731 l 1,18,-1
 1056 1731 l 1,0,-1
EndSplineSet
EndChar

StartChar: backslash
Encoding: 92 92 62
Width: 698
Flags: W
LayerCount: 2
Fore
SplineSet
598 -27 m 1,0,-1
 468 -27 l 1,1,-1
 70 1452 l 1,2,-1
 200 1452 l 1,3,-1
 598 -27 l 1,0,-1
EndSplineSet
EndChar

StartChar: bracketright
Encoding: 93 93 63
Width: 784
Flags: W
LayerCount: 2
Fore
SplineSet
834 1731 m 1,0,-1
 394 -342 l 1,1,-1
 -125 -342 l 1,2,-1
 -107 -256 l 1,3,-1
 188 -256 l 2,4,5
 259.631578947 -256 259.631578947 -256 275 -183 c 2,6,-1
 649 1572 l 2,7,8
 652 1587 652 1587 652 1598 c 0,9,10
 652 1645 652 1645 593 1645 c 2,11,-1
 319 1645 l 1,12,-1
 336 1731 l 1,13,-1
 834 1731 l 1,0,-1
EndSplineSet
EndChar

StartChar: asciicircum
Encoding: 94 94 64
Width: 886
Flags: W
LayerCount: 2
Fore
SplineSet
568 1186 m 1,0,-1
 263 679 l 1,1,-1
 115 679 l 1,2,-1
 536 1379 l 1,3,-1
 599 1379 l 1,4,-1
 1011 679 l 1,5,-1
 863 679 l 1,6,-1
 568 1186 l 1,0,-1
EndSplineSet
EndChar

StartChar: underscore
Encoding: 95 95 65
Width: 1014
Flags: W
LayerCount: 2
Fore
SplineSet
-16 -205 m 1,0,-1
 1030 -205 l 1,1,-1
 1030 -320 l 1,2,-1
 -16 -320 l 1,3,-1
 -16 -205 l 1,0,-1
EndSplineSet
EndChar

StartChar: grave
Encoding: 96 96 66
Width: 700
Flags: W
LayerCount: 2
Fore
SplineSet
478 1067 m 2,0,1
 474 1063 474 1063 471 1063 c 128,-1,2
 468 1063 468 1063 464 1067 c 2,3,-1
 195 1284 l 1,4,5
 140 1330.75 140 1330.75 140 1368.875 c 128,-1,6
 140 1407 140 1407 160.5 1429.5 c 128,-1,7
 181 1452 181 1452 205.5 1452 c 0,8,9
 251.192307692 1452 251.192307692 1452 287 1403 c 2,10,-1
 500 1108 l 2,11,12
 504 1104 504 1104 504 1102 c 256,13,14
 504 1100 504 1100 500 1096 c 2,15,-1
 478 1067 l 2,0,1
EndSplineSet
EndChar

StartChar: a
Encoding: 97 97 67
Width: 918
Flags: W
LayerCount: 2
Fore
SplineSet
584 186.5 m 128,-1,1
 588 203 588 203 589 220 c 128,-1,2
 590 237 590 237 582 237 c 0,3,4
 570.933333333 237 570.933333333 237 532.966666667 203.5 c 128,-1,5
 495 170 495 170 463 142 c 128,-1,6
 431 114 431 114 395.5 84 c 128,-1,7
 360 54 360 54 326.5 29.5 c 0,8,9
 249.244897959 -27 249.244897959 -27 213.12244898 -27 c 128,-1,10
 177 -27 177 -27 154.5 3 c 128,-1,11
 132 33 132 33 120 74.5 c 0,12,13
 100 143.666666667 100 143.666666667 100 209.333333333 c 0,14,15
 100 416.653061224 100 416.653061224 258.5 607.5 c 0,16,17
 408.545257687 788.166738848 408.545257687 788.166738848 629 863 c 0,18,19
 738 900 738 900 851 900 c 0,20,21
 868 900 868 900 868 872 c 1,22,-1
 717 180 l 2,23,24
 716 172 716 172 715 164.5 c 0,25,26
 713 149.5 713 149.5 713 137.25 c 128,-1,27
 713 125 713 125 721 113 c 128,-1,28
 729 101 729 101 738.5 101 c 128,-1,29
 748 101 748 101 762.5 112.5 c 128,-1,30
 777 124 777 124 792.5 137.5 c 0,31,32
 834.407407407 174 834.407407407 174 844 174 c 0,33,34
 860 174 860 174 860 156 c 0,35,36
 860 137.293103448 860 137.293103448 752 53.5 c 0,37,38
 643.088888889 -31 643.088888889 -31 615 -31 c 0,39,40
 584.2 -31 584.2 -31 572.5 9.5 c 0,41,42
 566 32 566 32 566 59.5 c 128,-1,43
 566 87 566 87 569 110 c 128,-1,44
 572 133 572 133 576 151.5 c 128,-1,0
 580 170 580 170 584 186.5 c 128,-1,1
707 770 m 1,45,46
 707 786 707 786 669 786 c 128,-1,47
 631 786 631 786 580 772.5 c 128,-1,48
 529 759 529 759 482.5 734.5 c 0,49,50
 308.852083741 643.008087132 308.852083741 643.008087132 260 425.5 c 0,51,52
 239 332 239 332 236.5 275 c 128,-1,53
 234 218 234 218 236 191 c 128,-1,54
 238 164 238 164 246.5 140 c 0,55,56
 266.333333333 84 266.333333333 84 320 84 c 1,57,58
 391.902439024 121.040650407 391.902439024 121.040650407 475.451219512 196.020325203 c 128,-1,59
 559 271 559 271 608 315 c 1,60,-1
 707 770 l 1,45,46
EndSplineSet
EndChar

StartChar: b
Encoding: 98 98 68
Width: 895
Flags: W
LayerCount: 2
Fore
SplineSet
241 1492 m 1,0,1
 522.842105263 1645 522.842105263 1645 544.421052632 1645 c 128,-1,2
 566 1645 566 1645 566 1621.5 c 128,-1,3
 566 1598 566 1598 550.5 1528 c 128,-1,4
 535 1458 535 1458 513.5 1347 c 128,-1,5
 492 1236 492 1236 471 1129.5 c 0,6,7
 422.943820225 885.786516854 422.943820225 885.786516854 396.971910112 787.893258427 c 128,-1,8
 371 690 371 690 371 686 c 0,9,10
 371 670 371 670 387 670 c 0,11,12
 399.133333333 670 399.133333333 670 435.066666667 703 c 128,-1,13
 471 736 471 736 501.5 763 c 128,-1,14
 532 790 532 790 566 818.5 c 128,-1,15
 600 847 600 847 632 871 c 0,16,17
 704 925 704 925 741 925 c 128,-1,18
 778 925 778 925 801.5 895 c 128,-1,19
 825 865 825 865 838 823.5 c 0,20,21
 860 753.269230769 860 753.269230769 860 669.634615385 c 128,-1,22
 860 586 860 586 845.5 502.5 c 128,-1,23
 831 419 831 419 802.5 341.5 c 128,-1,24
 774 264 774 264 732 197 c 128,-1,25
 690 130 690 130 635.5 80 c 0,26,27
 518.87 -27 518.87 -27 366 -27 c 0,28,29
 297.517241379 -27 297.517241379 -27 247.25862069 -0.5 c 128,-1,30
 197 26 197 26 175 49 c 0,31,32
 125 101.272727273 125 101.272727273 125 177 c 0,33,34
 125 200 125 200 131 227 c 2,35,-1
 392 1457 l 2,36,37
 394 1465 394 1465 394 1471.5 c 2,38,-1
 394 1483 l 2,39,40
 394 1508 394 1508 372 1508 c 0,41,42
 353.157894737 1508 353.157894737 1508 321.578947368 1493 c 128,-1,43
 290 1478 290 1478 254 1461 c 1,44,-1
 241 1492 l 1,0,1
712 559.5 m 0,45,46
 719 613 719 613 720 646.5 c 128,-1,47
 721 680 721 680 719 707 c 128,-1,48
 717 734 717 734 708.5 758 c 0,49,50
 688.666666667 814 688.666666667 814 635 814 c 1,51,52
 562.234042553 776.51450677 562.234042553 776.51450677 480.617021277 701.257253385 c 128,-1,53
 399 626 399 626 350 583 c 1,54,-1
 261 168 l 2,55,56
 257 152 257 152 257 134 c 128,-1,57
 257 116 257 116 262.5 95 c 128,-1,58
 268 74 268 74 281.5 56 c 0,59,60
 313 14 313 14 379 14 c 0,61,62
 436.654545455 14 436.654545455 14 481.327272727 53 c 0,63,64
 564.289017341 125.426919901 564.289017341 125.426919901 629 253 c 0,65,66
 687.101265823 369.202531646 687.101265823 369.202531646 712 559.5 c 0,45,46
EndSplineSet
EndChar

StartChar: c
Encoding: 99 99 69
Width: 680
Flags: W
LayerCount: 2
Fore
SplineSet
656.5 882.5 m 128,-1,1
 680 863 680 863 680 803 c 128,-1,2
 680 743 680 743 645 743 c 0,3,4
 616.125 743 616.125 743 579.5625 765.5 c 128,-1,5
 543 788 543 788 523.5 798.5 c 128,-1,6
 504 809 504 809 473 809 c 128,-1,7
 442 809 442 809 408 775.5 c 128,-1,8
 374 742 374 742 345.5 689.5 c 128,-1,9
 317 637 317 637 295.5 572 c 128,-1,10
 274 507 274 507 259.5 443 c 0,11,12
 230 312.793103448 230 312.793103448 230 256.896551724 c 128,-1,13
 230 201 230 201 237 168.5 c 128,-1,14
 244 136 244 136 259.5 110.5 c 0,15,16
 293.843137255 54 293.843137255 54 363 54 c 0,17,18
 417.684210526 54 417.684210526 54 464.842105263 86 c 128,-1,19
 512 118 512 118 539 139.5 c 128,-1,20
 566 161 566 161 592 178 c 1,21,-1
 613 152 l 1,22,23
 521.1875 60.1875 521.1875 60.1875 473.09375 31.09375 c 0,24,25
 377.06122449 -27 377.06122449 -27 276 -27 c 0,26,27
 77 -27 77 -27 77 192 c 0,28,29
 77 485.6 77 485.6 247 701.5 c 0,30,31
 347.323974082 828.911447084 347.323974082 828.911447084 468 878 c 0,32,33
 527 902 527 902 580 902 c 128,-1,0
 633 902 633 902 656.5 882.5 c 128,-1,1
EndSplineSet
EndChar

StartChar: d
Encoding: 100 100 70
Width: 984
Flags: W
LayerCount: 2
Fore
SplineSet
733 1492 m 1,0,1
 1014.84210526 1645 1014.84210526 1645 1034.42105263 1645 c 128,-1,2
 1054 1645 1054 1645 1054 1612 c 0,3,4
 1054 1601 1054 1601 1052 1581 c 1,5,-1
 747 180 l 2,6,7
 746 172 746 172 745 164.5 c 0,8,9
 743 149.5 743 149.5 743 137.25 c 128,-1,10
 743 125 743 125 751 113 c 128,-1,11
 759 101 759 101 768.5 101 c 128,-1,12
 778 101 778 101 792.5 112.5 c 128,-1,13
 807 124 807 124 822.5 137.5 c 0,14,15
 864.407407407 174 864.407407407 174 874 174 c 0,16,17
 890 174 890 174 890 156 c 0,18,19
 890 137.293103448 890 137.293103448 782 53.5 c 0,20,21
 673.088888889 -31 673.088888889 -31 645 -31 c 0,22,23
 614.2 -31 614.2 -31 602.5 9.5 c 0,24,25
 596 32 596 32 596 59.5 c 128,-1,26
 596 87 596 87 599 110 c 128,-1,27
 602 133 602 133 606 151.5 c 128,-1,28
 610 170 610 170 614 186.5 c 128,-1,29
 618 203 618 203 619 220 c 128,-1,30
 620 237 620 237 612 237 c 0,31,32
 600.933333333 237 600.933333333 237 562.966666667 203.5 c 128,-1,33
 525 170 525 170 493 142 c 128,-1,34
 461 114 461 114 425.5 84 c 128,-1,35
 390 54 390 54 356.5 29.5 c 0,36,37
 279.244897959 -27 279.244897959 -27 243.12244898 -27 c 128,-1,38
 207 -27 207 -27 184.5 3 c 128,-1,39
 162 33 162 33 150 74.5 c 0,40,41
 130 143.666666667 130 143.666666667 130 215.333333333 c 128,-1,42
 130 287 130 287 148.5 359.5 c 128,-1,43
 167 432 167 432 200.5 506.5 c 128,-1,44
 234 581 234 581 280.5 651.5 c 128,-1,45
 327 722 327 722 384 777 c 0,46,47
 510.436363636 899 510.436363636 899 641 899 c 0,48,49
 674.9375 899 674.9375 899 693.96875 884.5 c 0,50,51
 730.0625 857 730.0625 857 743.03125 857 c 128,-1,52
 756 857 756 857 758 868 c 2,53,-1
 882 1457 l 2,54,55
 886 1473 886 1473 886 1483 c 0,56,57
 886 1508 886 1508 864 1508 c 0,58,59
 845.157894737 1508 845.157894737 1508 813.578947368 1493 c 128,-1,60
 782 1478 782 1478 746 1461 c 1,61,-1
 733 1492 l 1,0,1
361 599 m 0,62,63
 253.183973835 364.01635323 253.183973835 364.01635323 266 191 c 0,64,65
 270.548009368 129.601873536 270.548009368 129.601873536 294.774004684 106.800936768 c 128,-1,66
 319 84 319 84 350 84 c 1,67,68
 421.902439024 121.040650407 421.902439024 121.040650407 505.451219512 196.020325203 c 128,-1,69
 589 271 589 271 638 315 c 1,70,-1
 723 700 l 2,71,72
 726 716 726 716 726 728.5 c 128,-1,73
 726 741 726 741 717.5 760 c 128,-1,74
 709 779 709 779 693 796 c 0,75,76
 654.411764706 837 654.411764706 837 597 837 c 0,77,78
 541.333333333 837 541.333333333 837 499.666666667 799.5 c 0,79,80
 421.486682809 729.138014528 421.486682809 729.138014528 361 599 c 0,62,63
EndSplineSet
EndChar

StartChar: e
Encoding: 101 101 71
Width: 789
Flags: W
LayerCount: 2
Fore
SplineSet
432 54 m 0,0,1
 526.545454545 54 526.545454545 54 664 138 c 1,2,-1
 678 113 l 1,3,4
 573.098265896 32.3063583815 573.098265896 32.3063583815 440 -9 c 0,5,6
 382 -27 382 -27 321.5 -27 c 128,-1,7
 261 -27 261 -27 219 -1.5 c 128,-1,8
 177 24 177 24 150.5 67 c 0,9,10
 100 148.943396226 100 148.943396226 100 279 c 1,11,12
 119.895202952 501.163099631 119.895202952 501.163099631 260 690 c 0,13,14
 355.071917808 818.140410959 355.071917808 818.140410959 488.5 872.5 c 0,15,16
 556 900 556 900 610.5 900 c 128,-1,17
 665 900 665 900 695 890.5 c 128,-1,18
 725 881 725 881 748 862.5 c 0,19,20
 799 821.47826087 799 821.47826087 799 758.739130435 c 128,-1,21
 799 696 799 696 772.5 651 c 128,-1,22
 746 606 746 606 703 573 c 128,-1,23
 660 540 660 540 605 516 c 128,-1,24
 550 492 550 492 493.5 474 c 128,-1,25
 437 456 437 456 382.5 441.5 c 128,-1,26
 328 427 328 427 287 412 c 1,27,28
 255 337.333333333 255 337.333333333 255 259 c 256,29,30
 255 119.462686567 255 119.462686567 350.5 71 c 0,31,32
 384 54 384 54 432 54 c 0,0,1
301 472 m 1,33,34
 301 455 301 455 328 455 c 1,35,36
 478.512543253 498.785467128 478.512543253 498.785467128 543.756271626 544.392733564 c 128,-1,37
 609 590 609 590 642.5 640 c 128,-1,38
 676 690 676 690 676 760 c 0,39,40
 676 830.548387097 676 830.548387097 632.5 853 c 0,41,42
 617 861 617 861 584.5 861 c 128,-1,43
 552 861 552 861 515 841.5 c 128,-1,44
 478 822 478 822 448 789.5 c 128,-1,45
 418 757 418 757 394 716 c 128,-1,46
 370 675 370 675 352 631.5 c 0,47,48
 322.219512195 559.530487805 322.219512195 559.530487805 301 472 c 1,33,34
EndSplineSet
EndChar

StartChar: f
Encoding: 102 102 72
Width: 614
Flags: W
LayerCount: 2
Fore
SplineSet
308 823 m 0,0,1
 308 846 308 846 271 846 c 2,2,-1
 180 846 l 1,3,-1
 189 885 l 1,4,5
 327.741433022 888.651090343 327.741433022 888.651090343 337 928 c 0,6,7
 338 935 338 935 342 954 c 128,-1,8
 346 973 346 973 350.5 995 c 128,-1,9
 355 1017 355 1017 359 1037.5 c 128,-1,10
 363 1058 363 1058 368.5 1084.5 c 128,-1,11
 374 1111 374 1111 389 1170.5 c 128,-1,12
 404 1230 404 1230 429.5 1294 c 128,-1,13
 455 1358 455 1358 492 1421 c 128,-1,14
 529 1484 529 1484 583 1534 c 0,15,16
 702.88 1645 702.88 1645 877 1645 c 0,17,18
 933.5 1645 933.5 1645 962.25 1622 c 0,19,20
 1009 1584.6 1009 1584.6 1009 1556.8 c 0,21,22
 1009 1491 1009 1491 957 1491 c 0,23,24
 921.4375 1491 921.4375 1491 882.71875 1520.5 c 128,-1,25
 844 1550 844 1550 822 1563.5 c 128,-1,26
 800 1577 800 1577 765 1577 c 128,-1,27
 730 1577 730 1577 700.5 1566 c 128,-1,28
 671 1555 671 1555 650.5 1536 c 0,29,30
 619.809248555 1507.55491329 619.809248555 1507.55491329 590 1438 c 1,31,32
 547.142857143 1313.71428571 547.142857143 1313.71428571 522.071428571 1186.85714286 c 128,-1,33
 497 1060 497 1060 493 1041 c 128,-1,34
 489 1022 489 1022 485 1000.5 c 0,35,36
 474 941.375 474 941.375 474 934 c 0,37,38
 474 900 474 900 505 900 c 2,39,-1
 633 900 l 1,40,-1
 621 846 l 1,41,-1
 478 846 l 2,42,43
 461 846 461 846 455.5 829.5 c 128,-1,44
 450 813 450 813 446 793 c 2,45,-1
 265 -61 l 2,46,47
 226.176120587 -246.491868306 226.176120587 -246.491868306 112.5 -415 c 0,48,49
 20.9500812035 -550.709291392 20.9500812035 -550.709291392 -106 -608.5 c 0,50,51
 -173 -639 -173 -639 -228 -639 c 128,-1,52
 -283 -639 -283 -639 -307.5 -630 c 128,-1,53
 -332 -621 -332 -621 -349.5 -607 c 0,54,55
 -385 -578.6 -385 -578.6 -385 -550.8 c 0,56,57
 -385 -485 -385 -485 -333 -485 c 0,58,59
 -297.34375 -485 -297.34375 -485 -252.171875 -514.5 c 128,-1,60
 -207 -544 -207 -544 -181.5 -557.5 c 128,-1,61
 -156 -571 -156 -571 -128.5 -571 c 128,-1,62
 -101 -571 -101 -571 -76.5 -557 c 128,-1,63
 -52 -543 -52 -543 -31.5 -521 c 0,64,65
 6.67776096823 -480.028744327 6.67776096823 -480.028744327 34 -414 c 1,66,67
 92.5714285714 -244.142857143 92.5714285714 -244.142857143 129 -62 c 2,68,-1
 307 815 l 2,69,70
 308 818 308 818 308 823 c 0,0,1
EndSplineSet
EndChar

StartChar: g
Encoding: 103 103 73
Width: 914
Flags: W
LayerCount: 2
Fore
SplineSet
899 821 m 2,0,1
 899 806 899 806 881 806 c 2,2,-1
 763 806 l 1,3,4
 767 789 767 789 773.5 768.5 c 128,-1,5
 780 748 780 748 786 722.5 c 0,6,7
 800 663 800 663 800 595.5 c 128,-1,8
 800 528 800 528 779.5 469 c 128,-1,9
 759 410 759 410 725 360 c 0,10,11
 668.966480447 277.597765363 668.966480447 277.597765363 555 185 c 0,12,13
 516.288461538 153.326923077 516.288461538 153.326923077 438.644230769 119.163461538 c 128,-1,14
 361 85 361 85 335 69 c 128,-1,15
 309 53 309 53 309 24.5 c 128,-1,16
 309 -4 309 -4 339 -39 c 128,-1,17
 369 -74 369 -74 414.5 -108 c 128,-1,18
 460 -142 460 -142 512.5 -177 c 128,-1,19
 565 -212 565 -212 610.5 -250 c 0,20,21
 716 -338.10989011 716 -338.10989011 716 -421 c 0,22,23
 716 -565.568421053 716 -565.568421053 467.5 -620.5 c 0,24,25
 379.285714286 -640 379.285714286 -640 287.142857143 -640 c 128,-1,26
 195 -640 195 -640 113 -633 c 128,-1,27
 31 -626 31 -626 -30.5 -606.5 c 0,28,29
 -165 -563.853658537 -165 -563.853658537 -165 -458 c 0,30,31
 -165 -376.5 -165 -376.5 -39 -289 c 0,32,33
 29.1818181818 -241.651515152 29.1818181818 -241.651515152 86.0909090909 -210.825757576 c 128,-1,34
 143 -180 143 -180 162.5 -168 c 0,35,36
 218.4 -133.6 218.4 -133.6 227 -125 c 1,37,38
 222 -106 222 -106 214 -86.5 c 128,-1,39
 206 -67 206 -67 206 -46 c 128,-1,40
 206 -25 206 -25 213 -9 c 128,-1,41
 220 7 220 7 231.5 21 c 128,-1,42
 243 35 243 35 258 49.5 c 0,43,44
 295 85.2666666667 295 85.2666666667 295 91.1333333333 c 128,-1,45
 295 97 295 97 284.5 108.5 c 128,-1,46
 274 120 274 120 259.5 133.5 c 0,47,48
 230.5 160.5 230.5 160.5 210.75 181.75 c 128,-1,49
 191 203 191 203 175.5 233 c 128,-1,50
 160 263 160 263 150.5 297 c 0,51,52
 132 363.210526316 132 363.210526316 132 426.605263158 c 128,-1,53
 132 490 132 490 154 546 c 128,-1,54
 176 602 176 602 214 654 c 128,-1,55
 252 706 252 706 301.5 751 c 128,-1,56
 351 796 351 796 407 829 c 0,57,58
 527.484848485 900 527.484848485 900 636 900 c 0,59,60
 856.142857143 900 856.142857143 900 893 878.5 c 0,61,62
 899 875 899 875 899 867 c 2,63,-1
 899 821 l 2,0,1
-23.5 -370.5 m 128,-1,65
 -41 -401 -41 -401 -41 -445 c 128,-1,66
 -41 -489 -41 -489 -16.5 -523.5 c 128,-1,67
 8 -558 8 -558 53.5 -577.5 c 0,68,69
 131.666666667 -611 131.666666667 -611 307 -611 c 0,70,71
 452.470588235 -611 452.470588235 -611 548 -553 c 0,72,73
 611 -514.75 611 -514.75 611 -457 c 0,74,75
 611 -391.383561644 611 -391.383561644 480.5 -302 c 0,76,77
 444 -277 444 -277 406 -252.5 c 1,78,-1
 258 -152 l 1,79,80
 242 -164 242 -164 213.5 -180 c 128,-1,81
 185 -196 185 -196 152 -216.5 c 128,-1,82
 119 -237 119 -237 84.5 -261 c 128,-1,83
 50 -285 50 -285 22 -312.5 c 128,-1,64
 -6 -340 -6 -340 -23.5 -370.5 c 128,-1,65
670 644 m 0,84,85
 670 851 670 851 535 851 c 0,86,87
 460.613333333 851 460.613333333 851 396.5 769.5 c 0,88,89
 310.643328161 660.360162917 310.643328161 660.360162917 281.5 473.5 c 0,90,91
 273 419 273 419 273 378.5 c 128,-1,92
 273 338 273 338 279.5 300.5 c 128,-1,93
 286 263 286 263 302 231.5 c 0,94,95
 339.333333333 158 339.333333333 158 412 158 c 0,96,97
 459 158 459 158 510.5 210.5 c 128,-1,98
 562 263 562 263 589.5 312 c 128,-1,99
 617 361 617 361 635 415 c 0,100,101
 670 520 670 520 670 644 c 0,84,85
EndSplineSet
EndChar

StartChar: h
Encoding: 104 104 74
Width: 982
Flags: W
LayerCount: 2
Fore
SplineSet
100 0 m 0,0,1
 100 12.6666666667 100 12.6666666667 105 34.3333333333 c 0,2,3
 114.2 74.2 114.2 74.2 116 85 c 2,4,-1
 408 1457 l 2,5,6
 412 1473 412 1473 412 1483 c 0,7,8
 412 1508 412 1508 390 1508 c 0,9,10
 373.157894737 1508 373.157894737 1508 341.578947368 1493 c 128,-1,11
 310 1478 310 1478 274 1461 c 1,12,-1
 261 1492 l 1,13,14
 542.842105263 1645 542.842105263 1645 562.421052632 1645 c 128,-1,15
 582 1645 582 1645 582 1612 c 0,16,17
 582 1609 582 1609 576 1582 c 2,18,-1
 349 510 l 1,19,20
 349 500 349 500 357.5 500 c 0,21,22
 367.888888889 500 367.888888889 500 391.444444444 526.5 c 128,-1,23
 415 553 415 553 450 591.5 c 128,-1,24
 485 630 485 630 526.5 671.5 c 128,-1,25
 568 713 568 713 613 754 c 128,-1,26
 658 795 658 795 702.5 827.5 c 0,27,28
 801.769230769 900 801.769230769 900 862 900 c 0,29,30
 892 900 892 900 914.5 876.5 c 128,-1,31
 937 853 937 853 937 827 c 128,-1,32
 937 801 937 801 934 788 c 2,33,-1
 756 96 l 1,34,-1
 756 92 l 2,35,36
 756 70 756 70 781 70 c 0,37,38
 821.318181818 70 821.318181818 70 922.5 176 c 0,39,40
 933 187 933 187 938 192 c 1,41,-1
 957 173 l 1,42,43
 938.358208955 135.71641791 938.358208955 135.71641791 876.679104478 84.8582089552 c 128,-1,44
 815 34 815 34 786.5 15 c 0,45,46
 720.5 -29 720.5 -29 686.75 -29 c 128,-1,47
 653 -29 653 -29 630.5 -5 c 128,-1,48
 608 19 608 19 608 44.5 c 128,-1,49
 608 70 608 70 611 84 c 2,50,-1
 789 776 l 1,51,-1
 789 780 l 2,52,53
 789 789 789 789 780.5 795.5 c 128,-1,54
 772 802 772 802 758.5 801.5 c 128,-1,55
 745 801 745 801 712 777.5 c 128,-1,56
 679 754 679 754 638 717 c 128,-1,57
 597 680 597 680 552 635 c 128,-1,58
 507 590 507 590 466 546 c 0,59,60
 368.190677966 441.033898305 368.190677966 441.033898305 344.095338983 407.016949153 c 128,-1,61
 320 373 320 373 314 344 c 2,62,-1
 243 11 l 1,63,64
 174.428571429 -29 174.428571429 -29 137.214285714 -29 c 128,-1,65
 100 -29 100 -29 100 0 c 0,0,1
EndSplineSet
EndChar

StartChar: i
Encoding: 105 105 75
Width: 557
Flags: W
LayerCount: 2
Fore
SplineSet
464 812 m 1,0,-1
 315 92 l 1,1,2
 315 70 315 70 339 70 c 0,3,4
 379.318181818 70 379.318181818 70 480.5 176 c 0,5,6
 491 187 491 187 496 192 c 1,7,-1
 515 173 l 1,8,9
 497.208955224 137.417910448 497.208955224 137.417910448 435.104477612 86.2089552239 c 128,-1,10
 373 35 373 35 344.5 16 c 0,11,12
 280 -27 280 -27 242.5 -27 c 128,-1,13
 205 -27 205 -27 186 0.5 c 128,-1,14
 167 28 167 28 167 47.5 c 0,15,16
 167 75.75 167 75.75 172 97 c 2,17,-1
 316 776 l 1,18,-1
 316 780 l 2,19,20
 316 802 316 802 291 802 c 0,21,22
 248.375 802 248.375 802 160.5 707 c 0,23,24
 142 687 142 687 134 680 c 1,25,-1
 115 699 l 1,26,27
 134.617647059 738.235294118 134.617647059 738.235294118 228.5 814 c 0,28,29
 335.065217391 900 335.065217391 900 380.032608696 900 c 128,-1,30
 425 900 425 900 444.5 872.5 c 128,-1,31
 464 845 464 845 464 812 c 1,0,-1
407.5 1192.5 m 128,-1,33
 404 1206 404 1206 404 1222 c 128,-1,34
 404 1238 404 1238 410.5 1268 c 128,-1,35
 417 1298 417 1298 429.5 1325.5 c 0,36,37
 459.727272727 1392 459.727272727 1392 509 1392 c 0,38,39
 553.714285714 1392 553.714285714 1392 568 1342 c 0,40,41
 572 1328 572 1328 572 1312 c 128,-1,42
 572 1296 572 1296 564 1267 c 128,-1,43
 556 1238 556 1238 541.5 1210.5 c 0,44,45
 506.436363636 1144 506.436363636 1144 462 1144 c 0,46,47
 436 1144 436 1144 423.5 1161.5 c 128,-1,32
 411 1179 411 1179 407.5 1192.5 c 128,-1,33
EndSplineSet
EndChar

StartChar: j
Encoding: 106 106 76
Width: 576
Flags: W
LayerCount: 2
Fore
SplineSet
355 777 m 0,0,1
 355 802 355 802 330 802 c 0,2,3
 287.375 802 287.375 802 199.5 707 c 0,4,5
 181 687 181 687 173 680 c 1,6,-1
 154 699 l 1,7,8
 173.617647059 738.235294118 173.617647059 738.235294118 267.5 814 c 0,9,10
 374.065217391 900 374.065217391 900 428 900 c 0,11,12
 461.307692308 900 461.307692308 900 476.653846154 879 c 0,13,14
 502 844.315789474 502 844.315789474 502 809 c 0,15,16
 502 793.507936508 502 793.507936508 433.5 472.753968254 c 128,-1,17
 365 152 365 152 338 24 c 128,-1,18
 311 -104 311 -104 291.5 -164 c 128,-1,19
 272 -224 272 -224 242 -288 c 128,-1,20
 212 -352 212 -352 172.5 -415 c 128,-1,21
 133 -478 133 -478 83 -528 c 0,22,23
 -28 -639 -28 -639 -158 -639 c 0,24,25
 -214.5 -639 -214.5 -639 -243.25 -616 c 0,26,27
 -290 -578.6 -290 -578.6 -290 -550.8 c 0,28,29
 -290 -485 -290 -485 -238 -485 c 0,30,31
 -202.4375 -485 -202.4375 -485 -163.71875 -514.5 c 128,-1,32
 -125 -544 -125 -544 -103 -557.5 c 128,-1,33
 -81 -571 -81 -571 -52 -571 c 128,-1,34
 -23 -571 -23 -571 3 -548.5 c 128,-1,35
 29 -526 29 -526 50.5 -489 c 128,-1,36
 72 -452 72 -452 89.5 -404.5 c 128,-1,37
 107 -357 107 -357 121 -307 c 0,38,39
 163 -157 163 -157 165 -131 c 128,-1,40
 167 -105 167 -105 185.5 -20 c 128,-1,41
 204 65 204 65 230.5 190.5 c 128,-1,42
 257 316 257 316 277 408.5 c 128,-1,43
 297 501 297 501 310.5 564 c 128,-1,44
 324 627 324 627 332.5 668 c 128,-1,45
 341 709 341 709 346 731.5 c 128,-1,46
 351 754 351 754 353 763 c 128,-1,47
 355 772 355 772 355 777 c 0,0,1
446.5 1192.5 m 128,-1,49
 443 1206 443 1206 443 1222 c 128,-1,50
 443 1238 443 1238 449.5 1268 c 128,-1,51
 456 1298 456 1298 468.5 1325.5 c 0,52,53
 498.727272727 1392 498.727272727 1392 548 1392 c 0,54,55
 592.714285714 1392 592.714285714 1392 607 1342 c 0,56,57
 611 1328 611 1328 611 1312 c 128,-1,58
 611 1296 611 1296 603 1267 c 128,-1,59
 595 1238 595 1238 580.5 1210.5 c 0,60,61
 545.436363636 1144 545.436363636 1144 501 1144 c 0,62,63
 475 1144 475 1144 462.5 1161.5 c 128,-1,48
 450 1179 450 1179 446.5 1192.5 c 128,-1,49
EndSplineSet
EndChar

StartChar: k
Encoding: 107 107 77
Width: 1013
Flags: W
LayerCount: 2
Fore
SplineSet
378 596 m 0,0,1
 378 582 378 582 391 582 c 0,2,3
 397.230769231 582 397.230769231 582 452.615384615 627 c 128,-1,4
 508 672 508 672 553.5 708.5 c 128,-1,5
 599 745 599 745 647 781 c 128,-1,6
 695 817 695 817 739 846.5 c 0,7,8
 836.694915254 912 836.694915254 912 873.347457627 912 c 128,-1,9
 910 912 910 912 931.5 893.5 c 128,-1,10
 953 875 953 875 968 848.5 c 0,11,12
 998 795.5 998 795.5 998 742.25 c 128,-1,13
 998 689 998 689 971.5 639 c 128,-1,14
 945 589 945 589 889.5 548 c 0,15,16
 764.963414634 456 764.963414634 456 541 456 c 0,17,18
 534 456 534 456 527.5 450 c 128,-1,19
 521 444 521 444 521 438 c 128,-1,20
 521 432 521 432 529 420.5 c 128,-1,21
 537 409 537 409 559 376.5 c 128,-1,22
 581 344 581 344 608 307 c 128,-1,23
 635 270 635 270 666.5 232 c 128,-1,24
 698 194 698 194 730 163.5 c 0,25,26
 802.918032787 94 802.918032787 94 854 94 c 0,27,28
 884.242424242 94 884.242424242 94 910.121212121 124.5 c 128,-1,29
 936 155 936 155 947.5 169 c 128,-1,30
 959 183 959 183 971.5 183 c 128,-1,31
 984 183 984 183 984 167 c 0,32,33
 984 161.411764706 984 161.411764706 911 85.7058823529 c 128,-1,34
 838 10 838 10 826.5 2.5 c 128,-1,35
 815 -5 815 -5 803.5 -5 c 0,36,37
 749.542372881 -5 749.542372881 -5 692.771186441 38.5 c 128,-1,38
 636 82 636 82 605.5 117 c 128,-1,39
 575 152 575 152 550 190 c 128,-1,40
 525 228 525 228 501 267 c 0,41,42
 441.023121387 364.462427746 441.023121387 364.462427746 392 412 c 1,43,44
 374.5 429.5 l 2,45,46
 363 441 363 441 357.5 441 c 0,47,48
 342.8 441 342.8 441 339 422 c 2,49,-1
 253 11 l 1,50,51
 241 6 241 6 227.5 -1 c 128,-1,52
 214 -8 214 -8 200 -14 c 0,53,54
 165 -29 165 -29 145 -29 c 0,55,56
 117 -29 117 -29 117 4 c 0,57,58
 117 43 117 43 126 85 c 2,59,-1
 418 1457 l 1,60,61
 422 1467 422 1467 422 1483 c 0,62,63
 422 1508 422 1508 400 1508 c 0,64,65
 376.875 1508 376.875 1508 338.4375 1487.5 c 128,-1,66
 300 1467 300 1467 284 1461 c 1,67,-1
 271 1492 l 1,68,69
 315.444444444 1517 315.444444444 1517 358.222222222 1539 c 128,-1,70
 401 1561 401 1561 417 1569.5 c 128,-1,71
 433 1578 433 1578 457 1591.5 c 128,-1,72
 481 1605 481 1605 503.5 1617 c 0,73,74
 556 1645 556 1645 569 1645 c 0,75,76
 592 1645 592 1645 592 1613 c 0,77,78
 592 1603 592 1603 586 1582 c 1,79,-1
 381 614 l 2,80,81
 378 602 378 602 378 596 c 0,0,1
351 477 m 1,82,83
 394.5 474 394.5 474 440.75 474 c 0,84,85
 591.947368421 474 591.947368421 474 651.473684211 494.5 c 128,-1,86
 711 515 711 515 751 540 c 128,-1,87
 791 565 791 565 820 596 c 0,88,89
 881 661.206896552 881 661.206896552 881 732 c 0,90,91
 881 793.291666667 881 793.291666667 844 819.5 c 0,92,93
 832 828 832 828 809 828 c 0,94,95
 736.75 828 736.75 828 568 693 c 0,96,97
 533 665 533 665 484.5 625 c 128,-1,98
 436 585 436 585 361 524 c 1,99,-1
 351 477 l 1,82,83
EndSplineSet
EndChar

StartChar: l
Encoding: 108 108 78
Width: 559
Flags: W
LayerCount: 2
Fore
SplineSet
278 93 m 2,0,1
 278 71 278 71 303 71 c 0,2,3
 343.318181818 71 343.318181818 71 444.5 177 c 0,4,5
 455 188 455 188 460 193 c 1,6,-1
 479 174 l 1,7,8
 459.382352941 134.764705882 459.382352941 134.764705882 365.5 59 c 0,9,10
 258.934782609 -27 258.934782609 -27 205 -27 c 0,11,12
 175 -27 175 -27 152.5 -3.5 c 128,-1,13
 130 20 130 20 130 45.5 c 128,-1,14
 130 71 130 71 133 85 c 2,15,-1
 427 1457 l 2,16,17
 431 1473 431 1473 431 1483 c 0,18,19
 431 1508 431 1508 409 1508 c 0,20,21
 390.157894737 1508 390.157894737 1508 358.578947368 1493 c 128,-1,22
 327 1478 327 1478 291 1461 c 1,23,-1
 278 1492 l 1,24,25
 559.842105263 1645 559.842105263 1645 579.421052632 1645 c 128,-1,26
 599 1645 599 1645 599 1621.5 c 128,-1,27
 599 1598 599 1598 567.5 1453.5 c 128,-1,28
 536 1309 536 1309 491.5 1100 c 128,-1,29
 447 891 447 891 413.5 736 c 128,-1,30
 380 581 380 581 357 473 c 128,-1,31
 334 365 334 365 319 294 c 128,-1,32
 304 223 304 223 295.5 183.5 c 128,-1,33
 287 144 287 144 283.5 125 c 128,-1,34
 280 106 280 106 278 97 c 1,35,-1
 278 93 l 2,0,1
EndSplineSet
EndChar

StartChar: m
Encoding: 109 109 79
Width: 1553
Flags: W
LayerCount: 2
Fore
SplineSet
154 0 m 0,0,1
 154 12.6666666667 154 12.6666666667 159 34.3333333333 c 0,2,3
 168.2 74.2 168.2 74.2 170 85 c 2,4,-1
 304 719 l 1,5,-1
 304 723 l 2,6,7
 304 751 304 751 281 751 c 0,8,9
 266 751 266 751 231 715.5 c 128,-1,10
 196 680 196 680 139 622 c 1,11,-1
 115 647 l 1,12,13
 137.318181818 691.636363636 137.318181818 691.636363636 275.5 808 c 0,14,15
 384.75 900 384.75 900 429 900 c 0,16,17
 465 900 465 900 465 829 c 0,18,19
 465 799.2 465 799.2 458 767 c 2,20,-1
 405 511 l 1,21,22
 405 500 405 500 413.5 500 c 128,-1,23
 422 500 422 500 429.5 508.5 c 128,-1,24
 437 517 437 517 464 547 c 128,-1,25
 491 577 491 577 536 631 c 128,-1,26
 581 685 581 685 616.5 720.5 c 128,-1,27
 652 756 652 756 686 785 c 128,-1,28
 720 814 720 814 756.5 839.5 c 0,29,30
 843.098039216 900 843.098039216 900 882.049019608 900 c 128,-1,31
 921 900 921 900 944.5 876.5 c 128,-1,32
 968 853 968 853 968 830.5 c 0,33,34
 968 801 968 801 965 789 c 2,35,-1
 910 526 l 2,36,37
 908 516 908 516 908 508 c 128,-1,38
 908 500 908 500 916.5 500 c 0,39,40
 936.398148148 500 936.398148148 500 1009.19907407 592.5 c 128,-1,41
 1082 685 1082 685 1117.5 720.5 c 128,-1,42
 1153 756 1153 756 1187 785 c 128,-1,43
 1221 814 1221 814 1257.5 839.5 c 0,44,45
 1344.09803922 900 1344.09803922 900 1383.04901961 900 c 128,-1,46
 1422 900 1422 900 1444.5 876.5 c 128,-1,47
 1467 853 1467 853 1467 827 c 128,-1,48
 1467 801 1467 801 1464 788 c 2,49,-1
 1317 96 l 1,50,-1
 1317 92 l 2,51,52
 1317 70 1317 70 1342 70 c 0,53,54
 1382.31818182 70 1382.31818182 70 1483.5 176 c 0,55,56
 1494 187 1494 187 1499 192 c 1,57,-1
 1518 173 l 1,58,59
 1498.38235294 133.764705882 1498.38235294 133.764705882 1404.5 58 c 0,60,61
 1297.93478261 -28 1297.93478261 -28 1244 -28 c 0,62,63
 1214 -28 1214 -28 1191.5 -4.5 c 128,-1,64
 1169 19 1169 19 1169 44.5 c 128,-1,65
 1169 70 1169 70 1172 84 c 2,66,-1
 1319 776 l 1,67,-1
 1319 780 l 2,68,69
 1319 802 1319 802 1294 802 c 0,70,71
 1257.48484848 802 1257.48484848 802 1193 735.5 c 0,72,73
 1064.71326165 603.204301075 1064.71326165 603.204301075 993 514 c 1,74,75
 984 505 984 505 971 489.5 c 128,-1,76
 958 474 958 474 944.5 458.5 c 0,77,78
 918.294117647 428.411764706 918.294117647 428.411764706 907.147058824 412.705882353 c 128,-1,79
 896 397 896 397 886 385 c 128,-1,80
 876 373 876 373 870 344 c 2,81,-1
 798 11 l 1,82,83
 729.428571429 -29 729.428571429 -29 692.214285714 -29 c 128,-1,84
 655 -29 655 -29 655 0 c 0,85,86
 655 12.6666666667 655 12.6666666667 660 34.3333333333 c 0,87,88
 669.2 74.2 669.2 74.2 671 85 c 2,89,-1
 818 776 l 1,90,-1
 818 780 l 2,91,92
 818 802 818 802 793 802 c 0,93,94
 756.484848485 802 756.484848485 802 692 735.5 c 0,95,96
 540.315412186 579.075268817 540.315412186 579.075268817 509.657706093 542.037634409 c 128,-1,97
 479 505 479 505 466.5 489.5 c 128,-1,98
 454 474 454 474 441.5 458.5 c 0,99,100
 417.75 429.05 417.75 429.05 406.375 413.025 c 128,-1,101
 395 397 395 397 385 385 c 128,-1,102
 375 373 375 373 369 344 c 2,103,-1
 297 11 l 1,104,105
 228.428571429 -29 228.428571429 -29 191.214285714 -29 c 128,-1,106
 154 -29 154 -29 154 0 c 0,0,1
EndSplineSet
EndChar

StartChar: n
Encoding: 110 110 80
Width: 996
Flags: W
LayerCount: 2
Fore
SplineSet
424 900 m 0,0,1
 460 900 460 900 460 833 c 0,2,3
 460 803 460 803 456.5 787 c 128,-1,4
 453 771 453 771 447.5 744 c 128,-1,5
 442 717 442 717 431 663.5 c 128,-1,6
 420 610 420 610 400 511 c 1,7,8
 400 500 400 500 408.5 500 c 128,-1,9
 417 500 417 500 424.5 508.5 c 128,-1,10
 432 517 432 517 448 535 c 128,-1,11
 464 553 464 553 497.5 591.5 c 128,-1,12
 531 630 531 630 569.5 671.5 c 128,-1,13
 608 713 608 713 649.5 754 c 128,-1,14
 691 795 691 795 732.5 827.5 c 0,15,16
 825.076923077 900 825.076923077 900 886 900 c 0,17,18
 916 900 916 900 938.5 876.5 c 128,-1,19
 961 853 961 853 961 827 c 128,-1,20
 961 801 961 801 958 788 c 2,21,-1
 780 96 l 1,22,-1
 780 92 l 2,23,24
 780 70 780 70 805 70 c 0,25,26
 845.318181818 70 845.318181818 70 946.5 176 c 0,27,28
 957 187 957 187 962 192 c 1,29,-1
 981 173 l 1,30,31
 961.382352941 133.764705882 961.382352941 133.764705882 867.5 58 c 0,32,33
 760.934782609 -28 760.934782609 -28 707 -28 c 0,34,35
 677 -28 677 -28 654.5 -4.5 c 128,-1,36
 632 19 632 19 632 44.5 c 128,-1,37
 632 70 632 70 635 84 c 2,38,-1
 813 776 l 1,39,-1
 813 780 l 2,40,41
 813 789 813 789 804.5 795.5 c 128,-1,42
 796 802 796 802 782.5 801.5 c 128,-1,43
 769 801 769 801 737.5 777.5 c 128,-1,44
 706 754 706 754 668 717 c 128,-1,45
 630 680 630 680 588.5 635 c 128,-1,46
 547 590 547 590 509 546 c 0,47,48
 405.230769231 425.846153846 405.230769231 425.846153846 387.615384615 399.423076923 c 128,-1,49
 370 373 370 373 364 344 c 2,50,-1
 292 11 l 1,51,52
 223.428571429 -29 223.428571429 -29 186.214285714 -29 c 128,-1,53
 149 -29 149 -29 149 0 c 0,54,55
 149 12.6666666667 149 12.6666666667 154 34.3333333333 c 0,56,57
 163.2 74.2 163.2 74.2 165 85 c 2,58,-1
 299 719 l 1,59,-1
 299 723 l 2,60,61
 299 751 299 751 276 751 c 0,62,63
 261 751 261 751 226 715.5 c 128,-1,64
 191 680 191 680 134 622 c 1,65,-1
 110 647 l 1,66,67
 132.318181818 691.636363636 132.318181818 691.636363636 270.5 808 c 0,68,69
 379.75 900 379.75 900 424 900 c 0,0,1
EndSplineSet
EndChar

StartChar: o
Encoding: 111 111 81
Width: 953
Flags: W
LayerCount: 2
Fore
SplineSet
741 900 m 0,0,1
 799.526315789 900 799.526315789 900 854 796.5 c 0,2,3
 911 688.2 911 688.2 911 579.6 c 128,-1,4
 911 471 911 471 886 396.5 c 128,-1,5
 861 322 861 322 818.5 258 c 128,-1,6
 776 194 776 194 718 141.5 c 128,-1,7
 660 89 660 89 594.5 51.5 c 0,8,9
 457.386666667 -27 457.386666667 -27 321 -27 c 0,10,11
 266.648351648 -27 266.648351648 -27 211 78.5 c 0,12,13
 155 184.666666667 155 184.666666667 155 276.833333333 c 128,-1,14
 155 369 155 369 179.5 449.5 c 128,-1,15
 204 530 204 530 246.5 598.5 c 128,-1,16
 289 667 289 667 346 723 c 128,-1,17
 403 779 403 779 468 818 c 0,18,19
 604.666666667 900 604.666666667 900 741 900 c 0,0,1
314.5 407.5 m 128,-1,21
 305 345 305 345 305 301 c 128,-1,22
 305 257 305 257 313 215.5 c 128,-1,23
 321 174 321 174 339 136.5 c 0,24,25
 381.96 47 381.96 47 457 47 c 0,26,27
 593.294117647 47 593.294117647 47 682 221 c 0,28,29
 761 375.961538462 761 375.961538462 761 560 c 0,30,31
 761 682.774193548 761 682.774193548 705.5 770.5 c 0,32,33
 670.387755102 826 670.387755102 826 620.193877551 826 c 128,-1,34
 570 826 570 826 527.5 802 c 128,-1,35
 485 778 485 778 450.5 737.5 c 128,-1,36
 416 697 416 697 388.5 643 c 128,-1,37
 361 589 361 589 342.5 529.5 c 128,-1,20
 324 470 324 470 314.5 407.5 c 128,-1,21
EndSplineSet
EndChar

StartChar: p
Encoding: 112 112 82
Width: 962
Flags: W
LayerCount: 2
Fore
SplineSet
580 -0.5 m 128,-1,1
 512 -27 512 -27 438.238095238 -27 c 128,-1,2
 364.476190476 -27 364.476190476 -27 294 10 c 1,3,-1
 189 -486 l 2,4,5
 185 -502 185 -502 185 -512 c 0,6,7
 185 -558 185 -558 230.5 -573 c 128,-1,8
 276 -588 276 -588 361 -588 c 1,9,-1
 354 -620 l 1,10,-1
 -135 -620 l 1,11,-1
 -128 -588 l 1,12,13
 -28.6315789474 -588 -28.6315789474 -588 13 -531.5 c 0,14,15
 45.3473684211 -487.6 45.3473684211 -487.6 72 -361 c 2,16,-1
 302 719 l 1,17,-1
 302 723 l 2,18,19
 302 751 302 751 279 751 c 0,20,21
 264 751 264 751 229 715.5 c 128,-1,22
 194 680 194 680 137 622 c 1,23,-1
 113 647 l 1,24,25
 134.558823529 690.117647059 134.558823529 690.117647059 277 808 c 0,26,27
 388.166666667 900 388.166666667 900 432 900 c 0,28,29
 444 900 444 900 458 891.5 c 128,-1,30
 472 883 472 883 472 867 c 0,31,32
 472 839.333333333 472 839.333333333 456 770 c 2,33,-1
 427 641 l 2,34,35
 426 638 426 638 426 632 c 256,36,37
 426 615 426 615 437 615 c 0,38,39
 451.8 615 451.8 615 465 626 c 128,-1,40
 478 637 478 637 503.5 662 c 128,-1,41
 529 687 529 687 560.5 717.5 c 128,-1,42
 592 748 592 748 627 780.5 c 128,-1,43
 662 813 662 813 695.5 839.5 c 0,44,45
 771.981132075 900 771.981132075 900 808.490566038 900 c 128,-1,46
 845 900 845 900 868.5 870 c 128,-1,47
 892 840 892 840 905 798.5 c 0,48,49
 927 728.269230769 927 728.269230769 927 644.634615385 c 128,-1,50
 927 561 927 561 912.5 479 c 128,-1,51
 898 397 898 397 869.5 322.5 c 128,-1,52
 841 248 841 248 799 184 c 128,-1,53
 757 120 757 120 702.5 73 c 128,-1,0
 648 26 648 26 580 -0.5 c 128,-1,1
772.5 481.5 m 128,-1,55
 788 557 788 557 788 606 c 128,-1,56
 788 655 788 655 786 682 c 128,-1,57
 784 709 784 709 775.5 733 c 0,58,59
 755.666666667 789 755.666666667 789 702 789 c 1,60,61
 649.144303797 761.771308017 649.144303797 761.771308017 590.572151899 702.385654008 c 128,-1,62
 532 643 532 643 490.5 599.5 c 128,-1,63
 449 556 449 556 400 508 c 1,64,-1
 328 168 l 2,65,66
 324 152 324 152 324 134 c 128,-1,67
 324 116 324 116 329.5 95 c 128,-1,68
 335 74 335 74 348.5 56 c 0,69,70
 380 14 380 14 430.5 14 c 128,-1,71
 481 14 481 14 520 38.5 c 128,-1,72
 559 63 559 63 597 106.5 c 128,-1,73
 635 150 635 150 669.5 209 c 128,-1,74
 704 268 704 268 730.5 337 c 128,-1,54
 757 406 757 406 772.5 481.5 c 128,-1,55
EndSplineSet
EndChar

StartChar: q
Encoding: 113 113 83
Width: 898
Flags: W
LayerCount: 2
Fore
SplineSet
588 -526 m 1,0,1
 588 -589.68 588 -589.68 697 -587.5 c 0,2,3
 722 -587 722 -587 736 -589 c 1,4,-1
 729 -620 l 1,5,-1
 318 -620 l 1,6,-1
 325 -588 l 1,7,8
 437.769230769 -588 437.769230769 -588 449 -515 c 1,9,-1
 585 229 l 1,10,11
 585 237 585 237 577 237 c 256,12,13
 565.933333333 237 565.933333333 237 527.966666667 203.5 c 128,-1,14
 490 170 490 170 458 142 c 128,-1,15
 426 114 426 114 390.5 84 c 128,-1,16
 355 54 355 54 321.5 29.5 c 0,17,18
 244.244897959 -27 244.244897959 -27 208.12244898 -27 c 128,-1,19
 172 -27 172 -27 149.5 3 c 128,-1,20
 127 33 127 33 115 74.5 c 0,21,22
 95 143.666666667 95 143.666666667 95 209.333333333 c 0,23,24
 95 415.952054795 95 415.952054795 253 607.5 c 0,25,26
 402.012026807 788.151566745 402.012026807 788.151566745 621.5 863 c 0,27,28
 730 900 730 900 843 900 c 0,29,30
 860 900 860 900 860 872 c 1,31,-1
 588 -526 l 1,0,1
702 770 m 1,32,33
 702 786 702 786 664 786 c 128,-1,34
 626 786 626 786 575 772.5 c 128,-1,35
 524 759 524 759 477.5 734.5 c 0,36,37
 303.852083741 643.008087132 303.852083741 643.008087132 255 425.5 c 0,38,39
 234 332 234 332 231.5 275 c 128,-1,40
 229 218 229 218 231 191 c 128,-1,41
 233 164 233 164 241.5 140 c 0,42,43
 261.333333333 84 261.333333333 84 315 84 c 1,44,45
 386.902439024 121.040650407 386.902439024 121.040650407 470.451219512 196.020325203 c 128,-1,46
 554 271 554 271 603 315 c 1,47,-1
 702 770 l 1,32,33
EndSplineSet
EndChar

StartChar: r
Encoding: 114 114 84
Width: 669
Flags: W
LayerCount: 2
Fore
SplineSet
653 739 m 1,0,-1
 604 747 l 1,1,2
 542.698113208 747 542.698113208 747 478 683.5 c 0,3,4
 392.306255077 599.393176279 392.306255077 599.393176279 368.5 498.5 c 0,5,6
 358 454 358 454 348 409 c 2,7,-1
 262 11 l 1,8,9
 250 6 250 6 234.5 -1 c 128,-1,10
 219 -8 219 -8 202.5 -14 c 0,11,12
 161.25 -29 161.25 -29 141 -29 c 0,13,14
 115 -29 115 -29 115 4 c 0,15,16
 115 21 115 21 136 119 c 128,-1,17
 157 217 157 217 182 334.5 c 128,-1,18
 207 452 207 452 223.5 528 c 128,-1,19
 240 604 240 604 248.5 645.5 c 128,-1,20
 257 687 257 687 261.5 706.5 c 0,21,22
 267 730.333333333 267 730.333333333 267 734 c 0,23,24
 267 751 267 751 255 751 c 0,25,26
 235 751 235 751 215 731 c 2,27,-1
 131 649 l 2,28,29
 126 644 126 644 122 644 c 0,30,31
 100 644 100 644 100 665 c 0,32,33
 100 684.814814815 100 684.814814815 146 727.407407407 c 128,-1,34
 192 770 192 770 220.5 795 c 128,-1,35
 249 820 249 820 263.5 833 c 128,-1,36
 278 846 278 846 291.5 857 c 128,-1,37
 305 868 305 868 320 877.5 c 0,38,39
 357.105263158 901 357.105263158 901 379 901 c 1,40,41
 412 895.5 412 895.5 412 831 c 1,42,-1
 400 696 l 1,43,44
 400 675 400 675 414 675 c 0,45,46
 422.432432432 675 422.432432432 675 452.716216216 716.5 c 128,-1,47
 483 758 483 758 500.5 778.5 c 128,-1,48
 518 799 518 799 537 821 c 128,-1,49
 556 843 556 843 578 860.5 c 0,50,51
 628.914285714 901 628.914285714 901 678 901 c 0,52,53
 707.461538462 901 707.461538462 901 716.5 854 c 0,54,55
 719 841 719 841 719 829 c 0,56,57
 719 741.0625 719 741.0625 653 739 c 1,0,-1
EndSplineSet
EndChar

StartChar: s
Encoding: 115 115 85
Width: 696
Flags: W
LayerCount: 2
Fore
SplineSet
47.5 28 m 128,-1,1
 33 46 33 46 31.5 73 c 128,-1,2
 30 100 30 100 51.5 119.5 c 128,-1,3
 73 139 73 139 99 139 c 128,-1,4
 125 139 125 139 158 123.5 c 128,-1,5
 191 108 191 108 227 89 c 0,6,7
 321.736842105 39 321.736842105 39 367.868421053 39 c 128,-1,8
 414 39 414 39 445.5 75 c 128,-1,9
 477 111 477 111 477 160.5 c 128,-1,10
 477 210 477 210 458 249 c 128,-1,11
 439 288 439 288 410.5 323.5 c 128,-1,12
 382 359 382 359 349 392.5 c 128,-1,13
 316 426 316 426 287.5 462 c 0,14,15
 221 546 221 546 221 613.5 c 128,-1,16
 221 681 221 681 255 730 c 128,-1,17
 289 779 289 779 341 816 c 0,18,19
 452.027027027 895 452.027027027 895 568 895 c 0,20,21
 610.714285714 895 610.714285714 895 633.857142857 868 c 0,22,23
 676 818.833333333 676 818.833333333 676 777.916666667 c 0,24,25
 676 688 676 688 610 688 c 0,26,27
 581.870967742 688 581.870967742 688 565.935483871 714 c 128,-1,28
 550 740 550 740 542 758.5 c 128,-1,29
 534 777 534 777 524.5 792.5 c 0,30,31
 502.129032258 829 502.129032258 829 474.564516129 829 c 128,-1,32
 447 829 447 829 420 815.5 c 128,-1,33
 393 802 393 802 371.5 781 c 0,34,35
 323 733.627906977 323 733.627906977 323 689.813953488 c 128,-1,36
 323 646 323 646 341.5 614 c 128,-1,37
 360 582 360 582 387.5 551 c 128,-1,38
 415 520 415 520 447 487.5 c 128,-1,39
 479 455 479 455 506.5 418 c 0,40,41
 571 331.218181818 571 331.218181818 571 239 c 0,42,43
 571 114.228571429 571 114.228571429 455 38 c 0,44,45
 420 15 420 15 393.5 6.5 c 128,-1,46
 367 -2 367 -2 353.5 -7 c 128,-1,47
 340 -12 340 -12 319.5 -16.5 c 0,48,49
 271.666666667 -27 271.666666667 -27 215.833333333 -27 c 128,-1,50
 160 -27 160 -27 132.5 -20.5 c 128,-1,51
 105 -14 105 -14 83.5 -2 c 128,-1,0
 62 10 62 10 47.5 28 c 128,-1,1
EndSplineSet
Substitution2: "'hist' Historical Forms in Latin lookup 1 subtable" longs
EndChar

StartChar: t
Encoding: 116 116 86
Width: 580
Flags: W
LayerCount: 2
Fore
SplineSet
227 -27 m 0,0,1
 138 -27 138 -27 138 54 c 0,2,3
 138 71 138 71 142 88 c 2,4,-1
 296 815 l 2,5,6
 298 825 298 825 298 831 c 0,7,8
 298 846 298 846 283 846 c 2,9,-1
 238 846 l 2,10,11
 212 846 212 846 212 864 c 0,12,13
 212 882.764705882 212 882.764705882 226.5 887.882352941 c 128,-1,14
 241 893 241 893 251 895 c 128,-1,15
 261 897 261 897 275.5 902.5 c 128,-1,16
 290 908 290 908 314 926.5 c 128,-1,17
 338 945 338 945 362.5 969.5 c 128,-1,18
 387 994 387 994 411 1021 c 128,-1,19
 435 1048 435 1048 456 1073.5 c 0,20,21
 509.666666667 1138.66666667 509.666666667 1138.66666667 523 1152 c 1,22,23
 544.818181818 1146.54545455 544.818181818 1146.54545455 558 1136 c 1,24,25
 550 1115 550 1115 537 1087 c 128,-1,26
 524 1059 524 1059 511.5 1030 c 0,27,28
 480.978527607 959.190184049 480.978527607 959.190184049 476 926 c 1,29,-1
 476 922 l 2,30,31
 476 900 476 900 500 900 c 2,32,-1
 630 900 l 1,33,-1
 619 846 l 1,34,-1
 474 846 l 2,35,36
 447.368421053 846 447.368421053 846 440 811 c 2,37,-1
 301 161 l 2,38,39
 296 140 296 140 294 127.5 c 128,-1,40
 292 115 292 115 290.5 108 c 128,-1,41
 289 101 289 101 289 98 c 2,42,-1
 289 94 l 2,43,44
 289 71 289 71 311 71 c 0,45,46
 349 71 349 71 396 118 c 2,47,-1
 507 229 l 1,48,-1
 521 214 l 1,49,50
 506.777777778 171.333333333 506.777777778 171.333333333 408.5 79.5 c 0,51,52
 294.526315789 -27 294.526315789 -27 227 -27 c 0,0,1
EndSplineSet
EndChar

StartChar: u
Encoding: 117 117 87
Width: 1052
Flags: W
LayerCount: 2
Fore
SplineSet
988 876 m 2,0,-1
 988 870.410714286 l 2,1,2
 988 866.821428571 988 866.821428571 835 151 c 1,3,4
 835 119 835 119 858 119 c 0,5,6
 873 119 873 119 907 154.5 c 128,-1,7
 941 190 941 190 998 248 c 1,8,-1
 1022 223 l 1,9,10
 1009.04705882 197.094117647 1009.04705882 197.094117647 943.523529412 136.547058824 c 0,11,12
 766.534246575 -27 766.534246575 -27 708 -27 c 0,13,14
 671 -27 671 -27 671 36 c 0,15,16
 671 65.6666666667 671 65.6666666667 679 103 c 2,17,-1
 752 439 l 1,18,19
 752 450 752 450 743.5 450 c 128,-1,20
 735 450 735 450 727.5 441.5 c 128,-1,21
 720 433 720 433 704.5 415.5 c 128,-1,22
 689 398 689 398 662.5 369.5 c 128,-1,23
 636 341 636 341 609 311 c 0,24,25
 533.142857143 226.714285714 533.142857143 226.714285714 514.071428571 204.357142857 c 128,-1,26
 495 182 495 182 475.5 159.5 c 128,-1,27
 456 137 456 137 433 112 c 128,-1,28
 410 87 410 87 384.5 62 c 128,-1,29
 359 37 359 37 334 17.5 c 0,30,31
 276.948717949 -27 276.948717949 -27 243.474358974 -27 c 128,-1,32
 210 -27 210 -27 191 -0.5 c 128,-1,33
 172 26 172 26 172 45.5 c 2,34,-1
 172 70.5 l 2,35,36
 172 76 172 76 174 82 c 2,37,-1
 321 774 l 1,38,-1
 321 778 l 2,39,40
 321 800 321 800 296 800 c 0,41,42
 253.375 800 253.375 800 165.5 705 c 0,43,44
 147 685 147 685 139 678 c 1,45,-1
 120 697 l 1,46,47
 139.617647059 736.235294118 139.617647059 736.235294118 233.5 812 c 0,48,49
 340.065217391 898 340.065217391 898 394 898 c 0,50,51
 424 898 424 898 446.5 874.5 c 128,-1,52
 469 851 469 851 469 824.357142857 c 128,-1,53
 469 797.714285714 469 797.714285714 328 133 c 1,54,-1
 328 129 l 2,55,56
 328 107 328 107 353 107 c 256,57,58
 385.615384615 107 385.615384615 107 477 215 c 0,59,60
 500 242 500 242 526 272 c 128,-1,61
 552 302 552 302 578 332.5 c 0,62,63
 634.105263158 398.315789474 634.105263158 398.315789474 677.552631579 451.157894737 c 0,64,65
 778.708106613 574.186479757 778.708106613 574.186479757 798 661 c 2,66,-1
 841 860 l 1,67,68
 847.666666667 900 847.666666667 900 873 900 c 2,69,-1
 964 900 l 2,70,71
 988 900 988 900 988 876 c 2,0,-1
EndSplineSet
EndChar

StartChar: v
Encoding: 118 118 88
Width: 897
Flags: W
LayerCount: 2
Fore
SplineSet
314 113 m 0,0,1
 314 74 314 74 343 74 c 0,2,3
 392.53164557 74 392.53164557 74 513.5 212.5 c 0,4,5
 629.140762463 344.900293255 629.140762463 344.900293255 677 447 c 1,6,7
 726.013513514 529.945945946 726.013513514 529.945945946 754.5 664 c 0,8,9
 763 704 763 704 763 720 c 128,-1,10
 763 736 763 736 755.5 742.5 c 128,-1,11
 748 749 748 749 738.5 758 c 0,12,13
 714 781.210526316 714 781.210526316 714 802.605263158 c 128,-1,14
 714 824 714 824 722.5 842 c 128,-1,15
 731 860 731 860 745 872.5 c 0,16,17
 775.8 900 775.8 900 803.9 900 c 128,-1,18
 832 900 832 900 849.5 888 c 128,-1,19
 867 876 867 876 882 855.5 c 0,20,21
 917 807.666666667 917 807.666666667 917 771.833333333 c 128,-1,22
 917 736 917 736 911.5 712 c 128,-1,23
 906 688 906 688 898 663.5 c 0,24,25
 870.370746969 578.885412593 870.370746969 578.885412593 805.685373485 491.942706296 c 128,-1,26
 741 405 741 405 683.5 338 c 128,-1,27
 626 271 626 271 562.5 205 c 128,-1,28
 499 139 499 139 439 87 c 0,29,30
 305.153846154 -29 305.153846154 -29 244 -29 c 0,31,32
 173 -29 173 -29 173 96 c 0,33,34
 173 121 173 121 177 139 c 1,35,-1
 273 778 l 1,36,-1
 273 782 l 2,37,38
 273 803 273 803 249.5 803 c 128,-1,39
 226 803 226 803 203 785.5 c 128,-1,40
 180 768 180 768 158.5 745.5 c 128,-1,41
 137 723 137 723 120 701 c 128,-1,42
 103 679 103 679 96 671 c 1,43,-1
 75 689 l 1,44,45
 95.2545454545 729.509090909 95.2545454545 729.509090909 151.627272727 783.754545455 c 128,-1,46
 208 838 208 838 235.5 858.5 c 0,47,48
 299.219512195 906 299.219512195 906 335.109756098 906 c 128,-1,49
 371 906 371 906 394.5 881 c 128,-1,50
 418 856 418 856 418 818 c 0,51,52
 418 809 418 809 416 799 c 2,53,-1
 316 139 l 2,54,55
 314 123 314 123 314 113 c 0,0,1
EndSplineSet
EndChar

StartChar: w
Encoding: 119 119 89
Width: 1416
Flags: W
LayerCount: 2
Fore
SplineSet
827 114 m 2,0,1
 827 75 827 75 856 75 c 0,2,3
 897.772151899 75 897.772151899 75 1024 213.5 c 0,4,5
 1151.81769437 353.744414656 1151.81769437 353.744414656 1196 448 c 1,6,7
 1245.01351351 530.945945946 1245.01351351 530.945945946 1273.5 665 c 0,8,9
 1282 705 1282 705 1282 721 c 128,-1,10
 1282 737 1282 737 1274.5 743.5 c 128,-1,11
 1267 750 1267 750 1257.5 759 c 0,12,13
 1233 782.210526316 1233 782.210526316 1233 803.605263158 c 128,-1,14
 1233 825 1233 825 1241.5 843 c 128,-1,15
 1250 861 1250 861 1264 873.5 c 0,16,17
 1294.8 901 1294.8 901 1322.9 901 c 128,-1,18
 1351 901 1351 901 1368.5 889 c 128,-1,19
 1386 877 1386 877 1401 856.5 c 0,20,21
 1436 808.666666667 1436 808.666666667 1436 772.833333333 c 128,-1,22
 1436 737 1436 737 1430.5 713 c 128,-1,23
 1425 689 1425 689 1417 664.5 c 0,24,25
 1388.78154426 578.080979284 1388.78154426 578.080979284 1323.39077213 492.040489642 c 128,-1,26
 1258 406 1258 406 1198.5 339 c 128,-1,27
 1139 272 1139 272 1073.5 206 c 128,-1,28
 1008 140 1008 140 946.5 88 c 0,29,30
 809.307692308 -28 809.307692308 -28 747 -28 c 0,31,32
 676 -28 676 -28 676 97 c 0,33,34
 676 122 676 122 680 140 c 1,35,-1
 713 360 l 1,36,37
 713 371 713 371 704.5 371 c 128,-1,38
 696 371 696 371 688.5 362.5 c 128,-1,39
 681 354 681 354 665 336 c 128,-1,40
 649 318 649 318 617 279.5 c 128,-1,41
 585 241 585 241 548.5 199.5 c 128,-1,42
 512 158 512 158 472 117 c 128,-1,43
 432 76 432 76 392.5 43.5 c 0,44,45
 304.384615385 -29 304.384615385 -29 244 -29 c 0,46,47
 214 -29 214 -29 191.5 -5.5 c 128,-1,48
 169 18 169 18 169 43.5 c 128,-1,49
 169 69 169 69 172 83 c 2,50,-1
 276 776 l 1,51,52
 276 802 276 802 251 802 c 0,53,54
 208.375 802 208.375 802 120.5 707 c 0,55,56
 102 687 102 687 94 680 c 1,57,-1
 75 699 l 1,58,59
 94.6176470588 738.235294118 94.6176470588 738.235294118 188.5 814 c 0,60,61
 295.065217391 900 295.065217391 900 349 900 c 0,62,63
 379 900 379 900 401.5 876.5 c 128,-1,64
 424 853 424 853 424 827 c 128,-1,65
 424 801 424 801 421 788 c 1,66,-1
 317 95 l 1,67,-1
 317 91 l 2,68,69
 317 82 317 82 325.5 75.5 c 128,-1,70
 334 69 334 69 347.5 69 c 128,-1,71
 361 69 361 69 390.5 93 c 128,-1,72
 420 117 420 117 455 154 c 128,-1,73
 490 191 490 191 528 236 c 128,-1,74
 566 281 566 281 601 325 c 0,75,76
 703.941176471 454.411764706 703.941176471 454.411764706 718.470588235 476.205882353 c 128,-1,77
 733 498 733 498 739 527 c 1,78,-1
 787 860 l 1,79,80
 787 880 787 880 798 890 c 128,-1,81
 809 900 809 900 817 900 c 2,82,-1
 917 900 l 1,83,84
 939 896.857142857 939 896.857142857 939 871 c 1,85,-1
 829 140 l 2,86,87
 827 132 827 132 827 125.5 c 2,88,-1
 827 114 l 2,0,1
EndSplineSet
EndChar

StartChar: x
Encoding: 120 120 90
Width: 1101
Flags: W
LayerCount: 2
Fore
SplineSet
89 -27 m 1,0,1
 50 -15.8571428571 50 -15.8571428571 50 43 c 0,2,3
 50 119.807692308 50 119.807692308 96 206.5 c 0,4,5
 109 231 109 231 121 231 c 128,-1,6
 133 231 133 231 137 221.5 c 128,-1,7
 141 212 141 212 143.5 198 c 128,-1,8
 146 184 146 184 149.5 167.5 c 128,-1,9
 153 151 153 151 160 137 c 0,10,11
 176.5 104 176.5 104 211.75 104 c 0,12,13
 279.3125 104 279.3125 104 334 174 c 2,14,-1
 516 405 l 1,15,-1
 386 745 l 2,16,17
 372.071428571 784 372.071428571 784 319 784 c 0,18,19
 273.810810811 784 273.810810811 784 225.5 712.5 c 0,20,21
 213 694 213 694 202.5 678 c 0,22,23
 178.21875 641 178.21875 641 163.109375 641 c 128,-1,24
 148 641 148 641 148 652.5 c 128,-1,25
 148 664 148 664 159.5 686.5 c 128,-1,26
 171 709 171 709 190 736.5 c 128,-1,27
 209 764 209 764 234.5 793 c 128,-1,28
 260 822 260 822 289 845.5 c 0,29,30
 356.255319149 900 356.255319149 900 409 900 c 256,31,32
 439 900 439 900 465 884.5 c 128,-1,33
 491 869 491 869 500 846 c 2,34,-1
 620 536 l 1,35,36
 624 536 624 536 642.5 562 c 128,-1,37
 661 588 661 588 689.5 627 c 128,-1,38
 718 666 718 666 755.5 712 c 128,-1,39
 793 758 793 758 834.5 797 c 0,40,41
 931.333333333 888 931.333333333 888 1005 888 c 0,42,43
 1101 888 1101 888 1101 782 c 0,44,45
 1101 728 1101 728 1090.5 707 c 128,-1,46
 1080 686 1080 686 1068.5 686 c 128,-1,47
 1057 686 1057 686 1047.5 701 c 128,-1,48
 1038 716 1038 716 1025.5 734 c 0,49,50
 992.166666667 782 992.166666667 782 941 782 c 0,51,52
 884.076923077 782 884.076923077 782 785.5 665.5 c 0,53,54
 733.983333333 604.616666667 733.983333333 604.616666667 695.991666667 555.308333333 c 128,-1,55
 658 506 658 506 639 485 c 1,56,-1
 776 131 l 2,57,58
 790.909090909 90 790.909090909 90 827 90 c 0,59,60
 858.59375 90 858.59375 90 879.296875 116.5 c 128,-1,61
 900 143 900 143 910.5 161.5 c 128,-1,62
 921 180 921 180 931 196 c 0,63,64
 954.125 233 954.125 233 972 233 c 1,65,66
 978 223.4 978 223.4 978 204.2 c 128,-1,67
 978 185 978 185 957.5 145 c 128,-1,68
 937 105 937 105 905 66.5 c 0,69,70
 827.285714286 -27 827.285714286 -27 760 -27 c 0,71,72
 681.25 -27 681.25 -27 664 19 c 0,73,74
 549 318 549 318 544.5 330 c 128,-1,75
 540 342 540 342 535 342 c 128,-1,76
 530 342 530 342 525 337.5 c 128,-1,77
 520 333 520 333 514.5 327 c 128,-1,78
 509 321 509 321 485.5 289.5 c 128,-1,79
 462 258 462 258 416.5 201 c 128,-1,80
 371 144 371 144 318.5 93.5 c 0,81,82
 195.03484148 -25.2617239102 195.03484148 -25.2617239102 89 -27 c 1,0,1
EndSplineSet
EndChar

StartChar: y
Encoding: 121 121 91
Width: 993
Flags: W
LayerCount: 2
Fore
SplineSet
133.906779661 -543.093220339 m 128,-1,1
 158.813559322 -518.186440678 158.813559322 -518.186440678 206.406779661 -416.593220339 c 128,-1,2
 254 -315 254 -315 274 -270 c 128,-1,3
 294 -225 294 -225 312 -180 c 0,4,5
 397 32.5 397 32.5 397 141 c 0,6,7
 397 347.666666667 397 347.666666667 381.5 430.333333333 c 0,8,9
 335.574193548 675.270967742 335.574193548 675.270967742 319.287096774 712.635483871 c 128,-1,10
 303 750 303 750 291 765.5 c 128,-1,11
 279 781 279 781 263 783 c 1,12,13
 244.300492611 780.123152709 244.300492611 780.123152709 207.650246305 731.561576355 c 0,14,15
 138.547169811 640 138.547169811 640 126 640 c 0,16,17
 120 640 120 640 114 645 c 128,-1,18
 108 650 108 650 108 664 c 128,-1,19
 108 678 108 678 129 708 c 128,-1,20
 150 738 150 738 177.5 768.5 c 128,-1,21
 205 799 205 799 231 824.5 c 128,-1,22
 257 850 257 850 263 857.5 c 128,-1,23
 269 865 269 865 277.5 871.5 c 128,-1,24
 286 878 286 878 297 884.5 c 0,25,26
 323.230769231 900 323.230769231 900 339.615384615 900 c 0,27,28
 375.636363636 900 375.636363636 900 386 881 c 0,29,30
 531 632.428571429 531 632.428571429 531 186 c 0,31,32
 531 149.666666667 531 149.666666667 550 137 c 1,33,-1
 628 274 l 1,34,35
 744.970540098 473.28314239 744.970540098 473.28314239 796 621 c 0,36,37
 815 676 815 676 815 702.5 c 128,-1,38
 815 729 815 729 810 741.5 c 128,-1,39
 805 754 805 754 798.5 764.5 c 0,40,41
 782 791.153846154 782 791.153846154 782 807.576923077 c 128,-1,42
 782 824 782 824 788 840.5 c 128,-1,43
 794 857 794 857 805.5 870 c 0,44,45
 832.038461538 900 832.038461538 900 865.519230769 900 c 128,-1,46
 899 900 899 900 918 890.5 c 128,-1,47
 937 881 937 881 948 864 c 0,48,49
 968 833.090909091 968 833.090909091 968 784.045454545 c 128,-1,50
 968 735 968 735 943.5 681 c 128,-1,51
 919 627 919 627 880.5 561.5 c 128,-1,52
 842 496 842 496 794 423.5 c 128,-1,53
 746 351 746 351 699 280 c 0,54,55
 580.083160083 100.35966736 580.083160083 100.35966736 545 33 c 1,56,57
 510 -46 510 -46 467 -155.5 c 128,-1,58
 424 -265 424 -265 362 -402 c 2,59,-1
 324 -486 l 2,60,61
 322 -490 322 -490 320 -497 c 128,-1,62
 318 -504 318 -504 315.5 -511.5 c 0,63,64
 310 -528 310 -528 310 -543.5 c 128,-1,65
 310 -559 310 -559 317 -569.5 c 0,66,67
 329.670588235 -588.505882353 329.670588235 -588.505882353 386 -587.5 c 0,68,69
 395.333333333 -587.333333333 395.333333333 -587.333333333 411.666666667 -587.333333333 c 128,-1,70
 428 -587.333333333 428 -587.333333333 456 -588 c 1,71,-1
 449 -620 l 1,72,-1
 -20 -620 l 1,73,-1
 -13 -588 l 1,74,75
 58.3333333333 -588 58.3333333333 -588 83.6666666667 -578 c 128,-1,0
 109 -568 109 -568 133.906779661 -543.093220339 c 128,-1,1
EndSplineSet
EndChar

StartChar: z
Encoding: 122 122 92
Width: 1143
Flags: W
LayerCount: 2
Fore
SplineSet
332 204 m 1,0,-1
 389 210 l 1,1,2
 519.432432432 210 519.432432432 210 639 131 c 0,3,4
 718.130434783 79 718.130434783 79 783.565217391 79 c 0,5,6
 874.925925926 79 874.925925926 79 912 124.5 c 0,7,8
 941.875 161.164772727 941.875 161.164772727 953.9375 171.582386364 c 128,-1,9
 966 182 966 182 979 182 c 0,10,11
 1008 182 1008 182 1008 153 c 0,12,13
 1008 138.065217391 1008 138.065217391 971.5 105.532608696 c 128,-1,14
 935 73 935 73 904.5 51.5 c 128,-1,15
 874 30 874 30 839.5 12 c 0,16,17
 760.916666667 -29 760.916666667 -29 715.458333333 -29 c 128,-1,18
 670 -29 670 -29 643 -21.5 c 128,-1,19
 616 -14 616 -14 590.5 -2 c 128,-1,20
 565 10 565 10 540.5 24.5 c 128,-1,21
 516 39 516 39 492 52.5 c 128,-1,22
 468 66 468 66 437.5 80 c 128,-1,23
 407 94 407 94 374.5 105.5 c 0,24,25
 299.608695652 132 299.608695652 132 268.804347826 132 c 128,-1,26
 238 132 238 132 223 127.5 c 128,-1,27
 208 123 208 123 194.5 114.5 c 0,28,29
 163.81 95.1766666667 163.81 95.1766666667 159.405 76.5883333333 c 128,-1,30
 155 58 155 58 154 42 c 128,-1,31
 153 26 153 26 148.5 11 c 0,32,33
 137.514705882 -25.6176470588 137.514705882 -25.6176470588 102 -29 c 1,34,35
 62 -29 62 -29 62 17 c 256,36,37
 62 100.782608696 62 100.782608696 245 244 c 0,38,39
 458.237288136 410.881355932 458.237288136 410.881355932 762 568 c 0,40,41
 825.714285714 599.857142857 825.714285714 599.857142857 865.357142857 630.928571429 c 128,-1,42
 905 662 905 662 905 670 c 0,43,44
 905 685 905 685 877 685 c 1,45,-1
 815 681 l 1,46,47
 695.4 681 695.4 681 570 738 c 128,-1,48
 444.6 795 444.6 795 375 795 c 0,49,50
 346.585365854 795 346.585365854 795 312.292682927 758 c 128,-1,51
 278 721 278 721 263 704.5 c 128,-1,52
 248 688 248 688 239.5 688 c 128,-1,53
 231 688 231 688 221 698 c 128,-1,54
 211 708 211 708 211 720 c 128,-1,55
 211 732 211 732 226.5 752 c 128,-1,56
 242 772 242 772 266.5 792 c 128,-1,57
 291 812 291 812 321 830.5 c 128,-1,58
 351 849 351 849 380.5 863.5 c 0,59,60
 446.620689655 896 446.620689655 896 486.810344828 896 c 128,-1,61
 527 896 527 896 570.5 885.5 c 128,-1,62
 614 875 614 875 652.5 859 c 128,-1,63
 691 843 691 843 726 824 c 128,-1,64
 761 805 761 805 795.5 789 c 0,65,66
 875.28125 752 875.28125 752 924.640625 752 c 128,-1,67
 974 752 974 752 995.5 769.5 c 128,-1,68
 1017 787 1017 787 1028 805 c 128,-1,69
 1039 823 1039 823 1041 838.5 c 128,-1,70
 1043 854 1043 854 1046 867.5 c 0,71,72
 1053.22222222 900 1053.22222222 900 1087 900 c 0,73,74
 1103 900 1103 900 1118 889 c 128,-1,75
 1133 878 1133 878 1133 866 c 128,-1,76
 1133 854 1133 854 1127 840 c 128,-1,77
 1121 826 1121 826 1112.5 811.5 c 0,78,79
 1061.76476907 724.951664876 1061.76476907 724.951664876 983.382384533 660.475832438 c 128,-1,80
 905 596 905 596 844 552.5 c 128,-1,81
 783 509 783 509 729.5 479.5 c 128,-1,82
 676 450 676 450 623 422 c 0,83,84
 480.602409639 346.771084337 480.602409639 346.771084337 443.301204819 317.885542169 c 128,-1,85
 406 289 406 289 390 279 c 128,-1,86
 374 269 374 269 357.5 257 c 0,87,88
 315 226.090909091 315 226.090909091 315 215.045454545 c 128,-1,89
 315 204 315 204 332 204 c 1,0,-1
EndSplineSet
EndChar

StartChar: braceleft
Encoding: 123 123 93
Width: 799
Flags: W
LayerCount: 2
Fore
SplineSet
191 664 m 0,0,1
 168 664 168 664 168 688.5 c 128,-1,2
 168 713 168 713 180.5 729 c 128,-1,3
 193 745 193 745 207 745 c 0,4,5
 359.425742574 745 359.425742574 745 395.5 918.5 c 0,6,7
 406 969 406 969 406 1024 c 1,8,-1
 398 1243 l 1,9,10
 398 1313.14285714 398 1313.14285714 412.5 1381.07142857 c 128,-1,11
 427 1449 427 1449 476.5 1511 c 128,-1,12
 526 1573 526 1573 592 1616 c 0,13,14
 745.488372093 1716 745.488372093 1716 987 1716 c 0,15,16
 1019 1716 1019 1716 1019 1695 c 128,-1,17
 1019 1674 1019 1674 1008.5 1659.5 c 128,-1,18
 998 1645 998 1645 983.5 1645 c 0,19,20
 940 1645 940 1645 896 1639.5 c 128,-1,21
 852 1634 852 1634 799 1614 c 128,-1,22
 746 1594 746 1594 703.5 1561 c 0,23,24
 611.700821653 1489.72063799 611.700821653 1489.72063799 589 1380 c 0,25,26
 565.574468085 1262.87234043 565.574468085 1262.87234043 560.787234043 1176.93617021 c 0,27,28
 552.135831382 1021.63387978 552.135831382 1021.63387978 543.067915691 977.316939891 c 128,-1,29
 534 933 534 933 522.5 906 c 128,-1,30
 511 879 511 879 497 857 c 0,31,32
 469.383561644 813.602739726 469.383561644 813.602739726 440 791 c 1,33,34
 420 772 420 772 403 759 c 128,-1,35
 386 746 386 746 374 736.5 c 0,36,37
 348 715.916666667 348 715.916666667 348 702 c 256,38,39
 348 686.666666667 348 686.666666667 370 657.333333333 c 128,-1,40
 392 628 392 628 404.5 609 c 0,41,42
 436 561.12 436 561.12 436 511.06 c 128,-1,43
 436 461 436 461 432 436 c 128,-1,44
 428 411 428 411 420 385 c 128,-1,45
 412 359 412 359 399.5 326.5 c 128,-1,46
 387 294 387 294 372.5 252.5 c 128,-1,47
 358 211 358 211 345.5 174 c 128,-1,48
 333 137 333 137 323 99.5 c 0,49,50
 300 13.25 300 13.25 300 -46.375 c 128,-1,51
 300 -106 300 -106 321.5 -145.5 c 128,-1,52
 343 -185 343 -185 375 -211 c 0,53,54
 427.444444444 -253.611111111 427.444444444 -253.611111111 513 -275 c 1,55,56
 548 -285 548 -285 593 -285 c 0,57,58
 603 -285 603 -285 603 -295.5 c 128,-1,59
 603 -306 603 -306 601.5 -315.5 c 128,-1,60
 600 -325 600 -325 597 -334 c 0,61,62
 589.666666667 -356 589.666666667 -356 578.333333333 -356 c 2,63,-1
 546.5 -356 l 2,64,65
 380.674418605 -356 380.674418605 -356 258.5 -289.5 c 0,66,67
 120 -214.113924051 120 -214.113924051 120 -65 c 0,68,69
 120 26.5294117647 120 26.5294117647 183 165.5 c 0,70,71
 200 203 200 203 216.5 241 c 128,-1,72
 233 279 233 279 250 314 c 128,-1,73
 267 349 267 349 280 383.5 c 0,74,75
 309 460.461538462 309 460.461538462 309 507.230769231 c 128,-1,76
 309 554 309 554 301.5 579.5 c 128,-1,77
 294 605 294 605 279.5 623.5 c 0,78,79
 247.756756757 664 247.756756757 664 191 664 c 0,0,1
EndSplineSet
EndChar

StartChar: bar
Encoding: 124 124 94
Width: 581
Flags: W
LayerCount: 2
Fore
SplineSet
300 1645 m 1,0,-1
 431 1645 l 1,1,-1
 431 -35 l 1,2,-1
 300 -35 l 1,3,-1
 300 1645 l 1,0,-1
EndSplineSet
EndChar

StartChar: braceright
Encoding: 125 125 95
Width: 857
Flags: W
LayerCount: 2
Fore
SplineSet
639 868 m 0,0,1
 639 776.25 639 776.25 764 745 c 1,2,3
 786 745 786 745 786 721.5 c 128,-1,4
 786 698 786 698 773.5 681 c 128,-1,5
 761 664 761 664 748 664 c 0,6,7
 648.505494505 664 648.505494505 664 590.5 560.5 c 0,8,9
 541 472.176470588 541 472.176470588 541 353 c 1,10,11
 549 139 l 1,12,13
 549 -209.85046729 549 -209.85046729 205.5 -319 c 0,14,15
 89.0588235294 -356 89.0588235294 -356 -33 -356 c 2,16,-1
 -65 -356 l 2,17,18
 -75 -356 -75 -356 -75 -343.5 c 128,-1,19
 -75 -331 -75 -331 -73 -321.5 c 128,-1,20
 -71 -312 -71 -312 -68 -304 c 0,21,22
 -60.875 -285 -60.875 -285 -50 -285 c 0,23,24
 -4.75 -285 -4.75 -285 34.625 -275.5 c 128,-1,25
 74 -266 74 -266 124.5 -247.5 c 128,-1,26
 175 -229 175 -229 223 -195.5 c 0,27,28
 334.711359119 -117.534780615 334.711359119 -117.534780615 365 25 c 0,29,30
 386.382022472 126.078651685 386.382022472 126.078651685 396.191011236 265.039325843 c 128,-1,31
 406 404 406 404 412.5 434.5 c 128,-1,32
 419 465 419 465 430.5 491.5 c 128,-1,33
 442 518 442 518 455 540 c 0,34,35
 479.925619835 582.181818182 479.925619835 582.181818182 504.962809917 605.090909091 c 128,-1,36
 530 628 530 628 548 643 c 128,-1,37
 566 658 566 658 579 669 c 0,38,39
 605 691 605 691 605 706 c 256,40,41
 605 719.5 605 719.5 584 745.75 c 128,-1,42
 563 772 563 772 550.5 789.5 c 0,43,44
 517 836.4 517 836.4 517 886.2 c 128,-1,45
 517 936 517 936 522.5 964.5 c 128,-1,46
 528 993 528 993 536.5 1021.5 c 128,-1,47
 545 1050 545 1050 555.5 1078.5 c 128,-1,48
 566 1107 566 1107 584.5 1160 c 128,-1,49
 603 1213 603 1213 627.5 1287.5 c 128,-1,50
 652 1362 652 1362 652 1422 c 128,-1,51
 652 1482 652 1482 636 1517 c 128,-1,52
 620 1552 620 1552 591.5 1577.5 c 0,53,54
 516.058823529 1645 516.058823529 1645 364 1645 c 0,55,56
 343 1645 343 1645 343 1669 c 0,57,58
 343 1716 343 1716 388 1716 c 0,59,60
 527.307692308 1716 527.307692308 1716 601.153846154 1692 c 128,-1,61
 675 1668 675 1668 722 1633 c 0,62,63
 827 1554.80851064 827 1554.80851064 827 1431 c 0,64,65
 827 1337.41176471 827 1337.41176471 764 1204 c 0,66,67
 747 1168 747 1168 731.5 1134.5 c 128,-1,68
 716 1101 716 1101 700 1068.5 c 128,-1,69
 684 1036 684 1036 670.5 1002.5 c 0,70,71
 639 924.333333333 639 924.333333333 639 868 c 0,0,1
EndSplineSet
EndChar

StartChar: asciitilde
Encoding: 126 126 96
Width: 898
Flags: W
LayerCount: 2
Fore
SplineSet
1003 781 m 1,0,1
 1003 637.032258065 1003 637.032258065 936 549.5 c 0,2,3
 872.086419753 466 872.086419753 466 780 466 c 0,4,5
 728 466 728 466 684.5 487 c 128,-1,6
 641 508 641 508 591 542 c 128,-1,7
 541 576 541 576 506.5 598 c 128,-1,8
 472 620 472 620 447.5 631.5 c 0,9,10
 408.086956522 650 408.086956522 650 377.543478261 650 c 128,-1,11
 347 650 347 650 327.5 641.5 c 128,-1,12
 308 633 308 633 292 612.5 c 0,13,14
 255.813897281 566.136555891 255.813897281 566.136555891 254 470 c 1,15,-1
 135 470 l 1,16,17
 135 614.967741935 135 614.967741935 202 702.5 c 0,18,19
 265.148148148 785 265.148148148 785 358 785 c 0,20,21
 418.727272727 785 418.727272727 785 455.363636364 772 c 0,22,23
 526.127192982 746.890350877 526.127192982 746.890350877 633 669 c 1,24,25
 648 660 648 660 665 648 c 128,-1,26
 682 636 682 636 700 625.5 c 0,27,28
 742 601 742 601 768.5 601 c 128,-1,29
 795 601 795 601 815 610.5 c 128,-1,30
 835 620 835 620 850.5 641.5 c 0,31,32
 885 689.35483871 885 689.35483871 885 781 c 1,33,-1
 1003 781 l 1,0,1
EndSplineSet
EndChar

StartChar: cent
Encoding: 162 162 99
Width: 606
Flags: W
LayerCount: 2
Fore
SplineSet
656.5 882.5 m 128,-1,1
 680 863 680 863 680 803 c 128,-1,2
 680 743 680 743 645 743 c 0,3,4
 610.80952381 743 610.80952381 743 568.904761905 770.5 c 128,-1,5
 527 798 527 798 511 804 c 1,6,-1
 351 54 l 1,7,-1
 363 54 l 2,8,9
 417.684210526 54 417.684210526 54 464.842105263 86 c 128,-1,10
 512 118 512 118 539 139.5 c 128,-1,11
 566 161 566 161 592 178 c 1,12,-1
 613 152 l 1,13,14
 534.4 73.4 534.4 73.4 494.2 45.2 c 0,15,16
 417.001250782 -8.95434646654 417.001250782 -8.95434646654 335 -22 c 1,17,-1
 263 -360 l 1,18,-1
 202 -360 l 1,19,-1
 273 -27 l 1,20,21
 77 -23.3018867925 77 -23.3018867925 77 192 c 0,22,23
 77 433.587155963 77 433.587155963 198.5 632 c 0,24,25
 308.630421119 811.846008799 308.630421119 811.846008799 465 877 c 1,26,-1
 517 1120 l 1,27,-1
 578 1120 l 1,28,-1
 530 897 l 1,29,30
 565 902 565 902 599 902 c 128,-1,0
 633 902 633 902 656.5 882.5 c 128,-1,1
294 73 m 1,31,-1
 449 802 l 1,32,33
 325.61682243 752.646728972 325.61682243 752.646728972 255.5 424.5 c 0,34,35
 230 305.16 230 305.16 230 211.022857143 c 128,-1,36
 230 116.885714286 230 116.885714286 294 73 c 1,31,-1
EndSplineSet
EndChar

StartChar: sterling
Encoding: 163 163 100
Width: 1487
Flags: W
LayerCount: 2
Fore
SplineSet
1262.5 -5 m 128,-1,1
 1274 -1 1274 -1 1287 -0.5 c 128,-1,2
 1300 0 1300 0 1316 -6 c 128,-1,3
 1332 -12 1332 -12 1345.5 -25.5 c 0,4,5
 1377 -57 1377 -57 1377 -121.5 c 128,-1,6
 1377 -186 1377 -186 1348.5 -252.5 c 128,-1,7
 1320 -319 1320 -319 1271.5 -369 c 0,8,9
 1166.74 -477 1166.74 -477 1020 -477 c 0,10,11
 917.636363636 -477 917.636363636 -477 794 -397 c 0,12,13
 738 -361 738 -361 699.5 -335.5 c 128,-1,14
 661 -310 661 -310 633 -293.5 c 128,-1,15
 605 -277 605 -277 584 -267.5 c 128,-1,16
 563 -258 563 -258 542 -253.5 c 0,17,18
 511.666666667 -247 511.666666667 -247 458.833333333 -247 c 128,-1,19
 406 -247 406 -247 382.5 -263.5 c 128,-1,20
 359 -280 359 -280 337 -305 c 128,-1,21
 315 -330 315 -330 295 -359.5 c 128,-1,22
 275 -389 275 -389 254 -414 c 0,23,24
 205.28 -472 205.28 -472 167.64 -472 c 128,-1,25
 130 -472 130 -472 115 -458 c 128,-1,26
 100 -444 100 -444 100 -412.5 c 128,-1,27
 100 -381 100 -381 117.5 -356.5 c 128,-1,28
 135 -332 135 -332 163.5 -310 c 0,29,30
 217.811320755 -268.075471698 217.811320755 -268.075471698 298 -236 c 1,31,32
 360.2 -198.68 360.2 -198.68 375 -175 c 0,33,34
 444.966824645 -56.7227488152 444.966824645 -56.7227488152 522 138 c 1,35,-1
 246 138 l 1,36,-1
 260 202 l 1,37,-1
 548 202 l 1,38,-1
 811 832 l 2,39,40
 948.410367171 1160.25809935 948.410367171 1160.25809935 1126 1299 c 0,41,42
 1268.08 1410 1268.08 1410 1443 1410 c 0,43,44
 1530.41176471 1410 1530.41176471 1410 1549.5 1351 c 0,45,46
 1555 1334 1555 1334 1555 1314 c 128,-1,47
 1555 1294 1555 1294 1537 1275 c 128,-1,48
 1519 1256 1519 1256 1491.5 1256 c 128,-1,49
 1464 1256 1464 1256 1445 1269.5 c 128,-1,50
 1426 1283 1426 1283 1408.5 1299 c 0,51,52
 1361.46875 1342 1361.46875 1342 1321.734375 1342 c 128,-1,53
 1282 1342 1282 1342 1250.5 1331 c 128,-1,54
 1219 1320 1219 1320 1194 1301 c 0,55,56
 1158.80446927 1274.25139665 1158.80446927 1274.25139665 1113 1203 c 1,57,58
 1038.74744027 1048.30716724 1038.74744027 1048.30716724 685 202 c 1,59,-1
 1002 202 l 1,60,-1
 988 138 l 1,61,-1
 658 138 l 1,62,63
 566.330188679 -78.8773584906 566.330188679 -78.8773584906 442 -196 c 1,64,65
 455 -195 455 -195 468 -195 c 128,-1,66
 481 -195 481 -195 540.5 -195 c 128,-1,67
 600 -195 600 -195 701 -218.5 c 128,-1,68
 802 -242 802 -242 887 -302 c 1,69,70
 1013.5 -394 1013.5 -394 1130 -394 c 0,71,72
 1183 -394 1183 -394 1230.5 -346.5 c 0,73,74
 1275 -302 1275 -302 1275 -263.5 c 128,-1,75
 1275 -225 1275 -225 1266 -201 c 128,-1,76
 1257 -177 1257 -177 1246.5 -154 c 0,77,78
 1219 -93.7619047619 1219 -93.7619047619 1219 -68.880952381 c 128,-1,79
 1219 -44 1219 -44 1225 -33.5 c 128,-1,80
 1231 -23 1231 -23 1241 -16 c 128,-1,0
 1251 -9 1251 -9 1262.5 -5 c 128,-1,1
EndSplineSet
EndChar

StartChar: currency
Encoding: 164 164 101
Width: 1049
Flags: W
LayerCount: 2
Fore
SplineSet
747 404 m 1,0,1
 649.742857143 330 649.742857143 330 528.343650794 330 c 128,-1,2
 406.944444444 330 406.944444444 330 306 409 c 1,3,-1
 114 218 l 1,4,-1
 52 280 l 1,5,-1
 246 473 l 1,6,7
 181 565.258064516 181 565.258064516 181 683.684587814 c 128,-1,8
 181 802.111111111 181 802.111111111 257 895 c 1,9,-1
 61 1093 l 1,10,-1
 124 1156 l 1,11,-1
 321 958 l 1,12,13
 416.294117647 1030 416.294117647 1030 532.147058824 1030 c 128,-1,14
 648 1030 648 1030 739 963 c 1,15,-1
 933 1157 l 1,16,-1
 995 1095 l 1,17,-1
 801 900 l 1,18,19
 884 801.710526316 884 801.710526316 884 684.309808612 c 128,-1,20
 884 566.909090909 884 566.909090909 810 466 c 1,21,-1
 997 278 l 1,22,-1
 935 216 l 1,23,-1
 747 404 l 1,0,1
279 681.5 m 0,24,25
 279 629 279 629 299 583 c 128,-1,26
 319 537 319 537 353 502 c 0,27,28
 425.857142857 427 425.857142857 427 531 427 c 256,29,30
 636 427 636 427 711 502 c 128,-1,31
 786 577 786 577 786 682 c 0,32,33
 786 786.571428571 786 786.571428571 711 860.5 c 0,34,35
 636.434782609 934 636.434782609 934 531 934 c 256,36,37
 425.434782609 934 425.434782609 934 353 860.5 c 0,38,39
 279 785.411764706 279 785.411764706 279 681.5 c 0,24,25
EndSplineSet
EndChar

StartChar: yen
Encoding: 165 165 102
Width: 1484
Flags: W
LayerCount: 2
Fore
SplineSet
375 27 m 2,0,1
 375 40 375 40 395 40 c 2,2,-1
 455 40 l 2,3,4
 525.655172414 40 525.655172414 40 581 93.5 c 0,5,6
 620.84939759 132.021084337 620.84939759 132.021084337 627 172 c 1,7,-1
 654 305 l 1,8,-1
 385 305 l 2,9,10
 364 305 364 305 364 325 c 1,11,-1
 369 355 l 2,12,13
 374 379 374 379 391 379 c 2,14,-1
 670 379 l 1,15,16
 680.833333333 430.458333333 680.833333333 430.458333333 699 544 c 1,17,-1
 436 544 l 2,18,19
 415 544 415 544 415 564 c 1,20,-1
 420 594 l 2,21,22
 425 619 425 619 442 619 c 2,23,-1
 676 619 l 1,24,25
 640.878787879 698.484848485 640.878787879 698.484848485 596.939393939 801.742424242 c 0,26,27
 411.615384615 1237.25384615 411.615384615 1237.25384615 390.807692308 1272.62692308 c 128,-1,28
 370 1308 370 1308 352.5 1327 c 0,29,30
 313.815789474 1369 313.815789474 1369 282.407894737 1369 c 128,-1,31
 251 1369 251 1369 251 1382 c 2,32,-1
 251 1395 l 2,33,34
 251 1406.28571429 251 1406.28571429 270 1409 c 1,35,-1
 711 1409 l 2,36,37
 730 1409 730 1409 730 1395 c 2,38,-1
 730 1382 l 2,39,40
 730 1369 730 1369 714 1369 c 2,41,-1
 676 1369 l 2,42,43
 626.733333333 1369 626.733333333 1369 603.5 1328 c 0,44,45
 595 1313 595 1313 595 1290 c 128,-1,46
 595 1267 595 1267 618 1215.5 c 128,-1,47
 641 1164 641 1164 667.5 1103 c 128,-1,48
 694 1042 694 1042 720 980.5 c 0,49,50
 787.483146067 820.876404494 787.483146067 820.876404494 813.241573034 762.938202247 c 128,-1,51
 839 705 839 705 842 697.5 c 128,-1,52
 845 690 845 690 848.5 683 c 0,53,54
 857 666 857 666 866 666 c 0,55,56
 881.285714286 666 881.285714286 666 902.142857143 692 c 128,-1,57
 923 718 923 718 941.5 739.5 c 128,-1,58
 960 761 960 761 976 780 c 128,-1,59
 992 799 992 799 1003 812 c 128,-1,60
 1014 825 1014 825 1060 879 c 128,-1,61
 1106 933 1106 933 1184.5 1028.5 c 128,-1,62
 1263 1124 1263 1124 1307.5 1175.5 c 128,-1,63
 1352 1227 1352 1227 1359 1247 c 128,-1,64
 1366 1267 1366 1267 1366 1294 c 128,-1,65
 1366 1321 1366 1321 1346 1345 c 128,-1,66
 1326 1369 1326 1369 1286 1369 c 2,67,-1
 1249 1369 l 2,68,69
 1229 1369 1229 1369 1229 1383 c 2,70,-1
 1229 1396 l 2,71,72
 1229 1410 1229 1410 1249 1410 c 2,73,-1
 1619 1410 l 2,74,75
 1626 1410 1626 1410 1630 1405.5 c 128,-1,76
 1634 1401 1634 1401 1634 1398 c 2,77,-1
 1634 1385 l 2,78,79
 1634 1374 1634 1374 1628 1371 c 128,-1,80
 1622 1368 1622 1368 1612.5 1366 c 0,81,82
 1576.69230769 1358.46153846 1576.69230769 1358.46153846 1560.34615385 1347.73076923 c 128,-1,83
 1544 1337 1544 1337 1524 1317.5 c 128,-1,84
 1504 1298 1504 1298 1483.5 1276 c 0,85,86
 1454.90123457 1245.30864198 1454.90123457 1245.30864198 1373.45061728 1147.15432099 c 128,-1,87
 1292 1049 1292 1049 1168.5 903.5 c 128,-1,88
 1045 758 1045 758 928 619 c 1,89,-1
 1194 619 l 2,90,91
 1215 619 1215 619 1215 599 c 1,92,-1
 1209 569 l 2,93,94
 1204 544 1204 544 1188 544 c 2,95,-1
 878 544 l 1,96,97
 870 502 870 502 861 461.5 c 128,-1,98
 852 421 852 421 843 379 c 1,99,-1
 1142 379 l 2,100,101
 1163 379 1163 379 1163 359 c 1,102,-1
 1157 329 l 2,103,104
 1152 305 1152 305 1136 305 c 2,105,-1
 828 305 l 1,106,-1
 807 200 l 2,107,108
 802 177 802 177 802 161 c 0,109,110
 802 105 802 105 846 72.5 c 128,-1,111
 890 40 890 40 971 40 c 2,112,-1
 1018 40 l 2,113,114
 1036 40 1036 40 1036 27 c 2,115,-1
 1036 13 l 2,116,117
 1036 0 1036 0 1020 0 c 2,118,-1
 395 0 l 2,119,120
 375 0 375 0 375 15 c 2,121,-1
 375 27 l 2,0,1
EndSplineSet
EndChar

StartChar: brokenbar
Encoding: 166 166 103
Width: 571
Flags: W
LayerCount: 2
Fore
SplineSet
421 1645 m 1,0,-1
 421 895 l 1,1,-1
 300 895 l 1,2,-1
 300 1645 l 1,3,-1
 421 1645 l 1,0,-1
421 717 m 1,4,-1
 421 -35 l 1,5,-1
 300 -35 l 1,6,-1
 300 717 l 1,7,-1
 421 717 l 1,4,-1
EndSplineSet
EndChar

StartChar: section
Encoding: 167 167 104
Width: 1031
Flags: W
LayerCount: 2
Fore
SplineSet
572 1436 m 1,0,1
 506 1363.61290323 506 1363.61290323 506 1300.80645161 c 0,2,3
 506 1192.89473684 506 1192.89473684 554 1107 c 1,4,5
 576.647058824 1045.01857585 576.647058824 1045.01857585 645.323529412 918.509287926 c 128,-1,6
 714 792 714 792 752.5 714.5 c 128,-1,7
 791 637 791 637 822 551.5 c 0,8,9
 893 355.677419355 893 355.677419355 893 206.838709677 c 128,-1,10
 893 58 893 58 851.5 -66 c 128,-1,11
 810 -190 810 -190 724 -294 c 0,12,13
 534.851642529 -522.737548569 534.851642529 -522.737548569 187 -570 c 1,14,15
 100 -570 100 -570 39 -539.5 c 128,-1,16
 -22 -509 -22 -509 -48.5 -478.5 c 128,-1,17
 -75 -448 -75 -448 -75 -423 c 128,-1,18
 -75 -398 -75 -398 -70 -385 c 128,-1,19
 -65 -372 -65 -372 -51.5 -360.5 c 0,20,21
 -19.2173913043 -333 -19.2173913043 -333 22.8913043478 -333 c 128,-1,22
 65 -333 65 -333 82 -345 c 128,-1,23
 99 -357 99 -357 114.5 -375.5 c 128,-1,24
 130 -394 130 -394 145.5 -415 c 128,-1,25
 161 -436 161 -436 181 -454.5 c 0,26,27
 226.945945946 -497 226.945945946 -497 274.972972973 -497 c 128,-1,28
 323 -497 323 -497 370.5 -481.5 c 128,-1,29
 418 -466 418 -466 460 -437 c 0,30,31
 560 -367.952380952 560 -367.952380952 560 -274 c 0,32,33
 560 -205.705882353 560 -205.705882353 539.5 -153.852941176 c 128,-1,34
 519 -102 519 -102 483 -24.5 c 128,-1,35
 447 53 447 53 385 169.5 c 128,-1,36
 323 286 323 286 275 392.5 c 0,37,38
 169 627.6875 169 627.6875 169 819 c 0,39,40
 169 993.964705882 169 993.964705882 255.5 1169 c 0,41,42
 399.180683564 1459.74208909 399.180683564 1459.74208909 666.5 1558 c 0,43,44
 759 1592 759 1592 830 1592 c 128,-1,45
 901 1592 901 1592 948 1582.5 c 128,-1,46
 995 1573 995 1573 1038 1553.5 c 0,47,48
 1141 1506.79069767 1141 1506.79069767 1141 1430 c 0,49,50
 1141 1383.59574468 1141 1383.59574468 1080.5 1363 c 0,51,52
 1057 1355 1057 1355 1028.5 1355 c 128,-1,53
 1000 1355 1000 1355 983.5 1367 c 128,-1,54
 967 1379 967 1379 951.5 1397.5 c 128,-1,55
 936 1416 936 1416 920 1437 c 128,-1,56
 904 1458 904 1458 884.5 1476.5 c 0,57,58
 839.702702703 1519 839.702702703 1519 794.351351351 1519 c 128,-1,59
 749 1519 749 1519 725.5 1514.5 c 128,-1,60
 702 1510 702 1510 679.5 1500.5 c 0,61,62
 647.167095116 1486.84832905 647.167095116 1486.84832905 572 1436 c 1,0,1
423 1299 m 1,63,64
 264 1084.13513514 264 1084.13513514 264 874 c 0,65,66
 264 700.176470588 264 700.176470588 382 426 c 0,67,68
 432.306122449 309.112244898 432.306122449 309.112244898 496.653061224 175.056122449 c 128,-1,69
 561 41 561 41 580.5 -3.5 c 128,-1,70
 600 -48 600 -48 609 -77.5 c 128,-1,71
 618 -107 618 -107 625 -140.5 c 0,72,73
 638.50955414 -205.152866242 638.50955414 -205.152866242 643 -277 c 1,74,75
 758.100917431 -161.899082569 758.100917431 -161.899082569 787.5 56 c 0,76,77
 796 119 796 119 796 182.5 c 128,-1,78
 796 246 796 246 778 322.5 c 128,-1,79
 760 399 760 399 731 477.5 c 128,-1,80
 702 556 702 556 666 633.5 c 128,-1,81
 630 711 630 711 594.5 784.5 c 0,82,83
 496.915085818 986.54200542 496.915085818 986.54200542 481.957542909 1028.77100271 c 128,-1,84
 467 1071 467 1071 457.5 1102.5 c 128,-1,85
 448 1134 448 1134 440.5 1168.5 c 0,86,87
 423 1249 423 1249 423 1299 c 1,63,64
EndSplineSet
EndChar

StartChar: dieresis
Encoding: 168 168 105
Width: 743
Flags: W
LayerCount: 2
Fore
SplineSet
790 1188 m 128,-1,1
 762 1160 762 1160 730 1160 c 128,-1,2
 698 1160 698 1160 679.5 1167.5 c 128,-1,3
 661 1175 661 1175 647.5 1188.5 c 0,4,5
 619 1217 619 1217 619 1258 c 256,6,7
 619 1324.83783784 619 1324.83783784 679.5 1351 c 0,8,9
 698 1359 698 1359 730 1359 c 128,-1,10
 762 1359 762 1359 790 1329.5 c 128,-1,11
 818 1300 818 1300 818 1258 c 256,12,0
 818 1216 818 1216 790 1188 c 128,-1,1
430.5 1188 m 128,-1,14
 402 1160 402 1160 370 1160 c 128,-1,15
 338 1160 338 1160 320 1167.5 c 128,-1,16
 302 1175 302 1175 288.5 1188.5 c 0,17,18
 260 1217 260 1217 260 1258 c 256,19,20
 260 1324.33333333 260 1324.33333333 320 1351 c 0,21,22
 338 1359 338 1359 359 1359 c 256,23,24
 401 1359 401 1359 422.5 1337.5 c 0,25,26
 459 1301 459 1301 459 1258.5 c 128,-1,13
 459 1216 459 1216 430.5 1188 c 128,-1,14
EndSplineSet
EndChar

StartChar: copyright
Encoding: 169 169 106
Width: 1717
Flags: W
LayerCount: 2
Fore
SplineSet
90 723 m 256,0,1
 90 930.2 90 930.2 194 1107 c 0,2,3
 295.111111111 1278.88888889 295.111111111 1278.88888889 467 1380 c 0,4,5
 643.8 1484 643.8 1484 851 1484 c 256,6,7
 1058.2 1484 1058.2 1484 1235 1380 c 0,8,9
 1406.88888889 1278.88888889 1406.88888889 1278.88888889 1508 1107 c 0,10,11
 1612 930.2 1612 930.2 1612 723 c 256,12,13
 1612 515.8 1612 515.8 1508 339 c 0,14,15
 1406.88888889 167.111111111 1406.88888889 167.111111111 1235 66 c 0,16,17
 1058.2 -38 1058.2 -38 851 -38 c 256,18,19
 643.8 -38 643.8 -38 467 66 c 0,20,21
 295.111111111 167.111111111 295.111111111 167.111111111 194 339 c 0,22,23
 90 515.8 90 515.8 90 723 c 256,0,1
210 900 m 0,24,25
 186 815 186 815 186 723.5 c 128,-1,26
 186 632 186 632 210 547 c 128,-1,27
 234 462 234 462 277 388.5 c 128,-1,28
 320 315 320 315 380.5 254 c 128,-1,29
 441 193 441 193 515 150 c 0,30,31
 671.604651163 59 671.604651163 59 850 59 c 256,32,33
 1125 59 1125 59 1320 254 c 0,34,35
 1443 377 1443 377 1491 547 c 0,36,37
 1515 632 1515 632 1515 723.5 c 128,-1,38
 1515 815 1515 815 1491 900 c 128,-1,39
 1467 985 1467 985 1424 1059 c 128,-1,40
 1381 1133 1381 1133 1320 1193.5 c 128,-1,41
 1259 1254 1259 1254 1185.5 1297 c 0,42,43
 1029.95348837 1388 1029.95348837 1388 850 1388 c 256,44,45
 671.604651163 1388 671.604651163 1388 515 1297 c 0,46,47
 284.232027387 1162.905097 284.232027387 1162.905097 210 900 c 0,24,25
1168 302 m 2,48,49
 1166 297 1166 297 1154 300 c 128,-1,50
 1142 303 1142 303 1124 303 c 128,-1,51
 1106 303 1106 303 1075 296 c 128,-1,52
 1044 289 1044 289 1008.5 281 c 0,53,54
 910.875 259 910.875 259 837.9375 259 c 128,-1,55
 765 259 765 259 672.5 292.5 c 128,-1,56
 580 326 580 326 510 387.5 c 0,57,58
 358 521.042857143 358 521.042857143 358 732 c 0,59,60
 358 947.661870504 358 947.661870504 508.5 1089.5 c 0,61,62
 654.396946565 1227 654.396946565 1227 872 1227 c 0,63,64
 959 1227 959 1227 1041 1206.5 c 128,-1,65
 1123 1186 1123 1186 1144 1177 c 128,-1,66
 1165 1168 1165 1168 1173 1168 c 1,67,68
 1193 1173 l 1,69,-1
 1213 1173 l 2,70,71
 1221 1173 1221 1173 1221 1162 c 2,72,-1
 1221 959 l 2,73,74
 1221 952 1221 952 1212 952 c 0,75,76
 1197.66666667 952 1197.66666667 952 1194.83333333 956.5 c 0,77,78
 1186.51612903 969.709677419 1186.51612903 969.709677419 1180 986 c 1,79,80
 1080 1182 1080 1182 882 1182 c 0,81,82
 699.621621622 1182 699.621621622 1182 598 1064.5 c 0,83,84
 500 951.1875 500 951.1875 500 770 c 0,85,86
 500 574.523809524 500 574.523809524 607.5 444.5 c 0,87,88
 722.834645669 305 722.834645669 305 914 305 c 0,89,90
 1111 305 1111 305 1240 520 c 1,91,92
 1241 524 1241 524 1248 524 c 2,93,-1
 1256 524 l 2,94,95
 1263 524 1263 524 1263 515 c 0,96,97
 1263 509 1263 509 1259 501 c 2,98,-1
 1168 302 l 2,48,49
EndSplineSet
EndChar

StartChar: guillemotleft
Encoding: 171 171 108
Width: 812
Flags: W
LayerCount: 2
Fore
SplineSet
520 927 m 1,0,-1
 241 552 l 1,1,-1
 367 179 l 1,2,-1
 318 179 l 1,3,-1
 100 552 l 1,4,-1
 473 927 l 1,5,-1
 520 927 l 1,0,-1
822 927 m 1,6,-1
 543 552 l 1,7,-1
 669 179 l 1,8,-1
 620 179 l 1,9,-1
 402 552 l 1,10,-1
 775 927 l 1,11,-1
 822 927 l 1,6,-1
EndSplineSet
EndChar

StartChar: logicalnot
Encoding: 172 172 109
Width: 1154
Flags: W
LayerCount: 2
Fore
SplineSet
1129 689 m 1,0,-1
 1129 181 l 1,1,-1
 1002 181 l 1,2,-1
 1002 562 l 1,3,-1
 265 562 l 1,4,-1
 265 689 l 1,5,-1
 1129 689 l 1,0,-1
EndSplineSet
EndChar

StartChar: registered
Encoding: 174 174 111
Width: 1702
Flags: W
LayerCount: 2
Fore
SplineSet
90 723 m 256,0,1
 90 930.2 90 930.2 194 1107 c 0,2,3
 295.111111111 1278.88888889 295.111111111 1278.88888889 467 1380 c 0,4,5
 643.8 1484 643.8 1484 851 1484 c 256,6,7
 1058.2 1484 1058.2 1484 1235 1380 c 0,8,9
 1406.88888889 1278.88888889 1406.88888889 1278.88888889 1508 1107 c 0,10,11
 1612 930.2 1612 930.2 1612 723 c 256,12,13
 1612 515.8 1612 515.8 1508 339 c 0,14,15
 1406.88888889 167.111111111 1406.88888889 167.111111111 1235 66 c 0,16,17
 1058.2 -38 1058.2 -38 851 -38 c 256,18,19
 643.8 -38 643.8 -38 467 66 c 0,20,21
 295.111111111 167.111111111 295.111111111 167.111111111 194 339 c 0,22,23
 90 515.8 90 515.8 90 723 c 256,0,1
210 900 m 0,24,25
 186 815 186 815 186 723.5 c 128,-1,26
 186 632 186 632 210 547 c 128,-1,27
 234 462 234 462 277 388.5 c 128,-1,28
 320 315 320 315 380.5 254 c 128,-1,29
 441 193 441 193 515 150 c 0,30,31
 671.604651163 59 671.604651163 59 850 59 c 256,32,33
 1125 59 1125 59 1320 254 c 0,34,35
 1443 377 1443 377 1491 547 c 0,36,37
 1515 632 1515 632 1515 723.5 c 128,-1,38
 1515 815 1515 815 1491 900 c 128,-1,39
 1467 985 1467 985 1424 1059 c 128,-1,40
 1381 1133 1381 1133 1320 1193.5 c 128,-1,41
 1259 1254 1259 1254 1185.5 1297 c 0,42,43
 1029.95348837 1388 1029.95348837 1388 850 1388 c 256,44,45
 671.604651163 1388 671.604651163 1388 515 1297 c 0,46,47
 284.232027387 1162.905097 284.232027387 1162.905097 210 900 c 0,24,25
455 320 m 2,48,49
 450 320 450 320 450 332 c 2,50,-1
 450 339 l 2,51,52
 450 344 450 344 455 344 c 258,53,-1
 509 352 l 1,54,55
 570 366.352941176 570 366.352941176 570 422 c 2,56,-1
 570 1056 l 2,57,58
 570 1106.36363636 570 1106.36363636 528.5 1129 c 0,59,60
 504.666666667 1142 504.666666667 1142 476 1142 c 2,61,-1
 453 1142 l 2,62,63
 448 1142 448 1142 448 1147 c 2,64,-1
 448 1161 l 2,65,66
 448 1166 448 1166 456 1166 c 2,67,-1
 519 1168 l 2,68,69
 585 1170 585 1170 651.5 1172.5 c 128,-1,70
 718 1175 718 1175 785 1175 c 2,71,-1
 845 1175 l 1,72,73
 952.192405063 1166.75443038 952.192405063 1166.75443038 1022 1099 c 0,74,75
 1095 1028.14705882 1095 1028.14705882 1095 925 c 0,76,77
 1095 801.266666667 1095 801.266666667 953 735 c 1,78,79
 961 725 961 725 1018 629.5 c 128,-1,80
 1075 534 1075 534 1082 522.5 c 128,-1,81
 1089 511 1089 511 1099 495.5 c 128,-1,82
 1109 480 1109 480 1119.5 464 c 128,-1,83
 1130 448 1130 448 1144.5 424.5 c 128,-1,84
 1159 401 1159 401 1190.5 372.5 c 128,-1,85
 1222 344 1222 344 1244.5 335.5 c 128,-1,86
 1267 327 1267 327 1267.5 325 c 128,-1,87
 1268 323 1268 323 1268 320 c 0,88,89
 1268 305 1268 305 1248 305 c 0,90,91
 1164.5 305 1164.5 305 1070 368 c 1,92,93
 1042.05084746 400.881355932 1042.05084746 400.881355932 999 459 c 1,94,-1
 845 700 l 2,95,96
 843 702 843 702 842 702 c 2,97,-1
 701 709 l 1,98,-1
 696 709 l 2,99,100
 687 709 687 709 687 700 c 2,101,-1
 687 424 l 2,102,103
 687 392 687 392 705 375 c 128,-1,104
 723 358 723 358 750 354.5 c 128,-1,105
 777 351 777 351 795 347.5 c 128,-1,106
 813 344 813 344 821 344 c 128,-1,107
 829 344 829 344 829 339 c 2,108,-1
 829 325 l 2,109,110
 829 320 829 320 824 320 c 2,111,-1
 455 320 l 2,48,49
748.5 1144 m 0,112,113
 687 1144 687 1144 687 1132 c 2,114,-1
 687 769 l 1,115,116
 688.152173913 748.260869565 688.152173913 748.260869565 690.076086957 743.130434783 c 128,-1,117
 692 738 692 738 707.5 736 c 128,-1,118
 723 734 723 734 772 734 c 128,-1,119
 821 734 821 734 861.5 748.5 c 128,-1,120
 902 763 902 763 927.5 789.5 c 0,121,122
 975 838.862745098 975 838.862745098 975 939 c 0,123,124
 975 1035.80701754 975 1035.80701754 914.5 1091 c 0,125,126
 856.403846154 1144 856.403846154 1144 748.5 1144 c 0,112,113
EndSplineSet
EndChar

StartChar: macron
Encoding: 175 175 112
Width: 764
Flags: W
LayerCount: 2
Fore
SplineSet
272 1307 m 1,0,-1
 899 1307 l 1,1,-1
 872 1208 l 1,2,-1
 245 1208 l 1,3,-1
 272 1307 l 1,0,-1
EndSplineSet
EndChar

StartChar: degree
Encoding: 176 176 113
Width: 658
Flags: W
LayerCount: 2
Fore
SplineSet
333 1148 m 256,0,1
 333 1084 333 1084 379 1038 c 128,-1,2
 425 992 425 992 489 992 c 256,3,4
 553 992 553 992 599 1038 c 128,-1,5
 645 1084 645 1084 645 1148 c 256,6,7
 645 1212 645 1212 599 1258 c 0,8,9
 554 1303 554 1303 489 1303 c 256,10,11
 424 1303 424 1303 379 1258 c 0,12,13
 333 1212 333 1212 333 1148 c 256,0,1
260 1150 m 256,14,15
 260 1245 260 1245 327 1312 c 128,-1,16
 394 1379 394 1379 489 1379 c 256,17,18
 584 1379 584 1379 651 1312 c 128,-1,19
 718 1245 718 1245 718 1150 c 256,20,21
 718 1055.58064516 718 1055.58064516 651 987.5 c 0,22,23
 584.571428571 920 584.571428571 920 489 920 c 256,24,25
 393.428571429 920 393.428571429 920 327 987.5 c 0,26,27
 260 1055.58064516 260 1055.58064516 260 1150 c 256,14,15
EndSplineSet
EndChar

StartChar: plusminus
Encoding: 177 177 114
Width: 1162
Flags: W
LayerCount: 2
Fore
SplineSet
265 689 m 1,0,-1
 636 689 l 1,1,-1
 636 1056 l 1,2,-1
 771 1056 l 1,3,-1
 771 689 l 1,4,-1
 1137 689 l 1,5,-1
 1137 562 l 1,6,-1
 771 562 l 1,7,-1
 771 184 l 1,8,-1
 636 184 l 1,9,-1
 636 562 l 1,10,-1
 265 562 l 1,11,-1
 265 689 l 1,0,-1
265 127 m 1,12,-1
 1137 127 l 1,13,-1
 1137 0 l 1,14,-1
 265 0 l 1,15,-1
 265 127 l 1,12,-1
EndSplineSet
EndChar

